<?xml version="1.0" encoding="UTF-8" standalone="no"?>
<svg width="18px" height="22px" viewBox="0 0 18 22" version="1.1" xmlns="http://www.w3.org/2000/svg" xmlns:xlink="http://www.w3.org/1999/xlink" xmlns:sketch="http://www.bohemiancoding.com/sketch/ns">
    <!-- Generator: Sketch 3.3.2 (12043) - http://www.bohemiancoding.com/sketch -->
    <title>Fill 1</title>
    <desc>Created with Sketch.</desc>
    <defs/>
    <g id="Dropdown-Menu" stroke="none" stroke-width="1" fill="none" fill-rule="evenodd" sketch:type="MSPage">
        <g id="Dropdown-Menu---Desktop-1134px-States" sketch:type="MSArtboardGroup" transform="translate(-873.000000, -215.000000)" fill="#FFFFFF">
            <g id="Dropdown-Menu" sketch:type="MSLayerGroup" transform="translate(-30.000000, 130.000000)">
                <g id="Group" transform="translate(852.000000, 37.000000)" sketch:type="MSShapeGroup">
                    <g id="icon_app_ios_hover" transform="translate(0.000000, 5.000000)">
                        <path d="M66.0338316,54.6879634 C66.0075241,51.9041686 68.3166034,50.565943 68.4221921,50.5012036 C67.1106446,48.5802043 65.0860448,48.3678971 64.3727534,48.3154153 C62.5532324,48.1811763 61.0087441,49.3273257 60.1475329,49.3273257 C59.2731679,49.3273257 57.9259857,48.3443339 56.4970112,48.3711103 C54.6212879,48.3984817 52.8920493,49.4578756 51.9247711,51.1293188 C49.9761043,54.4951733 51.4273206,59.4830834 53.3255249,62.2147534 C54.2533419,63.5496468 55.3612455,65.0532911 56.8155709,64.9985482 C58.2151288,64.9441624 58.7452246,64.0981468 60.4372739,64.0981468 C62.1286057,64.0981468 62.6057277,64.9985482 64.0861214,64.9714148 C65.5929421,64.9441624 66.5475449,63.60915 67.4691438,62.2668782 C68.5354338,60.7178925 68.9742904,59.2178184 69,59.1389172 C68.9663982,59.1268976 66.0632481,58.0175211 66.0338316,54.6879634 Z M63.2496631,46.5124703 C64.0226247,45.5827932 64.5427953,44.2880049 64.4000175,43 C63.2869719,43.0439133 61.9418226,43.7377199 61.1436297,44.6666829 C60.4292621,45.4898493 59.8015895,46.8080818 59.9722294,48.0691914 C61.21179,48.1649914 62.4776581,47.4423853 63.2496631,46.5124703 Z" id="Fill-1"/>
                    </g>
                </g>
            </g>
        </g>
    </g>
</svg>