<svg width="27" height="28" viewBox="0 0 27 28" xmlns="http://www.w3.org/2000/svg" xmlns:xlink="http://www.w3.org/1999/xlink"><title>icon</title><defs><linearGradient x1="58.917%" y1="9.59%" x2="90.81%" y2="60.851%" id="b"><stop stop-color="#FF177B" offset="0%"/><stop stop-color="#FFEC73" offset="100%"/></linearGradient><path id="a" d="M10.228 5.29S1.555.473 1.046.19C.536-.09.028.08.028.67v20.766c0 .443.363.635.806.39l9.394-5.216 1.824-1.012 2.936-1.63 4.576-2.54c.536-.297.484-.706.032-.94-.454-.235-4.608-2.558-4.608-2.558l-4.76-2.64z"/><linearGradient x1="37.103%" y1="-44.035%" x2="0%" y2="101.06%" id="e"><stop stop-color="#064AA2" offset="0%"/><stop stop-color="#63FFD4" offset="100%"/></linearGradient><path id="d" d="M11.83 10.83L.426 0C.16.062 0 .26 0 .597v20.72c0 .285.115.454.255.51l11.575-11z"/><path id="g" d="M.556 10.982l6.592-3.628 2.91-1.617 4.795-2.587L11.66.043.088 11.045c.13.04.357.02.534-.07"/><linearGradient x1="78.645%" y1="50%" x2="2.495%" y2="100%" id="h"><stop stop-color="#FF4521" offset="0%"/><stop stop-color="#8A33DB" offset="100%"/></linearGradient><linearGradient x1="0%" y1="-24.186%" x2="64.224%" y2="100%" id="k"><stop stop-color="#00A3B5" offset="0%"/><stop stop-color="#D6FFA1" offset="100%"/></linearGradient><path id="j" d="M.692.183C.472.065.254.033.078.08L11.49 10.923l3.16-2.994-4.76-2.64-7.196-3.995L.692.183z"/></defs><g transform="translate(4 2)" fill="none" fill-rule="evenodd"><mask id="c" fill="#fff"><use xlink:href="#a"/></mask><use fill="url(#b)" xlink:href="#a"/><g transform="translate(0 .085)" mask="url(#c)"><mask id="f" fill="#fff"><use xlink:href="#d"/></mask><use fill="url(#e)" xlink:href="#d"/><path d="M14.98 7.845l-4.767-2.643C10.196 5.24 1.527.417 1.02.172.508-.15 0 .02 0 .596V21.403c0 .457.363.65.766.426.482-.27 9.43-5.248 9.447-5.287L14.98 13.9c-.026.036 4.01-2.21 4.51-2.474.574-.333.523-.742.084-.938-.467-.275-4.62-2.6-4.595-2.643" mask="url(#f)"/></g><g transform="translate(.17 10.872)" mask="url(#c)"><mask id="i" fill="#fff"><use xlink:href="#g"/></mask><path d="M10.044-5.586c-.017.04-8.686-4.784-9.192-5.03-.513-.32-1.02-.15-1.02.426V10.616c0 .457.362.65.765.426.482-.268 9.43-5.247 9.447-5.287l4.766-2.643c-.025.037 4.012-2.21 4.51-2.473.575-.334.524-.743.086-.94-.468-.274-4.62-2.6-4.596-2.642l-4.766-2.644z" fill="url(#h)" mask="url(#i)"/></g><g transform="translate(.34)" mask="url(#c)"><mask id="l" fill="#fff"><use xlink:href="#j"/></mask><use fill="url(#k)" xlink:href="#j"/><path d="M9.874 5.287C9.857 5.325 1.188.502.684.257.168-.066-.34.106-.34.68V21.488c0 .458.364.65.767.427.482-.27 9.43-5.248 9.447-5.287l4.766-2.644c-.025.037 4.012-2.21 4.51-2.472.576-.334.524-.743.086-.938-.468-.276-4.62-2.602-4.596-2.644L9.874 5.287z" mask="url(#l)"/></g></g></svg>
