<?xml version="1.0" standalone="no"?>
<!DOCTYPE svg PUBLIC "-//W3C//DTD SVG 1.1//EN" "http://www.w3.org/Graphics/SVG/1.1/DTD/svg11.dtd" >
<svg>
<metadata>
Created by FontForge 20090914 at Thu Mar 23 17:23:12 2017
 By www-data
Digitized data copyright 2012-2016, The Mozilla Foundation and Telefonica S.A.
</metadata>
<defs>
<font id="FiraSans-Medium" horiz-adv-x="560" >
  <font-face 
    font-family="Fira Sans Medium"
    font-weight="500"
    font-stretch="normal"
    units-per-em="1000"
    panose-1="2 11 6 3 5 0 0 2 0 4"
    ascent="800"
    descent="-200"
    x-height="529"
    cap-height="691"
    bbox="-771 -354 1360 1152"
    underline-thickness="50"
    underline-position="-50"
    unicode-range="U+000D-U+FEFF"
  />
<missing-glyph horiz-adv-x="666" 
d="M543 1050v-1400h-420v1400h420zM489 998h-311v-1296h311v1296zM409.5 419c17 -21.333 25.4961 -49.002 25.4961 -83.002c0 -35.333 -7.5 -62.666 -22.5 -81.999s-39.167 -31.333 -72.5 -36v-45c0 -7.33301 -2.5 -13.166 -7.5 -17.499s-10.833 -6.5 -17.5 -6.5
s-12.5 2.16699 -17.5 6.5s-7.5 10.166 -7.5 17.499v84c35.333 2 59.333 8.5 72 19.5s19 30.167 19 57.5c0 22 -4.33301 39 -13 51s-24.667 18 -48 18c-19.333 0 -36.666 -3.66699 -51.999 -11c-5.33301 -2 -9.66602 -3 -12.999 -3c-7.33301 0 -13.166 2.16699 -17.499 6.5
s-6.5 9.83301 -6.5 16.5c0 12.667 9.83301 22.334 29.5 29.001s40.834 10 63.501 10c40 0 68.5 -10.667 85.5 -32zM339.996 109.998c6.66699 -6.66699 10 -15 10 -25c0 -10.667 -3.33301 -19.5 -10 -26.5s-15 -10.5 -25 -10.5s-18.333 3.5 -25 10.5s-10 15.833 -10 26.5
c0 10 3.33301 18.333 10 25s15 10 25 10s18.333 -3.33301 25 -10z" />
    <glyph glyph-name="fi" unicode="fi" horiz-adv-x="588" 
d="M454 717l-39.001 -85c-35.333 16.667 -72.666 25 -111.999 25c-32.667 0 -55.167 -5.83301 -67.5 -17.5s-18.5 -30.5 -18.5 -56.5v-54h294v-529h-128v437h-166v-437h-128v437h-83v92h83v56c0 51.333 16.667 92.5 50 123.5s84.333 46.5 153 46.5c56 0 110 -12.667 162 -38
z" />
    <glyph glyph-name="fl" unicode="fl" horiz-adv-x="613" 
d="M605 3c-28.667 -12 -59.002 -18 -91.002 -18c-40 0 -70.667 11.5 -92 34.5s-32 56.5 -32 100.5v525c-30.667 9.33301 -62.334 14 -95.001 14c-29.333 0 -49.666 -5.66699 -60.999 -17s-17 -30 -17 -56v-57h113l-14 -92h-99v-437h-128v437h-83v92h83v58
c0 50 16.333 90.5 49 121.5s80 46.5 142 46.5c36.667 0 76.334 -6.33301 119.001 -19l119 13v-620c0 -14.667 2.33301 -25.167 7 -31.5s12.334 -9.5 23.001 -9.5c10 0 20 1.66699 30 5z" />
    <glyph glyph-name=".notdef" horiz-adv-x="666" 
d="M543 1050v-1400h-420v1400h420zM489 998h-311v-1296h311v1296zM409.5 419c17 -21.333 25.4961 -49.002 25.4961 -83.002c0 -35.333 -7.5 -62.666 -22.5 -81.999s-39.167 -31.333 -72.5 -36v-45c0 -7.33301 -2.5 -13.166 -7.5 -17.499s-10.833 -6.5 -17.5 -6.5
s-12.5 2.16699 -17.5 6.5s-7.5 10.166 -7.5 17.499v84c35.333 2 59.333 8.5 72 19.5s19 30.167 19 57.5c0 22 -4.33301 39 -13 51s-24.667 18 -48 18c-19.333 0 -36.666 -3.66699 -51.999 -11c-5.33301 -2 -9.66602 -3 -12.999 -3c-7.33301 0 -13.166 2.16699 -17.499 6.5
s-6.5 9.83301 -6.5 16.5c0 12.667 9.83301 22.334 29.5 29.001s40.834 10 63.501 10c40 0 68.5 -10.667 85.5 -32zM339.996 109.998c6.66699 -6.66699 10 -15 10 -25c0 -10.667 -3.33301 -19.5 -10 -26.5s-15 -10.5 -25 -10.5s-18.333 3.5 -25 10.5s-10 15.833 -10 26.5
c0 10 3.33301 18.333 10 25s15 10 25 10s18.333 -3.33301 25 -10z" />
    <glyph glyph-name="nonmarkingreturn" unicode="&#xd;" horiz-adv-x="250" 
 />
    <glyph glyph-name="space" unicode=" " horiz-adv-x="250" 
 />
    <glyph glyph-name="exclam" unicode="!" horiz-adv-x="241" 
d="M188 691l-15 -447h-107l-16 447h138zM177.5 123.5c15.667 -15.667 23.5 -34.834 23.5 -57.501c0 -22 -7.83301 -41 -23.5 -57s-34.834 -24 -57.501 -24s-41.834 8 -57.501 24s-23.5 35 -23.5 57c0 22.667 7.83301 41.834 23.5 57.501s34.834 23.5 57.501 23.5
s41.834 -7.83301 57.501 -23.5z" />
    <glyph glyph-name="quotedbl" unicode="&#x22;" horiz-adv-x="421" 
d="M71 420l-18 271h123l-17 -271h-88zM263 420l-18 271h123l-17 -271h-88z" />
    <glyph glyph-name="numbersign" unicode="#" horiz-adv-x="539" 
d="M524 443h-72l-27 -203h62v-88h-74l-20 -152h-107l20 152h-125l-20 -152h-106l20 152h-60v88h71l27 203h-61v89h73l18 141h107l-19 -141h125l19 141h107l-19 -141h61v-89zM318 240l27 203h-125l-27 -203h125z" />
    <glyph glyph-name="dollar" unicode="$" horiz-adv-x="541" 
d="M461 63.5c-32 -35 -76.999 -57.8281 -134.999 -68.4951v-153h-98v148c-85.333 5.33301 -155.666 35.333 -210.999 90l68 75c48.667 -45.333 105 -68 169 -68c36.667 0 66.334 8.66699 89.001 26s34 41.666 34 72.999c0 19.333 -3.83301 35.333 -11.5 48
s-20.834 24 -39.501 34s-45.667 20.333 -81 31c-71.333 21.333 -122.666 47.666 -153.999 78.999s-47 71.666 -47 120.999c0 48.667 16.833 89.167 50.5 121.5s78.167 52.166 133.5 59.499v147h98v-147c33.333 -4.66699 63.166 -13.5 89.499 -26.5
s51.166 -30.5 74.499 -52.5l-65 -73c-22 20 -45 34.667 -69 44s-50 14 -78 14c-30.667 0 -55.5 -6.83301 -74.5 -20.5s-28.5 -33.167 -28.5 -58.5c0 -16.667 3.83301 -30.5 11.5 -41.5s21.167 -21.333 40.5 -31s47.666 -20.167 84.999 -31.5
c66 -20.667 115.333 -46.334 148 -77.001s49 -75 49 -133c0 -51.333 -16 -94.5 -48 -129.5z" />
    <glyph glyph-name="percent" unicode="%" horiz-adv-x="844" 
d="M613 716l83 -53l-464 -699l-82 53zM294 663.5c26 -14.333 46.5 -34.833 61.5 -61.5s22.5 -57.334 22.5 -92.001s-7.5 -65.334 -22.5 -92.001s-35.5 -47.167 -61.5 -61.5s-55 -21.5 -87 -21.5s-60.833 7.16699 -86.5 21.5s-46 34.833 -61 61.5s-22.5 57.334 -22.5 92.001
s7.5 65.334 22.5 92.001s35.333 47.167 61 61.5s54.5 21.5 86.5 21.5s61 -7.16699 87 -21.5zM151.5 578.5c-11 -17.667 -16.5 -40.5 -16.5 -68.5c0 -27.333 5.5 -50 16.5 -68s29.5 -27 55.5 -27c48 0 72 31.667 72 95s-24 95 -72 95c-26 0 -44.5 -8.83301 -55.5 -26.5z
M724 313.5c26 -14.333 46.333 -34.833 61 -61.5s22 -57.334 22 -92.001s-7.33301 -65.334 -22 -92.001s-35 -47.167 -61 -61.5s-55 -21.5 -87 -21.5s-61 7.16699 -87 21.5s-46.5 34.833 -61.5 61.5s-22.5 57.334 -22.5 92.001s7.5 65.334 22.5 92.001s35.5 47.167 61.5 61.5
s55 21.5 87 21.5s61 -7.16699 87 -21.5zM581.5 228.5c-11 -17.667 -16.5 -40.5 -16.5 -68.5c0 -27.333 5.5 -50 16.5 -68s29.5 -27 55.5 -27c48 0 72 31.667 72 95s-24 95 -72 95c-26 0 -44.5 -8.83301 -55.5 -26.5z" />
    <glyph glyph-name="ampersand" unicode="&#x26;" horiz-adv-x="746" 
d="M413.5 686c30.333 -13.333 53.666 -31.8311 69.999 -55.498s24.5 -50.5 24.5 -80.5c0 -39.333 -11.833 -73.5 -35.5 -102.5s-57.167 -57.167 -100.5 -84.5l154 -145c22 48 39.667 100 53 156l111 -33c-24.667 -74.667 -55 -138.334 -91 -191.001l117 -106l-103 -59
l-87 84c-60 -56 -133.333 -84 -220 -84c-46.667 0 -87.834 7.83301 -123.501 23.5s-63.5 38 -83.5 67s-30 62.5 -30 100.5c0 40.667 11.333 76.167 34 106.5s57.334 60.5 104.001 90.5c-34.667 34 -59.5 63.333 -74.5 88s-22.5 52.667 -22.5 84
c0 29.333 7.5 56.166 22.5 80.499s37.333 43.833 67 58.5s65.834 22 108.501 22c40 0 75.167 -6.66699 105.5 -20zM254 599.002c-13.333 -13.333 -20.001 -31.335 -20.001 -54.002c0 -20 5.16699 -38.167 15.5 -54.5s27.5 -36.166 51.5 -59.499c28 18 49 35.833 63 53.5
s21 37.834 21 60.501s-6.83301 40.667 -20.5 54s-32.167 20 -55.5 20s-41.666 -6.66699 -54.999 -20zM221.499 248c-12.333 -19.333 -18.499 -41.334 -18.499 -66.001c0 -31.333 11.167 -56.166 33.5 -74.499s52.166 -27.5 89.499 -27.5c26 0 49.5 4.5 70.5 13.5
s41.5 22.167 61.5 39.5l-178 171c-26.667 -18 -46.167 -36.667 -58.5 -56z" />
    <glyph glyph-name="quotesingle" unicode="'" horiz-adv-x="230" 
d="M71 420l-18 271h123l-17 -271h-88z" />
    <glyph glyph-name="parenleft" unicode="(" horiz-adv-x="324" 
d="M300 797c-49.333 -70.667 -85.166 -139.166 -107.499 -205.499s-33.5 -146.833 -33.5 -241.5c0 -94 11.167 -174.333 33.5 -241s58.166 -135.334 107.499 -206.001l-82 -55c-43.333 60.667 -77.5 112.167 -102.5 154.5s-45.833 92.333 -62.5 150s-25 123.5 -25 197.5
s8.33301 139.833 25 197.5s37.5 107.667 62.5 150s59.167 93.833 102.5 154.5z" />
    <glyph glyph-name="parenright" unicode=")" horiz-adv-x="324" 
d="M208.5 698c25 -42.667 45.833 -92.667 62.5 -150s25 -123.333 25 -198s-8.33301 -140.667 -25 -198s-37.5 -107.333 -62.5 -150s-59.167 -94 -102.5 -154l-81 55c48.667 70.667 84.334 139.334 107.001 206.001s34 147 34 241s-11.333 174.167 -34 240.5
s-58.334 135.166 -107.001 206.499l81 55c43.333 -60 77.5 -111.333 102.5 -154z" />
    <glyph glyph-name="asterisk" unicode="*" horiz-adv-x="444" 
d="M431 547l-147 -28l103 -108l-93 -68l-72 130l-71 -130l-93 67l101 110l-146 27l35 106l134 -63l-18 151h116l-18 -151l133 64z" />
    <glyph glyph-name="plus" unicode="+" horiz-adv-x="516" 
d="M313 535v-153h149v-101h-149v-153h-110v153h-148v101h148v153h110z" />
    <glyph glyph-name="comma" unicode="," horiz-adv-x="240" 
d="M177.5 124c15.667 -15.333 23.5 -34.666 23.5 -57.999c0 -12.667 -2 -25.667 -6 -39s-10.667 -30.333 -20 -51l-65 -148h-78l41 172c-22.667 15.333 -34 37.666 -34 66.999c0 22.667 7.66699 41.667 23 57s34.333 23 57 23c23.333 0 42.833 -7.66699 58.5 -23z" />
    <glyph glyph-name="hyphen" unicode="-" horiz-adv-x="405" 
d="M52 262v102h302v-102h-302z" />
    <glyph glyph-name="period" unicode="." horiz-adv-x="240" 
d="M177 123.5c16 -15.667 24 -34.834 24 -57.501c0 -22 -8 -41 -24 -57s-35.333 -24 -58 -24c-22 0 -40.833 8 -56.5 24s-23.5 35 -23.5 57c0 22.667 7.66699 41.834 23 57.501s34.333 23.5 57 23.5s42 -7.83301 58 -23.5z" />
    <glyph glyph-name="slash" unicode="/" horiz-adv-x="520" 
d="M322 812l110 -25l-233 -895l-111 26z" />
    <glyph glyph-name="zero" unicode="0" horiz-adv-x="573" 
d="M465.5 595c41 -60 61.5 -146.333 61.5 -259c0 -113.333 -20.5 -200.166 -61.5 -260.499s-100.833 -90.5 -179.5 -90.5s-138.5 30.167 -179.5 90.5s-61.5 147.166 -61.5 260.499c0 112.667 20.5 199 61.5 259s100.833 90 179.5 90s138.5 -30 179.5 -90zM203 530.5
c-17.333 -38.333 -26 -103.167 -26 -194.5c0 -92 8.66699 -157.333 26 -196s45 -58 83 -58s65.667 19.167 83 57.5s26 103.833 26 196.5c0 92 -8.66699 157 -26 195s-45 57 -83 57s-65.667 -19.167 -83 -57.5z" />
    <glyph glyph-name="one" unicode="1" horiz-adv-x="450" 
d="M355 673v-673h-126v544l-150 -91l-56 86l219 134h113z" />
    <glyph glyph-name="two" unicode="2" horiz-adv-x="507" 
d="M350.5 660c33 -16.667 58.166 -39.335 75.499 -68.002s26 -60.667 26 -96c0 -38 -8.16699 -74.5 -24.5 -109.5s-43.5 -73.833 -81.5 -116.5s-93.667 -99 -167 -169h288l-14 -101h-419v94c85.333 86.667 146.5 150.834 183.5 192.501s63.333 77.334 79 107.001
s23.5 60.5 23.5 92.5c0 30.667 -8.83301 54.667 -26.5 72s-41.167 26 -70.5 26c-26 0 -48.833 -5.5 -68.5 -16.5s-40.167 -29.167 -61.5 -54.5l-78 62c56.667 73.333 129.334 110 218.001 110c45.333 0 84.5 -8.33301 117.5 -25z" />
    <glyph glyph-name="three" unicode="3" horiz-adv-x="510" 
d="M347.5 662c32.333 -15.333 56.665 -36.002 72.998 -62.002s24.5 -54.667 24.5 -86c0 -40.667 -11.667 -74.5 -35 -101.5s-55.333 -45.833 -96 -56.5c44.667 -4 81.334 -20 110.001 -48s43 -66.667 43 -116c0 -38.667 -9.83301 -73.667 -29.5 -105
s-47.834 -56.166 -84.501 -74.499s-80 -27.5 -130 -27.5c-92 0 -164.667 32.333 -218 97l71 68c22.667 -22.667 45 -39.167 67 -49.5s46.333 -15.5 73 -15.5c36 0 64.833 10.167 86.5 30.5s32.5 47.833 32.5 82.5c0 38.667 -10.167 66.334 -30.5 83.001s-50.5 25 -90.5 25
h-53l15 91h36c32.667 0 58.834 9 78.501 27s29.5 43 29.5 75c0 27.333 -9 48.833 -27 64.5s-42 23.5 -72 23.5c-26 0 -49.667 -4.83301 -71 -14.5s-42.666 -24.5 -63.999 -44.5l-65 71c60.667 57.333 131 86 211 86c44.667 0 83.167 -7.66699 115.5 -23z" />
    <glyph glyph-name="four" unicode="4" horiz-adv-x="550" 
d="M525 252v-98h-81v-154h-125v154h-286v88l196 444l109 -41l-172 -393h154l13 169h111v-169h81z" />
    <glyph glyph-name="five" unicode="5" horiz-adv-x="520" 
d="M439 578l-251.999 0.00195312v-167c33.333 16.667 67.333 25 102 25c37.333 0 70.666 -8.66699 99.999 -26s52.166 -42.333 68.499 -75s24.5 -71.334 24.5 -116.001c0 -46 -10.333 -86.667 -31 -122s-50 -62.833 -88 -82.5s-82 -29.5 -132 -29.5
c-44.667 0 -84.167 8.16699 -118.5 24.5s-65.5 39.833 -93.5 70.5l73 68c38.667 -42.667 84 -64 136 -64c38 0 67.833 11.667 89.5 35s32.5 56.666 32.5 99.999c0 83.333 -36 125 -108 125c-15.333 0 -29.666 -1.83301 -42.999 -5.5s-28 -9.5 -44 -17.5h-91v352h390z" />
    <glyph glyph-name="six" unicode="6" horiz-adv-x="550" 
d="M424.5 422.5c29 -17 51.835 -42.001 68.502 -75.001s25 -72.5 25 -118.5c0 -46.667 -9.66699 -88.5 -29 -125.5s-46.5 -66 -81.5 -87s-74.833 -31.5 -119.5 -31.5c-82.667 0 -143.834 29 -183.501 87s-59.5 137.667 -59.5 239c0 74.667 11.167 140.167 33.5 196.5
s54.333 100 96 131s90.5 46.5 146.5 46.5c55.333 0 104.333 -14.333 147 -43l-48 -79c-30.667 18 -63 27 -97 27c-42.667 0 -76.834 -19.167 -102.501 -57.5s-40.167 -91.166 -43.5 -158.499c40.667 49.333 91 74 151 74c35.333 0 67.5 -8.5 96.5 -25.5zM363.502 119.499
c17 26.333 25.5 62.166 25.5 107.499c0 46 -7.83301 78.833 -23.5 98.5s-38.5 29.5 -68.5 29.5c-22.667 0 -44.167 -6.16699 -64.5 -18.5s-38.5 -29.166 -54.5 -50.499c1.33301 -72.667 10.5 -125.167 27.5 -157.5s44.5 -48.5 82.5 -48.5c33.333 0 58.5 13.167 75.5 39.5z
" />
    <glyph glyph-name="seven" unicode="7" horiz-adv-x="457" 
d="M434 673v-90l-249 -596l-117 38l234 549h-284v99h416z" />
    <glyph glyph-name="eight" unicode="8" horiz-adv-x="567" 
d="M531 181c0 -36.667 -10.333 -69.833 -31 -99.5s-49.834 -53.167 -87.501 -70.5s-81.5 -26 -131.5 -26c-49.333 0 -92.333 8.5 -129 25.5s-65 40.167 -85 69.5s-30 62.333 -30 99c0 77.333 42.667 134 128 170c-67.333 36.667 -101 89.667 -101 159
c0 35.333 9.83301 66.5 29.5 93.5s46.334 47.667 80.001 62s70.5 21.5 110.5 21.5c40.667 0 77.667 -6.66699 111 -20s59.833 -33 79.5 -59s29.5 -57 29.5 -93c0 -63.333 -37 -114 -111 -152c92 -41.333 138 -101.333 138 -180zM213.5 572.001
c-17 -15.333 -25.499 -37.332 -25.499 -65.999c0 -26.667 8 -47.834 24 -63.501s41.667 -29.834 77 -42.501l19 -7c26 16 44.5 32.833 55.5 50.5s16.5 38.834 16.5 63.501c0 27.333 -8.33301 48.833 -25 64.5s-40.334 23.5 -71.001 23.5c-30 0 -53.5 -7.66699 -70.5 -23z
M370.001 108.002c20.667 18.667 30.999 42.998 30.999 72.998c0 30.667 -9 54.834 -27 72.501s-50 34.834 -96 51.501l-31 11c-54 -28.667 -81 -73 -81 -133c0 -32 10.667 -57.167 32 -75.5s50 -27.5 86 -27.5c36.667 0 65.334 9.33301 86.001 28z" />
    <glyph glyph-name="nine" unicode="9" horiz-adv-x="544" 
d="M444 614.5c40.667 -47 60.998 -110.501 60.998 -190.501c0 -91.333 -13.667 -166.166 -41 -224.499s-69.333 -104.833 -126 -139.5s-131.667 -63 -225 -85l-27 91c88 23.333 154.833 53.5 200.5 90.5s72.834 87.5 81.501 151.5c-36.667 -46.667 -84.667 -70 -144 -70
c-34.667 0 -66.5 8.83301 -95.5 26.5s-51.833 43.167 -68.5 76.5s-25 72 -25 116c0 46 10.333 86.167 31 120.5s48.834 60.833 84.501 79.5s75.167 28 118.5 28c76 0 134.333 -23.5 175 -70.5zM373.998 399.999c0.666992 68.667 -7.16699 117.5 -23.5 146.5
s-43.5 43.5 -81.5 43.5c-33.333 0 -59.333 -11.333 -78 -34s-28 -55 -28 -97c0 -44 8.83301 -76.333 26.5 -97s40.834 -31 69.501 -31c45.333 0 83.666 23 114.999 69z" />
    <glyph glyph-name="colon" unicode=":" horiz-adv-x="240" 
d="M177 123.5c16 -15.667 24 -34.834 24 -57.501c0 -22 -8 -41 -24 -57s-35.333 -24 -58 -24c-22 0 -40.833 8 -56.5 24s-23.5 35 -23.5 57c0 22.667 7.66699 41.834 23 57.501s34.333 23.5 57 23.5s42 -7.83301 58 -23.5zM177 479.5c16 -15.667 24 -34.834 24 -57.501
c0 -22 -8 -41 -24 -57s-35.333 -24 -58 -24c-22 0 -40.833 8 -56.5 24s-23.5 35 -23.5 57c0 22.667 7.66699 41.834 23 57.501s34.333 23.5 57 23.5s42 -7.83301 58 -23.5z" />
    <glyph glyph-name="semicolon" unicode=";" horiz-adv-x="240" 
d="M177.5 124c15.667 -15.333 23.5 -34.666 23.5 -57.999c0 -12.667 -2 -25.667 -6 -39s-10.667 -30.333 -20 -51l-65 -148h-78l41 172c-22.667 15.333 -34 37.666 -34 66.999c0 22.667 7.66699 41.667 23 57s34.333 23 57 23c23.333 0 42.833 -7.66699 58.5 -23zM177 479.5
c16 -15.667 24 -34.834 24 -57.501c0 -22 -8 -41 -24 -57s-35.333 -24 -58 -24c-22 0 -40.833 8 -56.5 24s-23.5 35 -23.5 57c0 22.667 7.66699 41.834 23 57.501s34.333 23.5 57 23.5s42 -7.83301 58 -23.5z" />
    <glyph glyph-name="less" unicode="&#x3c;" horiz-adv-x="510" 
d="M427 565l42 -95l-321 -137l321 -135l-42 -97l-385 172v119z" />
    <glyph glyph-name="equal" unicode="=" horiz-adv-x="510" 
d="M55 381v102h401v-102h-401zM55 179v102h401v-102h-401z" />
    <glyph glyph-name="greater" unicode="&#x3e;" horiz-adv-x="510" 
d="M84 565l385 -173v-119l-385 -172l-42 97l320 135l-320 137z" />
    <glyph glyph-name="question" unicode="?" horiz-adv-x="471" 
d="M355.5 684c31 -14.667 54.4971 -34.333 70.4971 -59s24 -51.667 24 -81c0 -26.667 -4.66699 -49.5 -14 -68.5s-20.666 -34.5 -33.999 -46.5s-30.666 -25.333 -51.999 -40c-27.333 -18 -47.666 -34.667 -60.999 -50s-20 -35.666 -20 -60.999v-34h-119v39
c0 30 4.83301 55.5 14.5 76.5s21.167 37.667 34.5 50s30.666 25.833 51.999 40.5c22.667 15.333 39.167 28.666 49.5 39.999s15.5 26 15.5 44c0 22 -7.5 39.167 -22.5 51.5s-35.5 18.5 -61.5 18.5c-47.333 0 -89.666 -22 -126.999 -66l-83 65c58 68.667 131.667 103 221 103
c44 0 81.5 -7.33301 112.5 -22zM268.997 123.501c16 -15.667 24 -34.834 24 -57.501c0 -22 -8 -41 -24 -57s-35.333 -24 -58 -24c-22 0 -40.833 8 -56.5 24s-23.5 35 -23.5 57c0 22.667 7.66699 41.834 23 57.501s34.333 23.5 57 23.5s42 -7.83301 58 -23.5z" />
    <glyph glyph-name="at" unicode="@" horiz-adv-x="1020" 
d="M760.5 652c65.667 -36 115.67 -84.001 150.003 -144.001s51.5 -125.333 51.5 -196c0 -58 -8.16699 -110.167 -24.5 -156.5s-40.333 -82.833 -72 -109.5s-69.167 -40 -112.5 -40c-37.333 0 -66.833 10.167 -88.5 30.5s-35.834 44.5 -42.501 72.5
c-12.667 -29.333 -31 -53.333 -55 -72s-53.333 -28 -88 -28c-57.333 0 -101.333 20.333 -132 61s-46 94.667 -46 162c0 83.333 20.167 148.5 60.5 195.5s95.5 70.5 165.5 70.5c57.333 0 112.666 -14.333 165.999 -43v-252c0 -41.333 4.5 -70.166 13.5 -86.499
s23.167 -24.5 42.5 -24.5c30 0 53 17.167 69 51.5s24 89.833 24 166.5c0 94 -26.667 167.333 -80 220s-132 79 -236 79c-72 0 -134.167 -15.667 -186.5 -47s-92.333 -74.833 -120 -130.5s-41.5 -119.167 -41.5 -190.5c0 -72.667 13.5 -136.167 40.5 -190.5
s66.667 -96.333 119 -126s115.5 -44.5 189.5 -44.5c64 0 128.667 11.667 194 35l32 -92c-72.667 -27.333 -148.334 -41 -227.001 -41c-93.333 0 -175.333 18.833 -246 56.5s-125.334 91.167 -164.001 160.5s-58 150 -58 242c0 88 19.833 167.333 59.5 238
s95.167 126.167 166.5 166.5s152 60.5 242 60.5c90.667 0 168.834 -18 234.501 -54zM550.003 113.999c14 13.333 24.667 28.999 32 46.999v240c-18 8 -37 12 -57 12c-34.667 0 -61 -14.5 -79 -43.5s-27 -74.833 -27 -137.5c0 -47.333 6.16699 -82.166 18.5 -104.499
s31.5 -33.5 57.5 -33.5c22.667 0 41 6.66699 55 20z" />
    <glyph glyph-name="A" unicode="A" horiz-adv-x="583" 
d="M447 0l-43 160h-229l-43 -160h-137l215 691h163l214 -691h-140zM201 260h176l-88 330z" />
    <glyph glyph-name="B" unicode="B" horiz-adv-x="613" 
d="M534.5 315c29 -25.333 43.5 -63.999 43.5 -115.999c0 -72 -25.333 -123.167 -76 -153.5s-121.667 -45.5 -213 -45.5h-208v691h181c190.667 0 286 -58.667 286 -176c0 -40.667 -12.333 -73.834 -37 -99.501s-55 -42.167 -91 -49.5c47.333 -8.66699 85.5 -25.667 114.5 -51
zM213 594.001l-0.000976562 -186.999h81c36.667 0 65.667 8.16699 87 24.5s32 40.5 32 72.5c0 33.333 -11.167 56.666 -33.5 69.999s-57.166 20 -104.499 20h-62zM401.499 121.002c25.667 14.667 38.499 42.334 38.499 83.001c0 39.333 -12.167 67.666 -36.5 84.999
s-57.5 26 -99.5 26h-91v-216h77c48.667 0 85.834 7.33301 111.501 22z" />
    <glyph glyph-name="C" unicode="C" horiz-adv-x="568" 
d="M455 688c31.333 -12 62.002 -30.333 92.002 -55l-67 -78c-40.667 32.667 -83.334 49 -128.001 49c-51.333 0 -92.5 -20.667 -123.5 -62s-46.5 -106.333 -46.5 -195c0 -86.667 15.333 -151 46 -193s72 -63 124 -63c27.333 0 51.666 4.83301 72.999 14.5s44 23.5 68 41.5
l62 -78c-23.333 -24 -52.833 -44 -88.5 -60s-75.5 -24 -119.5 -24c-60 0 -113 14 -159 42s-81.667 69.167 -107 123.5s-38 119.833 -38 196.5c0 75.333 13.167 140 39.5 194s62.333 95 108 123s97.167 42 154.5 42c42 0 78.667 -6 110 -18z" />
    <glyph glyph-name="D" unicode="D" horiz-adv-x="648" 
d="M508.5 618c64.333 -48.667 96.5 -138.333 96.5 -269c0 -128 -31.667 -218.167 -95 -270.5s-143.666 -78.5 -240.999 -78.5h-188v691h170c107.333 0 193.166 -24.333 257.499 -73zM213 592.001l0.000976562 -493.001h65c58.667 0 104.667 18.167 138 54.5
s50 101.5 50 195.5c0 65.333 -8.5 115.833 -25.5 151.5s-39.333 59.834 -67 72.501s-60.834 19 -99.501 19h-61z" />
    <glyph glyph-name="E" unicode="E" horiz-adv-x="530" 
d="M482 691l-14 -98h-255v-193h222v-98h-222v-203h273v-99h-405v691h401z" />
    <glyph glyph-name="F" unicode="F" horiz-adv-x="489" 
d="M81 0v691h391l-14 -98h-245v-207h213v-98h-213v-288h-132z" />
    <glyph glyph-name="G" unicode="G" horiz-adv-x="638" 
d="M480.5 685.5c35 -13.667 68.1689 -33.832 99.502 -60.499l-71 -74c-24.667 19.333 -47.834 33.333 -69.501 42s-46.834 13 -75.501 13c-53.333 0 -97 -21.333 -131 -64s-51 -108 -51 -196c0 -92 13.5 -158.333 40.5 -199s68.167 -61 123.5 -61c42 0 78.667 9 110 27v180
h-104l-14 98h248v-338c-74.667 -45.333 -154 -68 -238 -68c-98.667 0 -174.167 30.667 -226.5 92s-78.5 151 -78.5 269c0 75.333 14.167 140.166 42.5 194.499s66.5 95.5 114.5 123.5s101.333 42 160 42c45.333 0 85.5 -6.83301 120.5 -20.5z" />
    <glyph glyph-name="H" unicode="H" horiz-adv-x="672" 
d="M459 0v309h-246v-309h-132v691h132v-277h246v277h133v-691h-133z" />
    <glyph glyph-name="I" unicode="I" horiz-adv-x="294" 
d="M213 691v-691h-132v691h132z" />
    <glyph glyph-name="J" unicode="J" horiz-adv-x="312" 
d="M235 101c0 -74 -17.5 -129.832 -52.5 -167.499s-85.167 -67.167 -150.5 -88.5l-35 95c29.333 11.333 51.5 24.166 66.5 38.499s25.167 31.333 30.5 51s8 45.167 8 76.5v585h133v-590z" />
    <glyph glyph-name="K" unicode="K" horiz-adv-x="613" 
d="M213 691v-691h-132v691h132zM601 691l-239 -313l258 -378h-157l-244 369l239 322h143z" />
    <glyph glyph-name="L" unicode="L" horiz-adv-x="506" 
d="M213 691v-583h277l-15 -108h-394v691h132z" />
    <glyph glyph-name="M" unicode="M" horiz-adv-x="782" 
d="M736 0h-129l-18 289c-6 103.333 -9 185.333 -9 246v36l-126 -496h-125l-134 497c1.33301 -44 2 -77.333 2 -100c0 -60.667 -2 -123 -6 -187l-17 -285h-128l55 691h170l123 -484l116 484h172z" />
    <glyph glyph-name="N" unicode="N" horiz-adv-x="672" 
d="M591 0l-171 -0.000976562l-237 559c6 -49.333 10.5 -94 13.5 -134s4.5 -87.667 4.5 -143v-282h-120v691h167l241 -560c-4 26.667 -8 61.834 -12 105.501s-6 87.167 -6 130.5v324h120v-691z" />
    <glyph glyph-name="O" unicode="O" horiz-adv-x="691" 
d="M507 664c45.333 -28 80.165 -69 104.498 -123s36.5 -119 36.5 -195c0 -75.333 -12.333 -140 -37 -194s-59.667 -95.333 -105 -124s-98.666 -43 -159.999 -43c-62 0 -115.667 14 -161 42s-80.333 69 -105 123s-37 119 -37 195c0 74.667 12.333 139.167 37 193.5
s59.834 95.833 105.501 124.5s99.167 43 160.5 43c62 0 115.667 -14 161 -42zM223.999 542.5c-28 -41.667 -42 -107.5 -42 -197.5c0 -172.667 54.667 -259 164 -259c53.333 0 93.833 20.667 121.5 62s41.5 107.333 41.5 198c0 90 -13.833 155.667 -41.5 197
s-68.167 62 -121.5 62s-94 -20.833 -122 -62.5z" />
    <glyph glyph-name="P" unicode="P" horiz-adv-x="591" 
d="M491.5 636c49 -36.667 73.5 -91.667 73.5 -165c0 -76.667 -24.667 -134.167 -74 -172.5s-115 -57.5 -197 -57.5h-81v-241h-132v691h204c88.667 0 157.5 -18.333 206.5 -55zM391 369.5c24 19.667 36 53.5 36 101.5c0 82 -47.667 123 -143 123h-71v-254h71
c47.333 0 83 9.83301 107 29.5z" />
    <glyph glyph-name="Q" unicode="Q" horiz-adv-x="691" 
d="M595 26c31.333 -10.667 61 -26.001 89 -46.001l-82 -107c-38.667 39.333 -77.167 68.333 -115.5 87s-87.5 28 -147.5 28c-59.333 0 -111.333 13.833 -156 41.5s-79.167 68.167 -103.5 121.5s-36.5 118 -36.5 194c0 74.667 12.333 139.167 37 193.5
s59.834 95.833 105.501 124.5s99.167 43 160.5 43c62 0 115.667 -14 161 -42s80.166 -69 104.499 -123s36.5 -119 36.5 -195c0 -79.333 -14.167 -143.166 -42.5 -191.499s-67.833 -85.833 -118.5 -112.5c40.667 0 76.667 -5.33301 108 -16zM346 85.999
c53.333 0 93.833 20.667 121.5 62s41.5 107.333 41.5 198c0 90 -13.833 155.667 -41.5 197s-68.167 62 -121.5 62s-94 -20.833 -122 -62.5s-42 -107.5 -42 -197.5c0 -172.667 54.667 -259 164 -259z" />
    <glyph glyph-name="R" unicode="R" horiz-adv-x="611" 
d="M297 277h-84v-277h-132v691h206c182.667 0 274 -67.667 274 -203c0 -46 -11.333 -84 -34 -114s-58 -54.333 -106 -73l181 -301h-152zM213 372h82c42 0 73.833 9.16699 95.5 27.5s32.5 47.833 32.5 88.5c0 37.333 -11.167 64.5 -33.5 81.5s-57.5 25.5 -105.5 25.5h-71
v-223z" />
    <glyph glyph-name="S" unicode="S" 
d="M407 685c36 -14 69.666 -35.3311 100.999 -63.998l-65 -75c-24.667 20.667 -49.5 35.667 -74.5 45s-51.833 14 -80.5 14c-32 0 -57.833 -7.16699 -77.5 -21.5s-29.5 -34.5 -29.5 -60.5c0 -17.333 3.83301 -31.666 11.5 -42.999s21.5 -22 41.5 -32s49.667 -21 89 -33
c68 -21.333 119.167 -47.833 153.5 -79.5s51.5 -77.834 51.5 -138.501c0 -41.333 -10.5 -78 -31.5 -110s-51.167 -57 -90.5 -75s-86 -27 -140 -27c-52.667 0 -99.834 8.5 -141.501 25.5s-77.5 40.167 -107.5 69.5l68 76c26.667 -22.667 54.334 -39.834 83.001 -51.501
s60.334 -17.5 95.001 -17.5c38 0 68.667 9 92 27s35 43.333 35 76c0 20 -4 36.5 -12 49.5s-21.667 24.667 -41 35s-47.333 21.166 -84 32.499c-73.333 22.667 -126.333 50 -159 82s-49 74 -49 126c0 38 10 71.333 30 100s47.833 51 83.5 67s76.167 24 121.5 24
c48.667 0 91 -7 127 -21z" />
    <glyph glyph-name="T" unicode="T" horiz-adv-x="530" 
d="M525 691l-14 -105h-180v-586h-133v586h-186v105h513z" />
    <glyph glyph-name="U" unicode="U" horiz-adv-x="656" 
d="M585 226c0 -46.667 -9.83301 -88.167 -29.5 -124.5s-49 -64.833 -88 -85.5s-85.833 -31 -140.5 -31c-82.667 0 -146 21.833 -190 65.5s-66 102.167 -66 175.5v465h132v-458c0 -48.667 10.167 -85 30.5 -109s51.5 -36 93.5 -36c42.667 0 74.167 12 94.5 36
s30.5 60.333 30.5 109v458h133v-465z" />
    <glyph glyph-name="V" unicode="V" horiz-adv-x="564" 
d="M568 691l-205 -691h-157l-211 691h142l150 -574l146 574h135z" />
    <glyph glyph-name="W" unicode="W" horiz-adv-x="837" 
d="M821 691l-127 -691h-172l-105 551l-108 -551h-167l-125 691h131l88 -586l113 586h140l111 -586l96 586h125z" />
    <glyph glyph-name="X" unicode="X" horiz-adv-x="562" 
d="M358 373l205 -373h-147l-138 283l-137 -283h-141l200 368l-184 323h147l117 -239l122 239h141z" />
    <glyph glyph-name="Y" unicode="Y" horiz-adv-x="574" 
d="M576 691l-222 -429v-262h-134v261l-222 430h146l146 -321l146 321h140z" />
    <glyph glyph-name="Z" unicode="Z" horiz-adv-x="534" 
d="M496 691v-102l-319 -481h322l-14 -108h-462v101l325 485h-292v105h440z" />
    <glyph glyph-name="bracketleft" unicode="[" horiz-adv-x="323" 
d="M287 820v-100h-118v-741h118v-99h-239v940h239z" />
    <glyph glyph-name="backslash" unicode="\" horiz-adv-x="520" 
d="M198 812l234 -894l-111 -26l-233 895z" />
    <glyph glyph-name="bracketright" unicode="]" horiz-adv-x="323" 
d="M275 820v-940h-239v99h118v742h-118v99h239z" />
    <glyph glyph-name="asciicircum" unicode="^" horiz-adv-x="550" 
d="M333 842l189 -315h-129l-119 214l-116 -214h-130l189 315h116z" />
    <glyph glyph-name="underscore" unicode="_" horiz-adv-x="520" 
d="M13 -158v103h494v-103h-494z" />
    <glyph glyph-name="grave" unicode="`" horiz-adv-x="322" 
d="M82 820l210 -125l-37 -65l-225 90z" />
    <glyph glyph-name="a" unicode="a" horiz-adv-x="546" 
d="M477.5 94.5c6.33301 -9.66699 16.5029 -17.165 30.5029 -22.498l-27 -85c-30 2.66699 -54.5 10 -73.5 22s-33.5 30.333 -43.5 55c-18 -26.667 -40.5 -46.5 -67.5 -59.5s-57.167 -19.5 -90.5 -19.5c-52.667 0 -94.334 15 -125.001 45s-46 69.333 -46 118
c0 57.333 20.833 101.166 62.5 131.499s101.167 45.5 178.5 45.5h66v30c0 34 -7.83301 57.833 -23.5 71.5s-40.834 20.5 -75.501 20.5c-38.667 0 -85.334 -9.33301 -140.001 -28l-30 87c66 25.333 130 38 192 38c135.333 0 203 -60.667 203 -182v-222
c0 -20.667 3.16699 -35.834 9.5 -45.501zM342.003 143.002l-0.000976562 107h-53c-82.667 0 -124 -30.667 -124 -92c0 -25.333 6.33301 -45 19 -59s31.334 -21 56.001 -21c43.333 0 77.333 21.667 102 65z" />
    <glyph glyph-name="b" unicode="b" horiz-adv-x="596" 
d="M495 470.5c34.667 -49 52.001 -117.5 52.001 -205.5c0 -54.667 -8.5 -103.167 -25.5 -145.5s-41.167 -75.333 -72.5 -99s-68.333 -35.5 -111 -35.5c-28.667 0 -54.834 6 -78.501 18s-44.167 29 -61.5 51l-8 -54h-113v741l128 14v-286c17.333 24 38.5 42.5 63.5 55.5
s52.5 19.5 82.5 19.5c61.333 0 109.333 -24.5 144 -73.5zM384.001 125.5c19.333 29.667 29 76.166 29 139.499c0 66.667 -9 113.834 -27 141.501s-43.333 41.5 -76 41.5c-40.667 0 -75.667 -24 -105 -72v-234c11.333 -19.333 25.5 -34.333 42.5 -45s35.5 -16 55.5 -16
c34.667 0 61.667 14.833 81 44.5z" />
    <glyph glyph-name="c" unicode="c" horiz-adv-x="478" 
d="M383.5 529c27.667 -10 53.8311 -25.666 78.498 -46.999l-57 -77c-18 13.333 -35.333 23 -52 29s-35 9 -55 9c-79.333 0 -119 -60.333 -119 -181c0 -61.333 10.333 -105.5 31 -132.5s50 -40.5 88 -40.5c18.667 0 35.834 3 51.501 9s34.167 15.667 55.5 29l57 -81
c-50 -40.667 -107 -61 -171 -61c-50.667 0 -94.667 11.167 -132 33.5s-66 54.166 -86 95.499s-30 90 -30 146s10 105.5 30 148.5s48.667 76.333 86 100s81 35.5 131 35.5c34.667 0 65.834 -5 93.501 -15z" />
    <glyph glyph-name="d" unicode="d" horiz-adv-x="599" 
d="M522 741l0.00390625 -741h-113l-9 67c-16.667 -25.333 -37.834 -45.333 -63.501 -60s-54.834 -22 -87.501 -22c-64.667 0 -114.334 25 -149.001 75s-52 118 -52 204c0 54 8.66699 102.167 26 144.5s42.166 75.5 74.499 99.5s69.833 36 112.5 36c50.667 0 95 -19 133 -57
v268zM345.004 98.5c17.333 11 33.6689 28.165 49.002 51.498v242c-15.333 18.667 -30.833 32.667 -46.5 42s-33.834 14 -54.501 14c-34 0 -60.833 -15.167 -80.5 -45.5s-29.5 -76.166 -29.5 -137.499c0 -65.333 8.66699 -112.166 26 -140.499s42.666 -42.5 75.999 -42.5
c22.667 0 42.667 5.5 60 16.5z" />
    <glyph glyph-name="e" unicode="e" horiz-adv-x="549" 
d="M508 225l-331.999 0.000976562c4 -51.333 17.333 -88 40 -110s52.667 -33 90 -33c23.333 0 45.333 3.83301 66 11.5s42.667 19.5 66 35.5l53 -73c-58.667 -47.333 -124 -71 -196 -71c-80.667 0 -142.834 24.667 -186.501 74s-65.5 116.666 -65.5 201.999
c0 54 9.33301 102.5 28 145.5s45.667 76.667 81 101s77.333 36.5 126 36.5c74 0 131.333 -23.5 172 -70.5s61 -112.5 61 -196.5c0 -6.66699 -1 -24 -3 -52zM384.001 314.001c0 92.667 -34.333 139 -103 139c-31.333 0 -55.833 -11.5 -73.5 -34.5
s-28.167 -59.833 -31.5 -110.5h208v6z" />
    <glyph glyph-name="f" unicode="f" horiz-adv-x="347" 
d="M236.5 640.5c-11 -11.667 -16.5 -30.167 -16.5 -55.5v-56h127l-14 -92h-113v-437h-128v437h-86v92h86v58c0 50 16.167 90.5 48.5 121.5s78.166 46.5 137.499 46.5c46.667 0 92.334 -10.333 137.001 -31l-37 -86c-28.667 13.333 -57.667 20 -87 20
c-25.333 0 -43.5 -5.83301 -54.5 -17.5z" />
    <glyph glyph-name="g" unicode="g" horiz-adv-x="537" 
d="M537 501c-34 -12 -85.0039 -17.9971 -153.004 -17.9971c32.667 -14.667 56.834 -32.834 72.501 -54.501s23.5 -48.834 23.5 -81.501c0 -34.667 -8.5 -65.334 -25.5 -92.001s-41.667 -47.667 -74 -63s-70.166 -23 -113.499 -23c-24 0 -45 2.66699 -63 8
c-14.667 -10 -22 -23 -22 -39c0 -24.667 21.333 -37 64 -37h81c38.667 0 72.5 -6.33301 101.5 -19s51.5 -30.5 67.5 -53.5s24 -48.833 24 -77.5c0 -53.333 -22.667 -94.833 -68 -124.5s-110.666 -44.5 -195.999 -44.5c-61.333 0 -109.5 6.33301 -144.5 19
s-59.833 31 -74.5 55s-22 54.667 -22 92h115c0 -18.667 3.5 -33.334 10.5 -44.001s19.667 -18.667 38 -24s44.833 -8 79.5 -8c48.667 0 83 6 103 18s30 29.333 30 52c0 20 -7.66699 35.5 -23 46.5s-37.666 16.5 -66.999 16.5h-80c-50 0 -87.667 9.66699 -113 29
s-38 43.666 -38 72.999c0 18.667 5.5 36.667 16.5 54s26.167 32 45.5 44c-32 16.667 -55.5 37.167 -70.5 61.5s-22.5 53.5 -22.5 87.5c0 38 9.33301 71.333 28 100s44.5 50.834 77.5 66.501s70.833 23.5 113.5 23.5c56 -1.33301 101.167 2.83398 135.5 12.501
s71.5 25.167 111.5 46.5zM192.496 429.503c-16.333 -18.333 -24.5 -42.832 -24.5 -73.499c0 -32 8.33301 -57.333 25 -76s39.667 -28 69 -28c30.667 0 54 9.16699 70 27.5s24 44.166 24 77.499c0 66.667 -32 100 -96 100c-28.667 0 -51.167 -9.16699 -67.5 -27.5z" />
    <glyph glyph-name="h" unicode="h" horiz-adv-x="581" 
d="M469 501c26.667 -28.667 39.999 -68 39.999 -118v-383h-128v363c0 31.333 -5.5 53.333 -16.5 66s-27.167 19 -48.5 19s-41 -6.83301 -59 -20.5s-35.333 -33.167 -52 -58.5v-369h-128v740l128 13v-287c42.667 52 94 78 154 78c46.667 0 83.334 -14.333 110.001 -43z" />
    <glyph glyph-name="i" unicode="i" horiz-adv-x="282" 
d="M205 529v-529h-128v529h128zM198.5 774.5c15 -15 22.5 -33.5 22.5 -55.5s-7.5 -40.333 -22.5 -55s-34.5 -22 -58.5 -22c-23.333 0 -42.5 7.33301 -57.5 22s-22.5 33 -22.5 55s7.5 40.5 22.5 55.5s34.167 22.5 57.5 22.5c24 0 43.5 -7.5 58.5 -22.5z" />
    <glyph glyph-name="j" unicode="j" horiz-adv-x="281" 
d="M204 47c0 -52 -7.50098 -94.5 -22.501 -127.5s-36.167 -59.5 -63.5 -79.5s-63 -39 -107 -57l-41 93c26 12 46.333 23.833 61 35.5s25.834 27.5 33.501 47.5s11.5 46.667 11.5 80v490h128v-482zM197.499 774.5c15 -15 22.5 -33.5 22.5 -55.5s-7.5 -40.333 -22.5 -55
s-34.5 -22 -58.5 -22c-23.333 0 -42.5 7.33301 -57.5 22s-22.5 33 -22.5 55s7.5 40.5 22.5 55.5s34.167 22.5 57.5 22.5c24 0 43.5 -7.5 58.5 -22.5z" />
    <glyph glyph-name="k" unicode="k" horiz-adv-x="534" 
d="M205 755v-755h-128v741zM522 529l-176 -233l193 -296h-147l-182 289l177 240h135z" />
    <glyph glyph-name="l" unicode="l" horiz-adv-x="295" 
d="M106.5 20.5c-23 23.667 -34.5 57.167 -34.5 100.5v620l128 14v-630c0 -24.667 10 -37 30 -37c10 0 20 1.66699 30 5l27 -90c-26.667 -12 -55 -18 -85 -18c-40.667 0 -72.5 11.833 -95.5 35.5z" />
    <glyph glyph-name="m" unicode="m" horiz-adv-x="850" 
d="M740 500.5c25.333 -29 38 -68.167 38 -117.5v-383h-128v363c0 56.667 -19.333 85 -58 85c-20.667 0 -38.5 -6.5 -53.5 -19.5s-30.5 -33.167 -46.5 -60.5v-368h-128v363c0 56.667 -19.333 85 -58 85c-21.333 0 -39.5 -6.5 -54.5 -19.5s-30.5 -33.167 -46.5 -60.5v-368
h-128v529h111l10 -69c40 56 91 84 153 84c30.667 0 57.167 -7.83301 79.5 -23.5s38.5 -37.5 48.5 -65.5c21.333 28.667 44.833 50.667 70.5 66s55.167 23 88.5 23c42.667 0 76.667 -14.5 102 -43.5z" />
    <glyph glyph-name="n" unicode="n" horiz-adv-x="581" 
d="M469.5 501.5c26.333 -28.333 39.502 -67.833 39.502 -118.5v-383h-128v363c0 31.333 -5.5 53.333 -16.5 66s-27.167 19 -48.5 19c-22 0 -41.833 -6.83301 -59.5 -20.5s-34.834 -33.5 -51.501 -59.5v-368h-128v529h111l10 -69c43.333 56 97 84 161 84
c47.333 0 84.166 -14.167 110.499 -42.5z" />
    <glyph glyph-name="o" unicode="o" horiz-adv-x="584" 
d="M475.5 469.5c43.667 -49.667 65.499 -117.835 65.499 -204.502c0 -55.333 -10 -104.166 -30 -146.499s-48.667 -75.166 -86 -98.499s-81.666 -35 -132.999 -35c-78 0 -139 24.833 -183 74.5s-66 118.167 -66 205.5c0 55.333 10 104 30 146s48.833 74.667 86.5 98
s82.167 35 133.5 35c78 0 138.833 -24.833 182.5 -74.5zM177.999 264.999c0 -62.667 9.5 -108.833 28.5 -138.5s47.5 -44.5 85.5 -44.5s66.5 15 85.5 45s28.5 76 28.5 138s-9.5 107.833 -28.5 137.5s-47.167 44.5 -84.5 44.5c-76.667 0 -115 -60.667 -115 -182z" />
    <glyph glyph-name="p" unicode="p" horiz-adv-x="596" 
d="M499 471c32 -48.667 47.999 -117 47.999 -205c0 -54.667 -8.16699 -103.167 -24.5 -145.5s-40.333 -75.5 -72 -99.5s-69.167 -36 -112.5 -36c-56 0 -100.333 19.333 -133 58v-247l-128 -14v747h112l7 -65c20.667 26.667 44.334 46.667 71.001 60s54.667 20 84 20
c66.667 0 116 -24.333 148 -73zM412.999 265c0 64.667 -8.33301 111.333 -25 140s-41.667 43 -75 43c-21.333 0 -41.333 -6.5 -60 -19.5s-34.667 -30.5 -48 -52.5v-238c24.667 -36.667 57 -55 97 -55c74 0 111 60.667 111 182z" />
    <glyph glyph-name="q" unicode="q" horiz-adv-x="599" 
d="M522 529l0.00195312 -747l-128 14v264c-36.667 -50 -85 -75 -145 -75c-64.667 0 -114.334 25 -149.001 75s-52 118 -52 204c0 54 8.66699 102.167 26 144.5s42.166 75.5 74.499 99.5s69.833 36 112.5 36c56 0 103.667 -22.333 143 -67l7 52h111zM345.002 98.5
c17.333 11 33.6689 28.165 49.002 51.498v242c-15.333 18.667 -30.833 32.667 -46.5 42s-33.5 14 -53.5 14c-34.667 0 -61.834 -15.167 -81.501 -45.5s-29.5 -76.166 -29.5 -137.499c0 -65.333 8.66699 -112.166 26 -140.499s42.666 -42.5 75.999 -42.5
c22.667 0 42.667 5.5 60 16.5z" />
    <glyph glyph-name="r" unicode="r" horiz-adv-x="394" 
d="M391 536l-22 -124c-16 4 -31.667 6 -47 6c-31.333 0 -56 -11.167 -74 -33.5s-32.333 -56.5 -43 -102.5v-282h-128v529h111l12 -104c12.667 38 31 67.167 55 87.5s51.667 30.5 83 30.5c19.333 0 37 -2.33301 53 -7z" />
    <glyph glyph-name="s" unicode="s" horiz-adv-x="476" 
d="M432 481l-50.0029 -74.9971c-45.333 28.667 -89.666 43 -132.999 43c-25.333 0 -45 -4.83301 -59 -14.5s-21 -22.5 -21 -38.5c0 -12 3 -22 9 -30s16.833 -15.5 32.5 -22.5s38.834 -14.833 69.501 -23.5c57.333 -15.333 99.833 -35.666 127.5 -60.999
s41.5 -60.666 41.5 -105.999c0 -52.667 -21.333 -93.834 -64 -123.501s-95.667 -44.5 -159 -44.5c-43.333 0 -82.833 6.66699 -118.5 20s-66.5 31.666 -92.5 54.999l64 72c46 -34.667 94 -52 144 -52c28.667 0 51.5 5.66699 68.5 17s25.5 27 25.5 47
c0 15.333 -3.16699 27.5 -9.5 36.5s-17.666 17 -33.999 24s-41.833 15.5 -76.5 25.5c-54 14.667 -93.667 35.167 -119 61.5s-38 59.166 -38 98.499c0 29.333 8.5 55.666 25.5 78.999s41 41.666 72 54.999s66.5 20 106.5 20c71.333 0 134 -21 188 -63z" />
    <glyph glyph-name="t" unicode="t" horiz-adv-x="375" 
d="M380 25c-18.667 -13.333 -39.5 -23.333 -62.5 -30s-46.5 -10 -70.5 -10c-52 0.666992 -91.5 15.5 -118.5 44.5s-40.5 71.833 -40.5 128.5v279h-83v92h83v117l128 15v-132h123l-13 -92h-110v-276c0 -26 4.5 -44.667 13.5 -56s23.167 -17 42.5 -17s40.333 6.33301 63 19z
" />
    <glyph glyph-name="u" unicode="u" horiz-adv-x="577" 
d="M500 0h-111.002l-7 74c-19.333 -30 -42.166 -52.333 -68.499 -67s-57.5 -22 -93.5 -22c-47.333 0 -83.833 14.5 -109.5 43.5s-38.5 69.167 -38.5 120.5v380h128v-364c0 -30 5.16699 -51.333 15.5 -64s26.833 -19 49.5 -19c40.667 0 76.334 25 107.001 75v372h128v-529z
" />
    <glyph glyph-name="v" unicode="v" horiz-adv-x="504" 
d="M502 529l-172 -529h-153l-175 529h139l113 -426l116 426h132z" />
    <glyph glyph-name="w" unicode="w" horiz-adv-x="734" 
d="M723 529l-115 -529h-160l-80 415l-82 -415h-157l-117 529h128l74 -435l92 435h131l84 -435l79 435h123z" />
    <glyph glyph-name="x" unicode="x" horiz-adv-x="500" 
d="M326 283l177 -283h-148l-109 210l-108 -210h-141l176 279l-158 250h146l90 -180l89 180h139z" />
    <glyph glyph-name="y" unicode="y" horiz-adv-x="506" 
d="M333 -2c-21.333 -65.333 -53.6689 -116.167 -97.002 -152.5s-102.666 -57.5 -177.999 -63.5l-13 93c34.667 5.33301 62.5 12.833 83.5 22.5s37.833 22.5 50.5 38.5s24.334 37.333 35.001 64h-44l-168 529h136l115 -444l120 444h132z" />
    <glyph glyph-name="z" unicode="z" horiz-adv-x="449" 
d="M421 529v-92l-256 -337h261l-13 -100h-395v92l257 337h-235v100h381z" />
    <glyph glyph-name="braceleft" unicode="{" horiz-adv-x="323" 
d="M288 746c-31.333 0 -53.167 -4.83398 -65.5 -14.501s-18.5 -26.167 -18.5 -49.5v-210c0 -38.667 -7.33301 -66.667 -22 -84s-37.667 -30.333 -69 -39c31.333 -8 54.333 -20.667 69 -38s22 -45 22 -83v-210c0 -23.333 6.33301 -39.833 19 -49.5s34.334 -14.5 65.001 -14.5
v-92c-52 0 -92.833 5.66699 -122.5 17s-50.667 28.333 -63 51s-18.5 52.334 -18.5 89.001v199c0 29.333 -4.83301 49.833 -14.5 61.5s-27.167 17.5 -52.5 17.5v105c25.333 0 42.833 6 52.5 18s14.5 32.667 14.5 62v199c0 37.333 6.16699 67.333 18.5 90
s33.166 39.5 62.499 50.5s70.333 16.5 123 16.5v-92z" />
    <glyph glyph-name="bar" unicode="|" horiz-adv-x="388" 
d="M253 809v-913h-118v913h118z" />
    <glyph glyph-name="braceright" unicode="}" horiz-adv-x="323" 
d="M158 821.5c29.333 -11 50.165 -27.832 62.498 -50.499s18.5 -52.667 18.5 -90v-199c0 -29.333 4.83301 -50 14.5 -62s27.5 -18 53.5 -18v-105c-26 0 -43.833 -5.83301 -53.5 -17.5s-14.5 -32.167 -14.5 -61.5v-199c0 -36.667 -6.16699 -66.334 -18.5 -89.001
s-33.333 -39.667 -63 -51s-70.5 -17 -122.5 -17v92c30.667 0 52.334 4.83301 65.001 14.5s19 26.167 19 49.5v210c0 38 7.33301 65.667 22 83s37.667 30 69 38c-31.333 8.66699 -54.333 21.667 -69 39s-22 45.333 -22 84v210c0 23.333 -6.16699 39.833 -18.5 49.5
s-34.166 14.5 -65.499 14.5v92c52.667 0 93.667 -5.5 123 -16.5z" />
    <glyph glyph-name="asciitilde" unicode="~" horiz-adv-x="502" 
d="M274.5 249.5c-15.667 6.33301 -32.8369 15.5 -51.5039 27.5c-12.667 8 -23.167 14 -31.5 18s-16.833 6 -25.5 6c-15.333 0 -28.166 -4.5 -38.499 -13.5s-20.833 -21.833 -31.5 -38.5l-71 36c38 75.333 88 113 150 113c20.667 0 38.667 -3.16699 54 -9.5
s32 -15.166 50 -26.499c12.667 -8 23.334 -14 32.001 -18s17.667 -6 27 -6c14.667 0 27.334 4.16699 38.001 12.5s21.334 20.166 32.001 35.499l69 -37c-36 -72.667 -85 -109 -147 -109c-21.333 0 -39.833 3.16699 -55.5 9.5z" />
    <glyph glyph-name="uni00A0" unicode="&#xa0;" horiz-adv-x="250" 
 />
    <glyph glyph-name="exclamdown" unicode="&#xa1;" horiz-adv-x="241" 
d="M177.5 479c15.667 -16 23.5 -35 23.5 -57c0 -22.667 -7.66699 -41.834 -23 -57.501s-34.333 -23.5 -57 -23.5s-42 7.83301 -58 23.5s-24 34.834 -24 57.501c0 22 8 41 24 57s35.333 24 58 24c22 0 40.833 -8 56.5 -24zM174 241l16 -447h-138l16 447h106z" />
    <glyph glyph-name="cent" unicode="&#xa2;" horiz-adv-x="478" 
d="M462 46c-36 -30 -77.333 -49 -124 -57v-147h-99v147c-61.333 11.333 -109.333 40.833 -144 88.5s-52 108.5 -52 182.5c0 75.333 17.5 138 52.5 188s83.167 80.667 144.5 92v148h98v-147c45.333 -8 86.666 -27.667 123.999 -59l-57 -77c-18 13.333 -35.333 23 -52 29
s-35 9 -55 9c-79.333 0 -119 -60.333 -119 -181c0 -61.333 10.333 -105.5 31 -132.5s50 -40.5 88 -40.5c18.667 0 35.834 3 51.501 9s34.167 15.667 55.5 29z" />
    <glyph glyph-name="sterling" unicode="&#xa3;" horiz-adv-x="531" 
d="M229 148c-8.66699 -18.667 -25.3311 -34.668 -49.998 -48.001h313l-15 -100h-444v95c24 8 41.833 17 53.5 27s19.5 22.333 23.5 37s6 35 6 61v96h-67v72h67v99c0 58.667 17.667 106.334 53 143.001s85 55 149 55c41.333 0 77.666 -7.5 108.999 -22.5
s59.333 -38.167 84 -69.5l-80 -60c-14.667 18.667 -30 32.167 -46 40.5s-34.667 12.5 -56 12.5c-28.667 0 -50.334 -8.5 -65.001 -25.5s-22 -41.5 -22 -73.5v-99h195v-72h-195v-92c0 -32 -4.33301 -57.333 -13 -76z" />
    <glyph glyph-name="currency" unicode="&#xa4;" 
d="M462 221l76 -74.999l-63 -63l-78 76c-34 -20.667 -73.333 -31 -118 -31c-42 0 -80.667 10.667 -116 32l-79 -77l-61 63l77 77c-22.667 34 -34 73.333 -34 118c0 43.333 11 82.666 33 117.999l-76 79l63 63l78 -79c34 21.333 72.333 32 115 32
c45.333 0 85 -10.333 119 -31l78 78l62 -63l-76 -77c23.333 -34.667 35 -74.667 35 -120s-11.667 -85.333 -35 -120zM362 251.001c18.667 21.333 28 51.668 28 91.001c0 38.667 -9.33301 68.667 -28 90s-45.667 32 -81 32s-62.166 -10.667 -80.499 -32
s-27.5 -51.333 -27.5 -90s9.16699 -68.834 27.5 -90.501s45.166 -32.5 80.499 -32.5s62.333 10.667 81 32z" />
    <glyph glyph-name="yen" unicode="&#xa5;" horiz-adv-x="554" 
d="M555 673l-183 -324h105v-73h-136v-80h136v-72h-136v-124h-128v124h-135v72h135v80h-135v73h104l-184 324h138l144 -288l142 288h133z" />
    <glyph glyph-name="brokenbar" unicode="&#xa6;" horiz-adv-x="388" 
d="M253 809v-366h-118v366h118zM253 262v-366h-118v366h118z" />
    <glyph glyph-name="section" unicode="&#xa7;" horiz-adv-x="542" 
d="M446 133c8.66699 -16 12.998 -35.333 12.998 -58c0 -46 -19.167 -83 -57.5 -111s-89.166 -42 -152.499 -42c-68 0 -128.333 17.667 -181 53l44 78c40.667 -25.333 85.334 -38 134.001 -38c27.333 0 49 4.66699 65 14s24 22.333 24 39c0 14 -3 25.167 -9 33.5
s-17.333 16.5 -34 24.5s-42.667 17.667 -78 29c-53.333 16.667 -92.333 35.834 -117 57.501s-37 52.167 -37 91.5c0 25.333 7.16699 48.5 21.5 69.5s33.5 38.5 57.5 52.5c-18.667 13.333 -32.334 28.333 -41.001 45s-13 36.667 -13 60c0 46 18.5 82.833 55.5 110.5
s85.833 41.5 146.5 41.5c70 0 131 -18.333 183 -55l-44 -75c-42.667 26 -87.334 39 -134.001 39c-27.333 0 -48.166 -4.83301 -62.499 -14.5s-21.5 -23.167 -21.5 -40.5c0 -13.333 3 -24.333 9 -33s17.333 -17.167 34 -25.5s42 -17.833 76 -28.5
c53.333 -17.333 92.5 -37.333 117.5 -60s37.5 -52.667 37.5 -90c0 -25.333 -7 -48.333 -21 -69s-32.667 -38.334 -56 -53.001c18.667 -14 32.334 -29 41.001 -45zM333.998 215c10.667 10.667 18.833 22.002 24.5 34.002s8.5 23.333 8.5 34
c0 13.333 -2.83301 24.666 -8.5 33.999s-15.834 17.833 -30.501 25.5s-36 16.5 -64 26.5c-18.667 6 -38 13 -58 21c-9.33301 -10.667 -16.666 -22.167 -21.999 -34.5s-8 -23.5 -8 -33.5c0 -20.667 6 -36.334 18 -47.001s34.667 -21.667 68 -33z" />
    <glyph glyph-name="dieresis" unicode="&#xa8;" horiz-adv-x="422" 
d="M149 765c13.333 -13.333 20 -29.666 20 -48.999s-6.66699 -35.666 -20 -48.999s-29.666 -20 -48.999 -20c-20 0 -36.833 6.66699 -50.5 20s-20.5 29.666 -20.5 48.999s6.83301 35.666 20.5 48.999s30.5 20 50.5 20c19.333 0 35.666 -6.66699 48.999 -20zM371 765
c13.333 -13.333 20 -29.666 20 -48.999s-6.66699 -35.666 -20 -48.999s-30 -20 -50 -20c-19.333 0 -35.833 6.66699 -49.5 20s-20.5 29.666 -20.5 48.999s6.83301 35.666 20.5 48.999s30.167 20 49.5 20c20 0 36.667 -6.66699 50 -20z" />
    <glyph glyph-name="copyright" unicode="&#xa9;" horiz-adv-x="810" 
d="M570.5 716.5c49.667 -27.667 89 -66.334 118 -116.001s43.5 -105.5 43.5 -167.5s-14.5 -117.667 -43.5 -167s-68.333 -87.833 -118 -115.5s-104.5 -41.5 -164.5 -41.5s-115 13.833 -165 41.5s-89.667 66.167 -119 115.5s-44 105 -44 167s14.667 117.833 44 167.5
s69 88.334 119 116.001s105 41.5 165 41.5s114.833 -13.833 164.5 -41.5zM278 658.5c-38 -21.667 -67.834 -52.167 -89.501 -91.5s-32.5 -84 -32.5 -134s10.833 -94.5 32.5 -133.5s51.5 -69.167 89.5 -90.5s80.667 -32 128 -32s89.833 10.667 127.5 32
s67.334 51.5 89.001 90.5s32.5 83.5 32.5 133.5s-10.833 94.667 -32.5 134s-51.5 69.833 -89.5 91.5s-80.333 32.5 -127 32.5c-47.333 0 -90 -10.833 -128 -32.5zM531.999 582l-41.999 -54.999c-12 9.33301 -23.833 16 -35.5 20s-24.5 6 -38.5 6
c-24.667 0 -44.5 -9.66699 -59.5 -29s-22.5 -49.333 -22.5 -90c0 -40 7.16699 -69.667 21.5 -89s34.166 -29 59.499 -29c16 0 30.333 2.5 43 7.5s25.667 12.833 39 23.5l39 -57c-36.667 -33.333 -79 -50 -127 -50c-52 0 -93.5 17 -124.5 51s-46.5 81.667 -46.5 143
c0 40 7.5 74.667 22.5 104s35.333 51.666 61 66.999s54.5 23 86.5 23c46.667 0 88 -15.333 124 -46z" />
    <glyph glyph-name="ordfeminine" unicode="&#xaa;" horiz-adv-x="500" 
d="M298 527l-0.000976562 17.002c0 23.333 -5.5 39.333 -16.5 48s-30.167 13 -57.5 13c-32 0 -69 -7 -111 -21l-28 78c54 19.333 106.667 29 158 29c59.333 0 102.833 -11.833 130.5 -35.5s41.5 -58.834 41.5 -105.501v-154c0 -15.333 2.33301 -26.5 7 -33.5
s12.334 -12.167 23.001 -15.5l-25 -78c-24.667 2 -45 7.33301 -61 16s-29 22 -39 40c-28 -38.667 -70.333 -58 -127 -58c-42 0 -75.5 11.667 -100.5 35s-37.5 53.333 -37.5 90c0 43.333 17 76.666 51 99.999s82.667 35 146 35h46zM297.999 389.002l0.000976562 70.999h-34
c-58.667 0 -88 -20 -88 -60c0 -15.333 4.5 -27.166 13.5 -35.499s21.833 -12.5 38.5 -12.5c29.333 0 52.666 12.333 69.999 37zM61 102.001h394v-102h-394v102z" />
    <glyph glyph-name="guillemotleft" unicode="&#xab;" horiz-adv-x="604" 
d="M228 547l78 -53l-132 -208l132 -209l-78 -52l-183 219v83zM481 547l78 -53l-132 -208l132 -209l-78 -52l-183 219v83z" />
    <glyph glyph-name="logicalnot" unicode="&#xac;" horiz-adv-x="517" 
d="M462 377v-251h-109v149h-298v102h407z" />
    <glyph glyph-name="uni00AD" unicode="&#xad;" horiz-adv-x="405" 
d="M52 262v102h302v-102h-302z" />
    <glyph glyph-name="registered" unicode="&#xae;" horiz-adv-x="639" 
d="M454.5 720c40.333 -23.333 72.1641 -55.333 95.4971 -96s35 -86 35 -136c0 -49.333 -11.5 -94.166 -34.5 -134.499s-54.833 -72 -95.5 -95s-86 -34.5 -136 -34.5c-49.333 0 -94.166 11.5 -134.499 34.5s-72.166 54.667 -95.499 95s-35 85.166 -35 134.499
s11.667 94.5 35 135.5s55.333 73.167 96 96.5s85.334 35 134.001 35c50 0 95.167 -11.667 135.5 -35zM421.998 309c30 17.333 53.333 41.5 70 72.5s25 66.5 25 106.5c0 40.667 -8.33301 76.667 -25 108s-40 55.833 -70 73.5s-64.333 26.5 -103 26.5
c-37.333 0 -71 -8.83301 -101 -26.5s-53.5 -42.167 -70.5 -73.5s-25.5 -67.333 -25.5 -108c0 -40 8.5 -75.5 25.5 -106.5s40.333 -55.167 70 -72.5s63.5 -26 101.5 -26c38.667 0 73 8.66699 103 26zM413.498 500.5c-11 -13 -25.833 -22.833 -44.5 -29.5l74 -116h-75l-59 104
h-23v-104h-65v279h81c85.333 0 128 -28.667 128 -86c0 -18.667 -5.5 -34.5 -16.5 -47.5zM285.998 511h29c32.667 0 49 12.667 49 38c0 24 -16.667 36 -50 36h-28v-74z" />
    <glyph glyph-name="macron" unicode="&#xaf;" horiz-adv-x="351" 
d="M321 661h-291v91h291v-91z" />
    <glyph glyph-name="degree" unicode="&#xb0;" horiz-adv-x="522" 
d="M135.5 395c-26.333 13.333 -47.6689 32.668 -64.002 58.001s-24.5 54.666 -24.5 87.999s8.16699 62.5 24.5 87.5s37.5 44.167 63.5 57.5s53.667 20 83 20c30 0 58.167 -6.66699 84.5 -20s47.5 -32.5 63.5 -57.5s24 -54.5 24 -88.5c0 -33.333 -8.16699 -62.5 -24.5 -87.5
s-37.666 -44.167 -63.999 -57.5s-54.166 -20 -83.499 -20c-28.667 0 -56.167 6.66699 -82.5 20zM273.997 476.002c14.667 15.333 22 36.666 22 63.999s-7.33301 48.833 -22 64.5s-33.334 23.5 -56.001 23.5s-41.167 -7.66699 -55.5 -23s-21.5 -36.666 -21.5 -63.999
s7.16699 -48.833 21.5 -64.5s32.833 -23.5 55.5 -23.5s41.334 7.66699 56.001 23z" />
    <glyph glyph-name="plusminus" unicode="&#xb1;" horiz-adv-x="517" 
d="M58 0v102h401v-102h-401zM314 585v-153h149v-101h-149v-153h-110v153h-148v101h148v153h110z" />
    <glyph glyph-name="uni00B2" unicode="&#xb2;" horiz-adv-x="400" 
d="M305 714c26.667 -23.333 39.9971 -52.668 39.9971 -88.001c0 -22 -5 -42.833 -15 -62.5s-27.167 -42.167 -51.5 -67.5s-59.833 -58 -106.5 -98h182l-10 -77h-284v71c53.333 50 92 87.5 116 112.5s41 45.833 51 62.5s15 33.334 15 50.001
c0 17.333 -5.16699 30.833 -15.5 40.5s-24.166 14.5 -41.499 14.5c-16 0 -30.167 -3.33301 -42.5 -10s-25.166 -17.667 -38.499 -33l-59 47c38.667 48.667 88.667 73 150 73c46.667 0 83.334 -11.667 110.001 -35z" />
    <glyph glyph-name="uni00B3" unicode="&#xb3;" horiz-adv-x="400" 
d="M305.5 718.5c25.667 -20.333 38.502 -46.165 38.502 -77.498c0 -24.667 -7.83301 -45.5 -23.5 -62.5s-37.834 -28.833 -66.501 -35.5c31.333 -2.66699 56.666 -12.5 75.999 -29.5s29 -41.167 29 -72.5c0 -37.333 -15 -68.5 -45 -93.5s-71 -37.5 -123 -37.5
c-62.667 0 -112.667 21.333 -150 64l56 53c13.333 -14 27 -24.167 41 -30.5s29.667 -9.5 47 -9.5c21.333 0 38.333 5.16699 51 15.5s19 25.166 19 44.499c0 20.667 -6.16699 35.667 -18.5 45s-30.5 14 -54.5 14h-36l12 68h24c20 0 35.667 4.66699 47 14s17 22.333 17 39
c0 15.333 -5.33301 27.166 -16 35.499s-25 12.5 -43 12.5c-29.333 0 -58 -12 -86 -36l-50 53c40.667 38 89.667 57 147 57c46 0 81.833 -10.167 107.5 -30.5z" />
    <glyph glyph-name="acute" unicode="&#xb4;" horiz-adv-x="322" 
d="M240 820l52 -100l-226 -90l-36 65z" />
    <glyph glyph-name="uni00B5" unicode="&#xb5;" horiz-adv-x="585" 
d="M408 -15c-6.66699 15.333 -11.667 29.333 -15 42s-6.33301 29 -9 49c-14.667 -25.333 -32.334 -46 -53.001 -62s-43.334 -24 -68.001 -24c-21.333 0 -39.166 3.5 -53.499 10.5s-27.166 18.833 -38.499 35.5c10 -22.667 17.333 -44 22 -64s7 -45.667 7 -77v-99l-123 -13
v746h128v-367c0 -49.333 21 -74 63 -74c42.667 0 77.667 26 105 78v363h128v-348c0 -66.667 8.33301 -127 25 -181z" />
    <glyph glyph-name="paragraph" unicode="&#xb6;" horiz-adv-x="763" 
d="M637 691v-894l-113 -16v817h-102v-801l-113 -16v491c-76.667 2.66699 -134.667 23 -174 61s-59 87.667 -59 149c0 66 22.667 117.333 68 154s108 55 188 55h305z" />
    <glyph glyph-name="periodcentered" unicode="&#xb7;" horiz-adv-x="240" 
d="M177 366.5c16 -15.667 24 -34.834 24 -57.501c0 -22 -8 -41 -24 -57s-35.333 -24 -58 -24c-22 0 -40.833 8 -56.5 24s-23.5 35 -23.5 57c0 22.667 7.66699 41.834 23 57.501s34.333 23.5 57 23.5s42 -7.83301 58 -23.5z" />
    <glyph glyph-name="cedilla" unicode="&#xb8;" horiz-adv-x="300" 
d="M171 -52c33.333 -3.33301 58.167 -13.168 74.5 -29.501s24.5 -37.166 24.5 -62.499c0 -33.333 -12.667 -59.833 -38 -79.5s-58.333 -29.5 -99 -29.5c-20.667 0 -40 2.5 -58 7.5s-33 11.833 -45 20.5l31 63c20 -10.667 41 -16 63 -16c32.667 0 49 11.333 49 34
c0 13.333 -7.16699 23 -21.5 29s-37.5 9 -69.5 9l15 122h74v-68z" />
    <glyph glyph-name="uni00B9" unicode="&#xb9;" horiz-adv-x="400" 
d="M288 740v-419h-98v323l-95 -57l-44 67l148 86h89z" />
    <glyph glyph-name="ordmasculine" unicode="&#xba;" horiz-adv-x="500" 
d="M401 635c36 -37.333 54 -89.334 54 -156.001c0 -64 -18.167 -115.333 -54.5 -154s-86.5 -58 -150.5 -58s-114.167 18.833 -150.5 56.5s-54.5 89.834 -54.5 156.501c0 64 18.5 115.167 55.5 153.5s87.167 57.5 150.5 57.5c64 0 114 -18.667 150 -56zM188.5 573.999
c-13.667 -20 -20.501 -51.334 -20.501 -94.001c0 -43.333 6.83301 -75.166 20.5 -95.499s34.167 -30.5 61.5 -30.5c28 0 48.667 10.167 62 30.5s20 51.833 20 94.5c0 43.333 -6.66699 75 -20 95s-33.666 30 -60.999 30c-28 0 -48.833 -10 -62.5 -30zM49.999 -0.00195312v102
h401v-102h-401z" />
    <glyph glyph-name="guillemotright" unicode="&#xbb;" horiz-adv-x="598" 
d="M123 547l183 -220v-83l-183 -219l-78 52l131 209l-131 208zM371 547l183 -220v-83l-183 -219l-78 52l131 209l-131 208z" />
    <glyph glyph-name="onequarter" unicode="&#xbc;" horiz-adv-x="952" 
d="M288 691v-419h-98v323l-95 -57l-44 67l148 86h89zM642 755l77 -38l-409 -799l-77 38zM919 164v-74h-50v-90h-95l-1 90h-189v67l125 271l84 -31l-106 -233h87l15 99h80v-99h50z" />
    <glyph glyph-name="onehalf" unicode="&#xbd;" horiz-adv-x="952" 
d="M288 691v-419h-98v323l-95 -57l-44 67l148 86h89zM642 755l77 -38l-409 -799l-77 38zM857 393c26.667 -23.333 39.9971 -52.668 39.9971 -88.001c0 -22 -5 -42.833 -15 -62.5s-27.167 -42.167 -51.5 -67.5s-59.833 -58 -106.5 -98h182l-10 -77h-284v71
c53.333 50 92 87.5 116 112.5s41 45.833 51 62.5s15 33.334 15 50.001c0 17.333 -5.16699 30.833 -15.5 40.5s-24.166 14.5 -41.499 14.5c-16 0 -30.167 -3.33301 -42.5 -10s-25.166 -17.667 -38.499 -33l-59 47c38.667 48.667 88.667 73 150 73
c46.667 0 83.334 -11.667 110.001 -35z" />
    <glyph glyph-name="threequarters" unicode="&#xbe;" horiz-adv-x="952" 
d="M305.5 669.5c25.667 -20.333 38.502 -46.165 38.502 -77.498c0 -24.667 -7.83301 -45.5 -23.5 -62.5s-37.834 -28.833 -66.501 -35.5c31.333 -2.66699 56.666 -12.5 75.999 -29.5s29 -41.167 29 -72.5c0 -37.333 -15 -68.5 -45 -93.5s-71 -37.5 -123 -37.5
c-62.667 0 -112.667 21.333 -150 64l56 53c13.333 -14 27 -24.167 41 -30.5s29.667 -9.5 47 -9.5c21.333 0 38.333 5.16699 51 15.5s19 25.166 19 44.499c0 20.667 -6.16699 35.667 -18.5 45s-30.5 14 -54.5 14h-36l12 68h24c20 0 35.667 4.66699 47 14s17 22.333 17 39
c0 15.333 -5.33301 27.166 -16 35.499s-25 12.5 -43 12.5c-29.333 0 -58 -12 -86 -36l-50 53c40.667 38 89.667 57 147 57c46 0 81.833 -10.167 107.5 -30.5zM642.002 755.001l77 -38l-409 -799l-77 38zM919.002 164.001v-74h-50v-90h-95l-1 90h-189v67l125 271l84 -31
l-106 -233h87l15 99h80v-99h50z" />
    <glyph glyph-name="questiondown" unicode="&#xbf;" horiz-adv-x="471" 
d="M202.5 364.5c-15.667 15.667 -23.5 34.834 -23.5 57.501c0 22 7.83301 41 23.5 57s34.834 24 57.501 24c22 0 40.833 -8 56.5 -24s23.5 -35 23.5 -57c0 -22.667 -7.66699 -41.834 -23 -57.501s-34.333 -23.5 -57 -23.5s-41.834 7.83301 -57.501 23.5zM115.5 -197
c-31 14.667 -54.332 34.333 -69.999 59s-23.5 51.667 -23.5 81c0 26.667 4.66699 49.5 14 68.5s20.5 34.333 33.5 46s30.5 25.167 52.5 40.5c27.333 18 47.5 34.5 60.5 49.5s19.5 34.5 19.5 58.5v35h120v-40c0 -30 -4.83301 -55.167 -14.5 -75.5
s-21.167 -36.666 -34.5 -48.999s-30.666 -25.5 -51.999 -39.5c-22.667 -14.667 -39.334 -27.834 -50.001 -39.501s-16 -26.5 -16 -44.5c0 -22 7.5 -39.167 22.5 -51.5s35.5 -18.5 61.5 -18.5c47.333 0 89.666 22 126.999 66l84 -65c-59.333 -68.667 -133.333 -103 -222 -103
c-44 0 -81.5 7.33301 -112.5 22z" />
    <glyph glyph-name="Agrave" unicode="&#xc0;" horiz-adv-x="583" 
d="M447 0l-43 160h-229l-43 -160h-137l215 691h163l214 -691h-140zM201 260h176l-88 330zM205 936l212 -117l-33 -66l-229 83z" />
    <glyph glyph-name="Aacute" unicode="&#xc1;" horiz-adv-x="583" 
d="M447 0l-43 160h-229l-43 -160h-137l215 691h163l214 -691h-140zM201 260h176l-88 330zM373 936l50 -100l-229 -83l-33 66z" />
    <glyph glyph-name="Acircumflex" unicode="&#xc2;" horiz-adv-x="583" 
d="M447 0l-43 160h-229l-43 -160h-137l215 691h163l214 -691h-140zM201 260h176l-88 330zM161 757l-49 55l139 121h80l139 -121l-49 -55l-130 82z" />
    <glyph glyph-name="Atilde" unicode="&#xc3;" horiz-adv-x="583" 
d="M447 0l-43 160h-229l-43 -160h-137l215 691h163l214 -691h-140zM201 260h176l-88 330zM313.5 777.5c-10.333 5 -22.166 11.834 -35.499 20.501c-10 6.66699 -18 11.5 -24 14.5s-12.333 4.5 -19 4.5c-11.333 0 -20.833 -3.5 -28.5 -10.5s-15.834 -18.5 -24.501 -34.5
l-69 34c13.333 31.333 30 56.5 50 75.5s43.333 28.5 70 28.5c14.667 0 27.167 -2.33301 37.5 -7s22.5 -11.334 36.5 -20.001c8.66699 -6.66699 16.167 -11.5 22.5 -14.5s12.833 -4.5 19.5 -4.5c10 0 19 3.33301 27 10s16.667 17.667 26 33l68 -34
c-13.333 -32 -30.333 -57.167 -51 -75.5s-43.667 -27.5 -69 -27.5c-14 0 -26.167 2.5 -36.5 7.5z" />
    <glyph glyph-name="Adieresis" unicode="&#xc4;" horiz-adv-x="583" 
d="M447 0l-43 160h-229l-43 -160h-137l215 691h163l214 -691h-140zM201 260h176l-88 330zM230 891c13.333 -13.333 20 -29.666 20 -48.999s-6.66699 -35.666 -20 -48.999s-29.666 -20 -48.999 -20c-20 0 -36.833 6.66699 -50.5 20s-20.5 29.666 -20.5 48.999
s6.83301 35.666 20.5 48.999s30.5 20 50.5 20c19.333 0 35.666 -6.66699 48.999 -20zM452 891c13.333 -13.333 20 -29.666 20 -48.999s-6.66699 -35.666 -20 -48.999s-30 -20 -50 -20c-19.333 0 -35.833 6.66699 -49.5 20s-20.5 29.666 -20.5 48.999
s6.83301 35.666 20.5 48.999s30.167 20 49.5 20c20 0 36.667 -6.66699 50 -20z" />
    <glyph glyph-name="Aring" unicode="&#xc5;" horiz-adv-x="583" 
d="M447 0l-43 160h-229l-43 -160h-137l215 691h163l214 -691h-140zM201 260h176l-88 330zM384 944.5c23.333 -23 35 -51.5 35 -85.5c0 -33.333 -11.833 -61.666 -35.5 -84.999s-54.167 -35 -91.5 -35c-38 0 -68.833 11.667 -92.5 35s-35.5 51.666 -35.5 84.999
c0 34 11.833 62.5 35.5 85.5s54.5 34.5 92.5 34.5s68.667 -11.5 92 -34.5zM256 898c-8.66699 -9.33301 -13 -22.333 -13 -39s4.33301 -29.5 13 -38.5s20.667 -13.5 36 -13.5c14.667 0 26.334 4.5 35.001 13.5s13 21.833 13 38.5s-4.33301 29.667 -13 39
s-20.334 14 -35.001 14c-15.333 0 -27.333 -4.66699 -36 -14z" />
    <glyph glyph-name="AE" unicode="&#xc6;" horiz-adv-x="832" 
d="M560 99h230v-99h-339l-32 160h-240l-57 -160h-140l273 691h496l-15 -98h-288l44 -194h250v-98h-228zM214 260h185l-67 331z" />
    <glyph glyph-name="Ccedilla" unicode="&#xc7;" horiz-adv-x="568" 
d="M479.5 15.5c-29.667 -15 -62.8291 -24.502 -99.4961 -28.502v-39c33.333 -3.33301 58.166 -13.166 74.499 -29.499s24.5 -37.166 24.5 -62.499c0 -33.333 -12.667 -59.833 -38 -79.5s-58.333 -29.5 -99 -29.5c-20.667 0 -40 2.5 -58 7.5s-33 11.833 -45 20.5l31 63
c20 -10.667 41 -16 63 -16c32.667 0 49 11.333 49 34c0 13.333 -7.16699 23 -21.5 29s-37.5 9 -69.5 9l12 94c-79.333 10 -142.5 46 -189.5 108s-70.5 145.667 -70.5 251c0 75.333 13.167 140 39.5 194s62.333 95 108 123s97.167 42 154.5 42c42 0 78.667 -6 110 -18
s62 -30.333 92 -55l-67 -78c-40.667 32.667 -83.334 49 -128.001 49c-51.333 0 -92.5 -20.667 -123.5 -62s-46.5 -106.333 -46.5 -195c0 -86.667 15.333 -151 46 -193s72 -63 124 -63c27.333 0 51.666 4.83301 72.999 14.5s44 23.5 68 41.5l62 -78
c-20.667 -20.667 -45.834 -38.5 -75.501 -53.5z" />
    <glyph glyph-name="Egrave" unicode="&#xc8;" horiz-adv-x="530" 
d="M482 691l-14 -98h-255v-193h222v-98h-222v-203h273v-99h-405v691h401zM197 936l212 -117l-33 -66l-229 83z" />
    <glyph glyph-name="Eacute" unicode="&#xc9;" horiz-adv-x="530" 
d="M482 691l-14 -98h-255v-193h222v-98h-222v-203h273v-99h-405v691h401zM365 936l50 -100l-229 -83l-33 66z" />
    <glyph glyph-name="Ecircumflex" unicode="&#xca;" horiz-adv-x="530" 
d="M482 691l-14 -98h-255v-193h222v-98h-222v-203h273v-99h-405v691h401zM153 757l-49 55l139 121h80l139 -121l-49 -55l-130 82z" />
    <glyph glyph-name="Edieresis" unicode="&#xcb;" horiz-adv-x="530" 
d="M482 691l-14 -98h-255v-193h222v-98h-222v-203h273v-99h-405v691h401zM222 891c13.333 -13.333 20 -29.666 20 -48.999s-6.66699 -35.666 -20 -48.999s-29.666 -20 -48.999 -20c-20 0 -36.833 6.66699 -50.5 20s-20.5 29.666 -20.5 48.999s6.83301 35.666 20.5 48.999
s30.5 20 50.5 20c19.333 0 35.666 -6.66699 48.999 -20zM444 891c13.333 -13.333 20 -29.666 20 -48.999s-6.66699 -35.666 -20 -48.999s-30 -20 -50 -20c-19.333 0 -35.833 6.66699 -49.5 20s-20.5 29.666 -20.5 48.999s6.83301 35.666 20.5 48.999s30.167 20 49.5 20
c20 0 36.667 -6.66699 50 -20z" />
    <glyph glyph-name="Igrave" unicode="&#xcc;" horiz-adv-x="294" 
d="M213 691v-691h-132v691h132zM60 936l212 -117l-33 -66l-229 83z" />
    <glyph glyph-name="Iacute" unicode="&#xcd;" horiz-adv-x="294" 
d="M213 691v-691h-132v691h132zM228 936l50 -100l-229 -83l-33 66z" />
    <glyph glyph-name="Icircumflex" unicode="&#xce;" horiz-adv-x="294" 
d="M213 691v-691h-132v691h132zM16 757l-49 55l139 121h80l139 -121l-49 -55l-130 82z" />
    <glyph glyph-name="Idieresis" unicode="&#xcf;" horiz-adv-x="294" 
d="M213 691v-691h-132v691h132zM85 891c13.333 -13.333 20 -29.666 20 -48.999s-6.66699 -35.666 -20 -48.999s-29.666 -20 -48.999 -20c-20 0 -36.833 6.66699 -50.5 20s-20.5 29.666 -20.5 48.999s6.83301 35.666 20.5 48.999s30.5 20 50.5 20
c19.333 0 35.666 -6.66699 48.999 -20zM307 891c13.333 -13.333 20 -29.666 20 -48.999s-6.66699 -35.666 -20 -48.999s-30 -20 -50 -20c-19.333 0 -35.833 6.66699 -49.5 20s-20.5 29.666 -20.5 48.999s6.83301 35.666 20.5 48.999s30.167 20 49.5 20
c20 0 36.667 -6.66699 50 -20z" />
    <glyph glyph-name="Eth" unicode="&#xd0;" horiz-adv-x="661" 
d="M521.5 618c64.333 -48.667 96.5 -138.333 96.5 -269c0 -128 -31.667 -218.167 -95 -270.5s-143.666 -78.5 -240.999 -78.5h-188v310h-77v86h77v295h170c107.333 0 193.166 -24.333 257.499 -73zM429 153.501c33.333 36.333 50.001 101.499 50.001 195.499
c0 65.333 -8.5 115.833 -25.5 151.5s-39.333 59.834 -67 72.501s-60.834 19 -99.501 19h-61v-196h145v-86h-145v-211h65c58.667 0 104.667 18.167 138 54.5z" />
    <glyph glyph-name="Ntilde" unicode="&#xd1;" horiz-adv-x="672" 
d="M591 0l-171 -0.000976562l-237 559c6 -49.333 10.5 -94 13.5 -134s4.5 -87.667 4.5 -143v-282h-120v691h167l241 -560c-4 26.667 -8 61.834 -12 105.501s-6 87.167 -6 130.5v324h120v-691zM365.5 777.499c-10.333 5 -22.166 11.834 -35.499 20.501
c-10 6.66699 -18 11.5 -24 14.5s-12.333 4.5 -19 4.5c-11.333 0 -20.833 -3.5 -28.5 -10.5s-15.834 -18.5 -24.501 -34.5l-69 34c13.333 31.333 30 56.5 50 75.5s43.333 28.5 70 28.5c14.667 0 27.167 -2.33301 37.5 -7s22.5 -11.334 36.5 -20.001
c8.66699 -6.66699 16.167 -11.5 22.5 -14.5s12.833 -4.5 19.5 -4.5c10 0 19 3.33301 27 10s16.667 17.667 26 33l68 -34c-13.333 -32 -30.333 -57.167 -51 -75.5s-43.667 -27.5 -69 -27.5c-14 0 -26.167 2.5 -36.5 7.5z" />
    <glyph glyph-name="Ograve" unicode="&#xd2;" horiz-adv-x="691" 
d="M507 664c45.333 -28 80.165 -69 104.498 -123s36.5 -119 36.5 -195c0 -75.333 -12.333 -140 -37 -194s-59.667 -95.333 -105 -124s-98.666 -43 -159.999 -43c-62 0 -115.667 14 -161 42s-80.333 69 -105 123s-37 119 -37 195c0 74.667 12.333 139.167 37 193.5
s59.834 95.833 105.501 124.5s99.167 43 160.5 43c62 0 115.667 -14 161 -42zM223.999 542.5c-28 -41.667 -42 -107.5 -42 -197.5c0 -172.667 54.667 -259 164 -259c53.333 0 93.833 20.667 121.5 62s41.5 107.333 41.5 198c0 90 -13.833 155.667 -41.5 197
s-68.167 62 -121.5 62s-94 -20.833 -122 -62.5zM258.999 936l212 -117l-33 -66l-229 83z" />
    <glyph glyph-name="Oacute" unicode="&#xd3;" horiz-adv-x="691" 
d="M507 664c45.333 -28 80.165 -69 104.498 -123s36.5 -119 36.5 -195c0 -75.333 -12.333 -140 -37 -194s-59.667 -95.333 -105 -124s-98.666 -43 -159.999 -43c-62 0 -115.667 14 -161 42s-80.333 69 -105 123s-37 119 -37 195c0 74.667 12.333 139.167 37 193.5
s59.834 95.833 105.501 124.5s99.167 43 160.5 43c62 0 115.667 -14 161 -42zM223.999 542.5c-28 -41.667 -42 -107.5 -42 -197.5c0 -172.667 54.667 -259 164 -259c53.333 0 93.833 20.667 121.5 62s41.5 107.333 41.5 198c0 90 -13.833 155.667 -41.5 197
s-68.167 62 -121.5 62s-94 -20.833 -122 -62.5zM426.999 936l50 -100l-229 -83l-33 66z" />
    <glyph glyph-name="Ocircumflex" unicode="&#xd4;" horiz-adv-x="691" 
d="M507 664c45.333 -28 80.165 -69 104.498 -123s36.5 -119 36.5 -195c0 -75.333 -12.333 -140 -37 -194s-59.667 -95.333 -105 -124s-98.666 -43 -159.999 -43c-62 0 -115.667 14 -161 42s-80.333 69 -105 123s-37 119 -37 195c0 74.667 12.333 139.167 37 193.5
s59.834 95.833 105.501 124.5s99.167 43 160.5 43c62 0 115.667 -14 161 -42zM223.999 542.5c-28 -41.667 -42 -107.5 -42 -197.5c0 -172.667 54.667 -259 164 -259c53.333 0 93.833 20.667 121.5 62s41.5 107.333 41.5 198c0 90 -13.833 155.667 -41.5 197
s-68.167 62 -121.5 62s-94 -20.833 -122 -62.5zM214.999 757l-49 55l139 121h80l139 -121l-49 -55l-130 82z" />
    <glyph glyph-name="Otilde" unicode="&#xd5;" horiz-adv-x="691" 
d="M507 664c45.333 -28 80.165 -69 104.498 -123s36.5 -119 36.5 -195c0 -75.333 -12.333 -140 -37 -194s-59.667 -95.333 -105 -124s-98.666 -43 -159.999 -43c-62 0 -115.667 14 -161 42s-80.333 69 -105 123s-37 119 -37 195c0 74.667 12.333 139.167 37 193.5
s59.834 95.833 105.501 124.5s99.167 43 160.5 43c62 0 115.667 -14 161 -42zM223.999 542.5c-28 -41.667 -42 -107.5 -42 -197.5c0 -172.667 54.667 -259 164 -259c53.333 0 93.833 20.667 121.5 62s41.5 107.333 41.5 198c0 90 -13.833 155.667 -41.5 197
s-68.167 62 -121.5 62s-94 -20.833 -122 -62.5zM367.499 777.5c-10.333 5 -22.166 11.834 -35.499 20.501c-10 6.66699 -18 11.5 -24 14.5s-12.333 4.5 -19 4.5c-11.333 0 -20.833 -3.5 -28.5 -10.5s-15.834 -18.5 -24.501 -34.5l-69 34c13.333 31.333 30 56.5 50 75.5
s43.333 28.5 70 28.5c14.667 0 27.167 -2.33301 37.5 -7s22.5 -11.334 36.5 -20.001c8.66699 -6.66699 16.167 -11.5 22.5 -14.5s12.833 -4.5 19.5 -4.5c10 0 19 3.33301 27 10s16.667 17.667 26 33l68 -34c-13.333 -32 -30.333 -57.167 -51 -75.5s-43.667 -27.5 -69 -27.5
c-14 0 -26.167 2.5 -36.5 7.5z" />
    <glyph glyph-name="Odieresis" unicode="&#xd6;" horiz-adv-x="691" 
d="M507 664c45.333 -28 80.165 -69 104.498 -123s36.5 -119 36.5 -195c0 -75.333 -12.333 -140 -37 -194s-59.667 -95.333 -105 -124s-98.666 -43 -159.999 -43c-62 0 -115.667 14 -161 42s-80.333 69 -105 123s-37 119 -37 195c0 74.667 12.333 139.167 37 193.5
s59.834 95.833 105.501 124.5s99.167 43 160.5 43c62 0 115.667 -14 161 -42zM223.999 542.5c-28 -41.667 -42 -107.5 -42 -197.5c0 -172.667 54.667 -259 164 -259c53.333 0 93.833 20.667 121.5 62s41.5 107.333 41.5 198c0 90 -13.833 155.667 -41.5 197
s-68.167 62 -121.5 62s-94 -20.833 -122 -62.5zM283.999 891c13.333 -13.333 20 -29.666 20 -48.999s-6.66699 -35.666 -20 -48.999s-29.666 -20 -48.999 -20c-20 0 -36.833 6.66699 -50.5 20s-20.5 29.666 -20.5 48.999s6.83301 35.666 20.5 48.999s30.5 20 50.5 20
c19.333 0 35.666 -6.66699 48.999 -20zM505.999 891c13.333 -13.333 20 -29.666 20 -48.999s-6.66699 -35.666 -20 -48.999s-30 -20 -50 -20c-19.333 0 -35.833 6.66699 -49.5 20s-20.5 29.666 -20.5 48.999s6.83301 35.666 20.5 48.999s30.167 20 49.5 20
c20 0 36.667 -6.66699 50 -20z" />
    <glyph glyph-name="multiply" unicode="&#xd7;" horiz-adv-x="510" 
d="M374 499l73 -73l-118 -117l118 -121l-73 -73l-117 122l-121 -122l-73 73l118 116l-118 122l73 73l117 -123z" />
    <glyph glyph-name="Oslash" unicode="&#xd8;" horiz-adv-x="691" 
d="M610 544c25.333 -54.667 37.9961 -120.666 37.9961 -197.999c0 -75.333 -12.333 -140 -37 -194s-59.667 -95.333 -105 -124s-98.666 -43 -159.999 -43c-17.333 0 -36.666 1.66699 -57.999 5l-36 -121l-103 27l41 128c-47.333 28 -83.666 69.167 -108.999 123.5
s-38 120.166 -38 197.499c0 74.667 12.333 139.167 37 193.5s59.834 95.833 105.501 124.5s99.167 43 160.5 43c21.333 0 40 -1.33301 56 -4l37 122l104 -28l-41 -129c46.667 -27.333 82.667 -68.333 108 -123zM223.996 542.501c-28 -41.667 -42 -107.5 -42 -197.5
c0 -110.667 19.333 -184.667 58 -222l144 479c-12 2 -24.667 3 -38 3c-53.333 0 -94 -20.833 -122 -62.5zM467.496 148.001c27.667 41.333 41.5 107.333 41.5 198c0 58.667 -4.83301 106.167 -14.5 142.5s-24.5 63.5 -44.5 81.5l-143 -481c12 -2 25 -3 39 -3
c53.333 0 93.833 20.667 121.5 62z" />
    <glyph glyph-name="Ugrave" unicode="&#xd9;" horiz-adv-x="656" 
d="M585 226c0 -46.667 -9.83301 -88.167 -29.5 -124.5s-49 -64.833 -88 -85.5s-85.833 -31 -140.5 -31c-82.667 0 -146 21.833 -190 65.5s-66 102.167 -66 175.5v465h132v-458c0 -48.667 10.167 -85 30.5 -109s51.5 -36 93.5 -36c42.667 0 74.167 12 94.5 36
s30.5 60.333 30.5 109v458h133v-465zM241 936l212 -117l-33 -66l-229 83z" />
    <glyph glyph-name="Uacute" unicode="&#xda;" horiz-adv-x="656" 
d="M585 226c0 -46.667 -9.83301 -88.167 -29.5 -124.5s-49 -64.833 -88 -85.5s-85.833 -31 -140.5 -31c-82.667 0 -146 21.833 -190 65.5s-66 102.167 -66 175.5v465h132v-458c0 -48.667 10.167 -85 30.5 -109s51.5 -36 93.5 -36c42.667 0 74.167 12 94.5 36
s30.5 60.333 30.5 109v458h133v-465zM409 936l50 -100l-229 -83l-33 66z" />
    <glyph glyph-name="Ucircumflex" unicode="&#xdb;" horiz-adv-x="656" 
d="M585 226c0 -46.667 -9.83301 -88.167 -29.5 -124.5s-49 -64.833 -88 -85.5s-85.833 -31 -140.5 -31c-82.667 0 -146 21.833 -190 65.5s-66 102.167 -66 175.5v465h132v-458c0 -48.667 10.167 -85 30.5 -109s51.5 -36 93.5 -36c42.667 0 74.167 12 94.5 36
s30.5 60.333 30.5 109v458h133v-465zM197 757l-49 55l139 121h80l139 -121l-49 -55l-130 82z" />
    <glyph glyph-name="Udieresis" unicode="&#xdc;" horiz-adv-x="656" 
d="M585 226c0 -46.667 -9.83301 -88.167 -29.5 -124.5s-49 -64.833 -88 -85.5s-85.833 -31 -140.5 -31c-82.667 0 -146 21.833 -190 65.5s-66 102.167 -66 175.5v465h132v-458c0 -48.667 10.167 -85 30.5 -109s51.5 -36 93.5 -36c42.667 0 74.167 12 94.5 36
s30.5 60.333 30.5 109v458h133v-465zM266 891c13.333 -13.333 20 -29.666 20 -48.999s-6.66699 -35.666 -20 -48.999s-29.666 -20 -48.999 -20c-20 0 -36.833 6.66699 -50.5 20s-20.5 29.666 -20.5 48.999s6.83301 35.666 20.5 48.999s30.5 20 50.5 20
c19.333 0 35.666 -6.66699 48.999 -20zM488 891c13.333 -13.333 20 -29.666 20 -48.999s-6.66699 -35.666 -20 -48.999s-30 -20 -50 -20c-19.333 0 -35.833 6.66699 -49.5 20s-20.5 29.666 -20.5 48.999s6.83301 35.666 20.5 48.999s30.167 20 49.5 20
c20 0 36.667 -6.66699 50 -20z" />
    <glyph glyph-name="Yacute" unicode="&#xdd;" horiz-adv-x="574" 
d="M576 691l-222 -429v-262h-134v261l-222 430h146l146 -321l146 321h140zM368 936l50 -100l-229 -83l-33 66z" />
    <glyph glyph-name="Thorn" unicode="&#xde;" horiz-adv-x="591" 
d="M492 522.5c48.667 -37 73 -92.833 73 -167.5c0 -78.667 -24.667 -137.5 -74 -176.5s-115 -58.5 -197 -58.5h-81v-120h-132v691h132v-113h72c89.333 0 158.333 -18.5 207 -55.5zM391 249.5c24 20.333 36 55.5 36 105.5c0 44 -12.167 76 -36.5 96s-59.833 30 -106.5 30h-71
v-262h71c47.333 0 83 10.167 107 30.5z" />
    <glyph glyph-name="germandbls" unicode="&#xdf;" horiz-adv-x="600" 
d="M401 735.5c29.333 -13 51.832 -30.6709 67.499 -53.0039s23.5 -47.166 23.5 -74.499c0 -26 -5.33301 -46.833 -16 -62.5s-26.334 -32.834 -47.001 -51.501c-14.667 -12.667 -25.5 -23.667 -32.5 -33s-10.5 -20 -10.5 -32c0 -14.667 5.33301 -27.334 16 -38.001
s27.334 -23.667 50.001 -39c24.667 -17.333 45 -33.166 61 -47.499s29.833 -33.166 41.5 -56.499s17.5 -51.333 17.5 -84c0 -36 -8.5 -67.667 -25.5 -95s-40.167 -48.166 -69.5 -62.499s-61.333 -21.5 -96 -21.5c-42 0 -79 8.33301 -111 25l38 88
c15.333 -8.66699 34.666 -13 57.999 -13c22.667 0 40.667 7 54 21s20 34 20 60c0 18 -3.66699 34 -11 48s-16.166 25.667 -26.499 35s-25.166 21.333 -44.499 36c-28.667 20.667 -50.167 39.834 -64.5 57.501s-21.5 40.834 -21.5 69.501c0 23.333 4.33301 41.833 13 55.5
s21.667 28.5 39 44.5c15.333 14 26.833 26.833 34.5 38.5s11.5 26.5 11.5 44.5c0 20.667 -7 36.834 -21 48.501s-32 17.5 -54 17.5c-60 0 -90 -41 -90 -123v-538h-128v536c0 69.333 19 123.166 57 161.499s92.333 57.5 163 57.5c40 0 74.667 -6.5 104 -19.5z" />
    <glyph glyph-name="agrave" unicode="&#xe0;" horiz-adv-x="546" 
d="M477.5 94.5c6.33301 -9.66699 16.5029 -17.165 30.5029 -22.498l-27 -85c-30 2.66699 -54.5 10 -73.5 22s-33.5 30.333 -43.5 55c-18 -26.667 -40.5 -46.5 -67.5 -59.5s-57.167 -19.5 -90.5 -19.5c-52.667 0 -94.334 15 -125.001 45s-46 69.333 -46 118
c0 57.333 20.833 101.166 62.5 131.499s101.167 45.5 178.5 45.5h66v30c0 34 -7.83301 57.833 -23.5 71.5s-40.834 20.5 -75.501 20.5c-38.667 0 -85.334 -9.33301 -140.001 -28l-30 87c66 25.333 130 38 192 38c135.333 0 203 -60.667 203 -182v-222
c0 -20.667 3.16699 -35.834 9.5 -45.501zM342.003 143.002l-0.000976562 107h-53c-82.667 0 -124 -30.667 -124 -92c0 -25.333 6.33301 -45 19 -59s31.334 -21 56.001 -21c43.333 0 77.333 21.667 102 65zM197.002 820.002l210 -125l-37 -65l-225 90z" />
    <glyph glyph-name="aacute" unicode="&#xe1;" horiz-adv-x="546" 
d="M477.5 94.5c6.33301 -9.66699 16.5029 -17.165 30.5029 -22.498l-27 -85c-30 2.66699 -54.5 10 -73.5 22s-33.5 30.333 -43.5 55c-18 -26.667 -40.5 -46.5 -67.5 -59.5s-57.167 -19.5 -90.5 -19.5c-52.667 0 -94.334 15 -125.001 45s-46 69.333 -46 118
c0 57.333 20.833 101.166 62.5 131.499s101.167 45.5 178.5 45.5h66v30c0 34 -7.83301 57.833 -23.5 71.5s-40.834 20.5 -75.501 20.5c-38.667 0 -85.334 -9.33301 -140.001 -28l-30 87c66 25.333 130 38 192 38c135.333 0 203 -60.667 203 -182v-222
c0 -20.667 3.16699 -35.834 9.5 -45.501zM342.003 143.002l-0.000976562 107h-53c-82.667 0 -124 -30.667 -124 -92c0 -25.333 6.33301 -45 19 -59s31.334 -21 56.001 -21c43.333 0 77.333 21.667 102 65zM342.002 820.002l52 -100l-226 -90l-36 65z" />
    <glyph glyph-name="acircumflex" unicode="&#xe2;" horiz-adv-x="546" 
d="M477.5 94.5c6.33301 -9.66699 16.5029 -17.165 30.5029 -22.498l-27 -85c-30 2.66699 -54.5 10 -73.5 22s-33.5 30.333 -43.5 55c-18 -26.667 -40.5 -46.5 -67.5 -59.5s-57.167 -19.5 -90.5 -19.5c-52.667 0 -94.334 15 -125.001 45s-46 69.333 -46 118
c0 57.333 20.833 101.166 62.5 131.499s101.167 45.5 178.5 45.5h66v30c0 34 -7.83301 57.833 -23.5 71.5s-40.834 20.5 -75.501 20.5c-38.667 0 -85.334 -9.33301 -140.001 -28l-30 87c66 25.333 130 38 192 38c135.333 0 203 -60.667 203 -182v-222
c0 -20.667 3.16699 -35.834 9.5 -45.501zM342.003 143.002l-0.000976562 107h-53c-82.667 0 -124 -30.667 -124 -92c0 -25.333 6.33301 -45 19 -59s31.334 -21 56.001 -21c43.333 0 77.333 21.667 102 65zM136.002 627.002l-49 55l138 126h81l139 -126l-49 -55l-130 88z" />
    <glyph glyph-name="atilde" unicode="&#xe3;" horiz-adv-x="546" 
d="M477.5 94.5c6.33301 -9.66699 16.5029 -17.165 30.5029 -22.498l-27 -85c-30 2.66699 -54.5 10 -73.5 22s-33.5 30.333 -43.5 55c-18 -26.667 -40.5 -46.5 -67.5 -59.5s-57.167 -19.5 -90.5 -19.5c-52.667 0 -94.334 15 -125.001 45s-46 69.333 -46 118
c0 57.333 20.833 101.166 62.5 131.499s101.167 45.5 178.5 45.5h66v30c0 34 -7.83301 57.833 -23.5 71.5s-40.834 20.5 -75.501 20.5c-38.667 0 -85.334 -9.33301 -140.001 -28l-30 87c66 25.333 130 38 192 38c135.333 0 203 -60.667 203 -182v-222
c0 -20.667 3.16699 -35.834 9.5 -45.501zM342.003 143.002l-0.000976562 107h-53c-82.667 0 -124 -30.667 -124 -92c0 -25.333 6.33301 -45 19 -59s31.334 -21 56.001 -21c43.333 0 77.333 21.667 102 65zM287.502 651.502c-10.333 5 -22.166 11.834 -35.499 20.501
c-10 6.66699 -18 11.5 -24 14.5s-12.333 4.5 -19 4.5c-11.333 0 -20.833 -3.5 -28.5 -10.5s-15.834 -18.5 -24.501 -34.5l-69 34c13.333 31.333 30 56.5 50 75.5s43.333 28.5 70 28.5c14.667 0 27.167 -2.33301 37.5 -7s22.5 -11.334 36.5 -20.001
c8.66699 -6.66699 16.167 -11.5 22.5 -14.5s12.833 -4.5 19.5 -4.5c10 0 19 3.33301 27 10s16.667 17.667 26 33l68 -34c-13.333 -32 -30.333 -57.167 -51 -75.5s-43.667 -27.5 -69 -27.5c-14 0 -26.167 2.5 -36.5 7.5z" />
    <glyph glyph-name="adieresis" unicode="&#xe4;" horiz-adv-x="546" 
d="M477.5 94.5c6.33301 -9.66699 16.5029 -17.165 30.5029 -22.498l-27 -85c-30 2.66699 -54.5 10 -73.5 22s-33.5 30.333 -43.5 55c-18 -26.667 -40.5 -46.5 -67.5 -59.5s-57.167 -19.5 -90.5 -19.5c-52.667 0 -94.334 15 -125.001 45s-46 69.333 -46 118
c0 57.333 20.833 101.166 62.5 131.499s101.167 45.5 178.5 45.5h66v30c0 34 -7.83301 57.833 -23.5 71.5s-40.834 20.5 -75.501 20.5c-38.667 0 -85.334 -9.33301 -140.001 -28l-30 87c66 25.333 130 38 192 38c135.333 0 203 -60.667 203 -182v-222
c0 -20.667 3.16699 -35.834 9.5 -45.501zM342.003 143.002l-0.000976562 107h-53c-82.667 0 -124 -30.667 -124 -92c0 -25.333 6.33301 -45 19 -59s31.334 -21 56.001 -21c43.333 0 77.333 21.667 102 65zM204.002 765.002c13.333 -13.333 20 -29.666 20 -48.999
s-6.66699 -35.666 -20 -48.999s-29.666 -20 -48.999 -20c-20 0 -36.833 6.66699 -50.5 20s-20.5 29.666 -20.5 48.999s6.83301 35.666 20.5 48.999s30.5 20 50.5 20c19.333 0 35.666 -6.66699 48.999 -20zM426.002 765.002c13.333 -13.333 20 -29.666 20 -48.999
s-6.66699 -35.666 -20 -48.999s-30 -20 -50 -20c-19.333 0 -35.833 6.66699 -49.5 20s-20.5 29.666 -20.5 48.999s6.83301 35.666 20.5 48.999s30.167 20 49.5 20c20 0 36.667 -6.66699 50 -20z" />
    <glyph glyph-name="aring" unicode="&#xe5;" horiz-adv-x="546" 
d="M477.5 94.5c6.33301 -9.66699 16.5029 -17.165 30.5029 -22.498l-27 -85c-30 2.66699 -54.5 10 -73.5 22s-33.5 30.333 -43.5 55c-18 -26.667 -40.5 -46.5 -67.5 -59.5s-57.167 -19.5 -90.5 -19.5c-52.667 0 -94.334 15 -125.001 45s-46 69.333 -46 118
c0 57.333 20.833 101.166 62.5 131.499s101.167 45.5 178.5 45.5h66v30c0 34 -7.83301 57.833 -23.5 71.5s-40.834 20.5 -75.501 20.5c-38.667 0 -85.334 -9.33301 -140.001 -28l-30 87c66 25.333 130 38 192 38c135.333 0 203 -60.667 203 -182v-222
c0 -20.667 3.16699 -35.834 9.5 -45.501zM342.003 143.002l-0.000976562 107h-53c-82.667 0 -124 -30.667 -124 -92c0 -25.333 6.33301 -45 19 -59s31.334 -21 56.001 -21c43.333 0 77.333 21.667 102 65zM358.002 818.502c23.333 -23 35 -51.5 35 -85.5
c0 -33.333 -11.833 -61.666 -35.5 -84.999s-54.167 -35 -91.5 -35c-38 0 -68.833 11.667 -92.5 35s-35.5 51.666 -35.5 84.999c0 34 11.833 62.5 35.5 85.5s54.5 34.5 92.5 34.5s68.667 -11.5 92 -34.5zM230.002 772.002c-8.66699 -9.33301 -13 -22.333 -13 -39
s4.33301 -29.5 13 -38.5s20.667 -13.5 36 -13.5c14.667 0 26.334 4.5 35.001 13.5s13 21.833 13 38.5s-4.33301 29.667 -13 39s-20.334 14 -35.001 14c-15.333 0 -27.333 -4.66699 -36 -14z" />
    <glyph glyph-name="ae" unicode="&#xe6;" horiz-adv-x="852" 
d="M811 225l-331 -0.000976562c4 -51.333 17.167 -88 39.5 -110s52.166 -33 89.499 -33c23.333 0 45.333 3.66699 66 11s42.667 19.333 66 36l54 -73c-60 -47.333 -125.667 -71 -197 -71c-44.667 0 -84 8 -118 24s-61.667 39 -83 69
c-23.333 -33.333 -50.5 -57.166 -81.5 -71.499s-66.5 -21.5 -106.5 -21.5c-53.333 0 -95.666 15 -126.999 45s-47 69.333 -47 118c0 57.333 21.167 101.166 63.5 131.499s102.833 45.5 181.5 45.5h67v30c0 33.333 -7.83301 56.833 -23.5 70.5s-40.834 20.5 -75.501 20.5
c-38 0 -85 -9.33301 -141 -28l-29 88c66 25.333 129.667 38 191 38c74.667 0 128.334 -24.667 161.001 -74c40 49.333 93.333 74 160 74c69.333 0 124 -23.667 164 -71s60 -112.666 60 -195.999c0 -20.667 -1 -38 -3 -52zM688 313.999
c-1.33301 92.667 -36.001 139 -104.001 139c-31.333 0 -55.666 -11.5 -72.999 -34.5s-28 -59.833 -32 -110.5h209v6zM308.499 96.999c18.333 12.667 35.832 31.998 52.499 57.998c-7.33301 26.667 -11.666 56.334 -12.999 89.001v4h-53c-82.667 0 -124 -30.667 -124 -92
c0 -25.333 6.33301 -44.666 19 -57.999s31.334 -20 56.001 -20c23.333 0 44.166 6.33301 62.499 19z" />
    <glyph glyph-name="ccedilla" unicode="&#xe7;" horiz-adv-x="478" 
d="M317 -14l-0.00292969 -38.002c33.333 -3.33301 58.166 -13.166 74.499 -29.499s24.5 -37.166 24.5 -62.499c0 -33.333 -12.667 -59.833 -38 -79.5s-58.333 -29.5 -99 -29.5c-20.667 0 -40 2.5 -58 7.5s-33 11.833 -45 20.5l31 63c20 -10.667 41 -16 63 -16
c32.667 0 49 11.333 49 34c0 13.333 -7.16699 23 -21.5 29s-37.5 9 -69.5 9l12 95c-62 11.333 -110.333 40.833 -145 88.5s-52 108.5 -52 182.5c0 56 10 105.5 30 148.5s48.667 76.333 86 100s81 35.5 131 35.5c34.667 0 65.834 -5 93.501 -15s53.834 -25.667 78.501 -47
l-57 -77c-18 13.333 -35.333 23 -52 29s-35 9 -55 9c-79.333 0 -119 -60.333 -119 -181c0 -61.333 10.333 -105.5 31 -132.5s50 -40.5 88 -40.5c18.667 0 35.834 3 51.501 9s34.167 15.667 55.5 29l57 -81c-43.333 -35.333 -91.666 -55.333 -144.999 -60z" />
    <glyph glyph-name="egrave" unicode="&#xe8;" horiz-adv-x="549" 
d="M508 225l-331.999 0.000976562c4 -51.333 17.333 -88 40 -110s52.667 -33 90 -33c23.333 0 45.333 3.83301 66 11.5s42.667 19.5 66 35.5l53 -73c-58.667 -47.333 -124 -71 -196 -71c-80.667 0 -142.834 24.667 -186.501 74s-65.5 116.666 -65.5 201.999
c0 54 9.33301 102.5 28 145.5s45.667 76.667 81 101s77.333 36.5 126 36.5c74 0 131.333 -23.5 172 -70.5s61 -112.5 61 -196.5c0 -6.66699 -1 -24 -3 -52zM384.001 314.001c0 92.667 -34.333 139 -103 139c-31.333 0 -55.833 -11.5 -73.5 -34.5
s-28.167 -59.833 -31.5 -110.5h208v6zM212.001 820.001l210 -125l-37 -65l-225 90z" />
    <glyph glyph-name="eacute" unicode="&#xe9;" horiz-adv-x="549" 
d="M508 225l-331.999 0.000976562c4 -51.333 17.333 -88 40 -110s52.667 -33 90 -33c23.333 0 45.333 3.83301 66 11.5s42.667 19.5 66 35.5l53 -73c-58.667 -47.333 -124 -71 -196 -71c-80.667 0 -142.834 24.667 -186.501 74s-65.5 116.666 -65.5 201.999
c0 54 9.33301 102.5 28 145.5s45.667 76.667 81 101s77.333 36.5 126 36.5c74 0 131.333 -23.5 172 -70.5s61 -112.5 61 -196.5c0 -6.66699 -1 -24 -3 -52zM384.001 314.001c0 92.667 -34.333 139 -103 139c-31.333 0 -55.833 -11.5 -73.5 -34.5
s-28.167 -59.833 -31.5 -110.5h208v6zM357.001 820.001l52 -100l-226 -90l-36 65z" />
    <glyph glyph-name="ecircumflex" unicode="&#xea;" horiz-adv-x="549" 
d="M508 225l-331.999 0.000976562c4 -51.333 17.333 -88 40 -110s52.667 -33 90 -33c23.333 0 45.333 3.83301 66 11.5s42.667 19.5 66 35.5l53 -73c-58.667 -47.333 -124 -71 -196 -71c-80.667 0 -142.834 24.667 -186.501 74s-65.5 116.666 -65.5 201.999
c0 54 9.33301 102.5 28 145.5s45.667 76.667 81 101s77.333 36.5 126 36.5c74 0 131.333 -23.5 172 -70.5s61 -112.5 61 -196.5c0 -6.66699 -1 -24 -3 -52zM384.001 314.001c0 92.667 -34.333 139 -103 139c-31.333 0 -55.833 -11.5 -73.5 -34.5
s-28.167 -59.833 -31.5 -110.5h208v6zM151.001 627.001l-49 55l138 126h81l139 -126l-49 -55l-130 88z" />
    <glyph glyph-name="edieresis" unicode="&#xeb;" horiz-adv-x="549" 
d="M508 225l-331.999 0.000976562c4 -51.333 17.333 -88 40 -110s52.667 -33 90 -33c23.333 0 45.333 3.83301 66 11.5s42.667 19.5 66 35.5l53 -73c-58.667 -47.333 -124 -71 -196 -71c-80.667 0 -142.834 24.667 -186.501 74s-65.5 116.666 -65.5 201.999
c0 54 9.33301 102.5 28 145.5s45.667 76.667 81 101s77.333 36.5 126 36.5c74 0 131.333 -23.5 172 -70.5s61 -112.5 61 -196.5c0 -6.66699 -1 -24 -3 -52zM384.001 314.001c0 92.667 -34.333 139 -103 139c-31.333 0 -55.833 -11.5 -73.5 -34.5
s-28.167 -59.833 -31.5 -110.5h208v6zM219.001 765.001c13.333 -13.333 20 -29.666 20 -48.999s-6.66699 -35.666 -20 -48.999s-29.666 -20 -48.999 -20c-20 0 -36.833 6.66699 -50.5 20s-20.5 29.666 -20.5 48.999s6.83301 35.666 20.5 48.999s30.5 20 50.5 20
c19.333 0 35.666 -6.66699 48.999 -20zM441.001 765.001c13.333 -13.333 20 -29.666 20 -48.999s-6.66699 -35.666 -20 -48.999s-30 -20 -50 -20c-19.333 0 -35.833 6.66699 -49.5 20s-20.5 29.666 -20.5 48.999s6.83301 35.666 20.5 48.999s30.167 20 49.5 20
c20 0 36.667 -6.66699 50 -20z" />
    <glyph glyph-name="igrave" unicode="&#xec;" horiz-adv-x="282" 
d="M205 529v-529h-128v529h128zM72 820l210 -125l-37 -65l-225 90z" />
    <glyph glyph-name="iacute" unicode="&#xed;" horiz-adv-x="282" 
d="M205 529v-529h-128v529h128zM217 820l52 -100l-226 -90l-36 65z" />
    <glyph glyph-name="icircumflex" unicode="&#xee;" horiz-adv-x="282" 
d="M205 529v-529h-128v529h128zM11 627l-49 55l138 126h81l139 -126l-49 -55l-130 88z" />
    <glyph glyph-name="idieresis" unicode="&#xef;" horiz-adv-x="282" 
d="M205 529v-529h-128v529h128zM79 765c13.333 -13.333 20 -29.666 20 -48.999s-6.66699 -35.666 -20 -48.999s-29.666 -20 -48.999 -20c-20 0 -36.833 6.66699 -50.5 20s-20.5 29.666 -20.5 48.999s6.83301 35.666 20.5 48.999s30.5 20 50.5 20
c19.333 0 35.666 -6.66699 48.999 -20zM301 765c13.333 -13.333 20 -29.666 20 -48.999s-6.66699 -35.666 -20 -48.999s-30 -20 -50 -20c-19.333 0 -35.833 6.66699 -49.5 20s-20.5 29.666 -20.5 48.999s6.83301 35.666 20.5 48.999s30.167 20 49.5 20
c20 0 36.667 -6.66699 50 -20z" />
    <glyph glyph-name="eth" unicode="&#xf0;" horiz-adv-x="575" 
d="M485.5 502.5c27 -63.667 40.501 -140.834 40.501 -231.501c0 -55.333 -9.83301 -104.666 -29.5 -147.999s-48 -77.166 -85 -101.499s-80.5 -36.5 -130.5 -36.5c-44.667 0 -85 9.83301 -121 29.5s-64.5 48.334 -85.5 86.001s-31.5 82.167 -31.5 133.5
c0 43.333 8.33301 83.666 25 120.999s40.5 67 71.5 89s67.167 33 108.5 33c55.333 0 101.666 -18.667 138.999 -56c-8.66699 36 -21.667 67.833 -39 95.5s-41 53.167 -71 76.5l-62 -61l-83 39l64 68c-32 11.333 -65.667 20.333 -101 27l26 88
c54 -9.33301 103.333 -23.333 148 -42l71 76l69 -60l-60 -60c64 -46.667 109.5 -101.834 136.5 -165.501zM366.001 126.5c20 30.333 30 75.167 30 134.5l-1 65c-29.333 38.667 -68.333 58 -117 58c-69.333 0 -104 -48.667 -104 -146c0 -52 9.5 -91.167 28.5 -117.5
s45.167 -39.5 78.5 -39.5c36.667 0 65 15.167 85 45.5z" />
    <glyph glyph-name="ntilde" unicode="&#xf1;" horiz-adv-x="581" 
d="M469.5 501.5c26.333 -28.333 39.502 -67.833 39.502 -118.5v-383h-128v363c0 31.333 -5.5 53.333 -16.5 66s-27.167 19 -48.5 19c-22 0 -41.833 -6.83301 -59.5 -20.5s-34.834 -33.5 -51.501 -59.5v-368h-128v529h111l10 -69c43.333 56 97 84 161 84
c47.333 0 84.166 -14.167 110.499 -42.5zM317.502 651.5c-10.333 5 -22.166 11.834 -35.499 20.501c-10 6.66699 -18 11.5 -24 14.5s-12.333 4.5 -19 4.5c-11.333 0 -20.833 -3.5 -28.5 -10.5s-15.834 -18.5 -24.501 -34.5l-69 34c13.333 31.333 30 56.5 50 75.5
s43.333 28.5 70 28.5c14.667 0 27.167 -2.33301 37.5 -7s22.5 -11.334 36.5 -20.001c8.66699 -6.66699 16.167 -11.5 22.5 -14.5s12.833 -4.5 19.5 -4.5c10 0 19 3.33301 27 10s16.667 17.667 26 33l68 -34c-13.333 -32 -30.333 -57.167 -51 -75.5s-43.667 -27.5 -69 -27.5
c-14 0 -26.167 2.5 -36.5 7.5z" />
    <glyph glyph-name="ograve" unicode="&#xf2;" horiz-adv-x="584" 
d="M475.5 469.5c43.667 -49.667 65.499 -117.835 65.499 -204.502c0 -55.333 -10 -104.166 -30 -146.499s-48.667 -75.166 -86 -98.499s-81.666 -35 -132.999 -35c-78 0 -139 24.833 -183 74.5s-66 118.167 -66 205.5c0 55.333 10 104 30 146s48.833 74.667 86.5 98
s82.167 35 133.5 35c78 0 138.833 -24.833 182.5 -74.5zM177.999 264.999c0 -62.667 9.5 -108.833 28.5 -138.5s47.5 -44.5 85.5 -44.5s66.5 15 85.5 45s28.5 76 28.5 138s-9.5 107.833 -28.5 137.5s-47.167 44.5 -84.5 44.5c-76.667 0 -115 -60.667 -115 -182zM222.999 820
l210 -125l-37 -65l-225 90z" />
    <glyph glyph-name="oacute" unicode="&#xf3;" horiz-adv-x="584" 
d="M475.5 469.5c43.667 -49.667 65.499 -117.835 65.499 -204.502c0 -55.333 -10 -104.166 -30 -146.499s-48.667 -75.166 -86 -98.499s-81.666 -35 -132.999 -35c-78 0 -139 24.833 -183 74.5s-66 118.167 -66 205.5c0 55.333 10 104 30 146s48.833 74.667 86.5 98
s82.167 35 133.5 35c78 0 138.833 -24.833 182.5 -74.5zM177.999 264.999c0 -62.667 9.5 -108.833 28.5 -138.5s47.5 -44.5 85.5 -44.5s66.5 15 85.5 45s28.5 76 28.5 138s-9.5 107.833 -28.5 137.5s-47.167 44.5 -84.5 44.5c-76.667 0 -115 -60.667 -115 -182zM367.999 820
l52 -100l-226 -90l-36 65z" />
    <glyph glyph-name="ocircumflex" unicode="&#xf4;" horiz-adv-x="584" 
d="M475.5 469.5c43.667 -49.667 65.499 -117.835 65.499 -204.502c0 -55.333 -10 -104.166 -30 -146.499s-48.667 -75.166 -86 -98.499s-81.666 -35 -132.999 -35c-78 0 -139 24.833 -183 74.5s-66 118.167 -66 205.5c0 55.333 10 104 30 146s48.833 74.667 86.5 98
s82.167 35 133.5 35c78 0 138.833 -24.833 182.5 -74.5zM177.999 264.999c0 -62.667 9.5 -108.833 28.5 -138.5s47.5 -44.5 85.5 -44.5s66.5 15 85.5 45s28.5 76 28.5 138s-9.5 107.833 -28.5 137.5s-47.167 44.5 -84.5 44.5c-76.667 0 -115 -60.667 -115 -182zM161.999 627
l-49 55l138 126h81l139 -126l-49 -55l-130 88z" />
    <glyph glyph-name="otilde" unicode="&#xf5;" horiz-adv-x="584" 
d="M475.5 469.5c43.667 -49.667 65.499 -117.835 65.499 -204.502c0 -55.333 -10 -104.166 -30 -146.499s-48.667 -75.166 -86 -98.499s-81.666 -35 -132.999 -35c-78 0 -139 24.833 -183 74.5s-66 118.167 -66 205.5c0 55.333 10 104 30 146s48.833 74.667 86.5 98
s82.167 35 133.5 35c78 0 138.833 -24.833 182.5 -74.5zM177.999 264.999c0 -62.667 9.5 -108.833 28.5 -138.5s47.5 -44.5 85.5 -44.5s66.5 15 85.5 45s28.5 76 28.5 138s-9.5 107.833 -28.5 137.5s-47.167 44.5 -84.5 44.5c-76.667 0 -115 -60.667 -115 -182z
M313.499 651.5c-10.333 5 -22.166 11.834 -35.499 20.501c-10 6.66699 -18 11.5 -24 14.5s-12.333 4.5 -19 4.5c-11.333 0 -20.833 -3.5 -28.5 -10.5s-15.834 -18.5 -24.501 -34.5l-69 34c13.333 31.333 30 56.5 50 75.5s43.333 28.5 70 28.5
c14.667 0 27.167 -2.33301 37.5 -7s22.5 -11.334 36.5 -20.001c8.66699 -6.66699 16.167 -11.5 22.5 -14.5s12.833 -4.5 19.5 -4.5c10 0 19 3.33301 27 10s16.667 17.667 26 33l68 -34c-13.333 -32 -30.333 -57.167 -51 -75.5s-43.667 -27.5 -69 -27.5
c-14 0 -26.167 2.5 -36.5 7.5z" />
    <glyph glyph-name="odieresis" unicode="&#xf6;" horiz-adv-x="584" 
d="M475.5 469.5c43.667 -49.667 65.499 -117.835 65.499 -204.502c0 -55.333 -10 -104.166 -30 -146.499s-48.667 -75.166 -86 -98.499s-81.666 -35 -132.999 -35c-78 0 -139 24.833 -183 74.5s-66 118.167 -66 205.5c0 55.333 10 104 30 146s48.833 74.667 86.5 98
s82.167 35 133.5 35c78 0 138.833 -24.833 182.5 -74.5zM177.999 264.999c0 -62.667 9.5 -108.833 28.5 -138.5s47.5 -44.5 85.5 -44.5s66.5 15 85.5 45s28.5 76 28.5 138s-9.5 107.833 -28.5 137.5s-47.167 44.5 -84.5 44.5c-76.667 0 -115 -60.667 -115 -182zM229.999 765
c13.333 -13.333 20 -29.666 20 -48.999s-6.66699 -35.666 -20 -48.999s-29.666 -20 -48.999 -20c-20 0 -36.833 6.66699 -50.5 20s-20.5 29.666 -20.5 48.999s6.83301 35.666 20.5 48.999s30.5 20 50.5 20c19.333 0 35.666 -6.66699 48.999 -20zM451.999 765
c13.333 -13.333 20 -29.666 20 -48.999s-6.66699 -35.666 -20 -48.999s-30 -20 -50 -20c-19.333 0 -35.833 6.66699 -49.5 20s-20.5 29.666 -20.5 48.999s6.83301 35.666 20.5 48.999s30.167 20 49.5 20c20 0 36.667 -6.66699 50 -20z" />
    <glyph glyph-name="divide" unicode="&#xf7;" horiz-adv-x="510" 
d="M313 154.5c16 -15.667 24 -34.834 24 -57.501c0 -22 -8 -41 -24 -57s-35.333 -24 -58 -24c-22 0 -40.833 8 -56.5 24s-23.5 35 -23.5 57c0 22.667 7.66699 41.834 23 57.501s34.333 23.5 57 23.5s42 -7.83301 58 -23.5zM313 625.5c16 -15.667 24 -34.834 24 -57.501
c0 -22 -8 -41 -24 -57s-35.333 -24 -58 -24c-22 0 -40.833 8 -56.5 24s-23.5 35 -23.5 57c0 22.667 7.66699 41.834 23 57.501s34.333 23.5 57 23.5s42 -7.83301 58 -23.5zM55 281v102h401v-102h-401z" />
    <glyph glyph-name="oslash" unicode="&#xf8;" horiz-adv-x="584" 
d="M512 413c19.333 -42 28.999 -91.3359 28.999 -148.003c0 -55.333 -10 -104.166 -30 -146.499s-48.667 -75.166 -86 -98.499s-81.666 -35 -132.999 -35c-14 0 -27.667 1 -41 3l-38 -121l-98 29l41 124c-36 22.667 -63.833 54.834 -83.5 96.501s-29.5 91.167 -29.5 148.5
c0 55.333 10 104 30 146s48.833 74.667 86.5 98s82.167 35 133.5 35c14 0 27.667 -1 41 -3l39 121l97 -29l-42 -124c36.667 -22 64.667 -54 84 -96zM170.999 264.997c0 -39.333 2.83301 -71.167 8.5 -95.5s14.5 -43.5 26.5 -57.5l111 334c-4.66699 0.666992 -12.667 1 -24 1
c-81.333 0 -122 -60.667 -122 -182zM412.999 264.996c0 74.667 -11.667 125.333 -35 152l-110 -334c5.33301 -0.666992 13.333 -1 24 -1c80.667 0 121 61 121 183z" />
    <glyph glyph-name="ugrave" unicode="&#xf9;" horiz-adv-x="577" 
d="M500 0h-111.002l-7 74c-19.333 -30 -42.166 -52.333 -68.499 -67s-57.5 -22 -93.5 -22c-47.333 0 -83.833 14.5 -109.5 43.5s-38.5 69.167 -38.5 120.5v380h128v-364c0 -30 5.16699 -51.333 15.5 -64s26.833 -19 49.5 -19c40.667 0 76.334 25 107.001 75v372h128v-529z
M216.998 820l210 -125l-37 -65l-225 90z" />
    <glyph glyph-name="uacute" unicode="&#xfa;" horiz-adv-x="577" 
d="M500 0h-111.002l-7 74c-19.333 -30 -42.166 -52.333 -68.499 -67s-57.5 -22 -93.5 -22c-47.333 0 -83.833 14.5 -109.5 43.5s-38.5 69.167 -38.5 120.5v380h128v-364c0 -30 5.16699 -51.333 15.5 -64s26.833 -19 49.5 -19c40.667 0 76.334 25 107.001 75v372h128v-529z
M361.998 820l52 -100l-226 -90l-36 65z" />
    <glyph glyph-name="ucircumflex" unicode="&#xfb;" horiz-adv-x="577" 
d="M500 0h-111.002l-7 74c-19.333 -30 -42.166 -52.333 -68.499 -67s-57.5 -22 -93.5 -22c-47.333 0 -83.833 14.5 -109.5 43.5s-38.5 69.167 -38.5 120.5v380h128v-364c0 -30 5.16699 -51.333 15.5 -64s26.833 -19 49.5 -19c40.667 0 76.334 25 107.001 75v372h128v-529z
M155.998 627l-49 55l138 126h81l139 -126l-49 -55l-130 88z" />
    <glyph glyph-name="udieresis" unicode="&#xfc;" horiz-adv-x="577" 
d="M500 0h-111.002l-7 74c-19.333 -30 -42.166 -52.333 -68.499 -67s-57.5 -22 -93.5 -22c-47.333 0 -83.833 14.5 -109.5 43.5s-38.5 69.167 -38.5 120.5v380h128v-364c0 -30 5.16699 -51.333 15.5 -64s26.833 -19 49.5 -19c40.667 0 76.334 25 107.001 75v372h128v-529z
M223.998 765c13.333 -13.333 20 -29.666 20 -48.999s-6.66699 -35.666 -20 -48.999s-29.666 -20 -48.999 -20c-20 0 -36.833 6.66699 -50.5 20s-20.5 29.666 -20.5 48.999s6.83301 35.666 20.5 48.999s30.5 20 50.5 20c19.333 0 35.666 -6.66699 48.999 -20zM445.998 765
c13.333 -13.333 20 -29.666 20 -48.999s-6.66699 -35.666 -20 -48.999s-30 -20 -50 -20c-19.333 0 -35.833 6.66699 -49.5 20s-20.5 29.666 -20.5 48.999s6.83301 35.666 20.5 48.999s30.167 20 49.5 20c20 0 36.667 -6.66699 50 -20z" />
    <glyph glyph-name="yacute" unicode="&#xfd;" horiz-adv-x="506" 
d="M333 -2c-21.333 -65.333 -53.6689 -116.167 -97.002 -152.5s-102.666 -57.5 -177.999 -63.5l-13 93c34.667 5.33301 62.5 12.833 83.5 22.5s37.833 22.5 50.5 38.5s24.334 37.333 35.001 64h-44l-168 529h136l115 -444l120 444h132zM328.997 819.999l52 -100l-226 -90
l-36 65z" />
    <glyph glyph-name="thorn" unicode="&#xfe;" horiz-adv-x="596" 
d="M498.5 471c32.333 -48.667 48.501 -117 48.501 -205c0 -54.667 -8.16699 -103.167 -24.5 -145.5s-40.333 -75.5 -72 -99.5s-69.167 -36 -112.5 -36c-56 0 -100.333 19.333 -133 58v-244l-128 -17v959l128 14v-282c19.333 24 41.5 41.833 66.5 53.5s50.833 17.5 77.5 17.5
c67.333 0 117.166 -24.333 149.499 -73zM413.001 265c0 65.333 -8.50098 112.167 -25.501 140.5s-42.5 42.5 -76.5 42.5c-20.667 0 -40.167 -6.5 -58.5 -19.5s-34.166 -30.5 -47.499 -52.5v-238c24.667 -36.667 57 -55 97 -55c74 0 111 60.667 111 182z" />
    <glyph glyph-name="ydieresis" unicode="&#xff;" horiz-adv-x="506" 
d="M333 -2c-21.333 -65.333 -53.6689 -116.167 -97.002 -152.5s-102.666 -57.5 -177.999 -63.5l-13 93c34.667 5.33301 62.5 12.833 83.5 22.5s37.833 22.5 50.5 38.5s24.334 37.333 35.001 64h-44l-168 529h136l115 -444l120 444h132zM190.997 764.999
c13.333 -13.333 20 -29.666 20 -48.999s-6.66699 -35.666 -20 -48.999s-29.666 -20 -48.999 -20c-20 0 -36.833 6.66699 -50.5 20s-20.5 29.666 -20.5 48.999s6.83301 35.666 20.5 48.999s30.5 20 50.5 20c19.333 0 35.666 -6.66699 48.999 -20zM412.997 764.999
c13.333 -13.333 20 -29.666 20 -48.999s-6.66699 -35.666 -20 -48.999s-30 -20 -50 -20c-19.333 0 -35.833 6.66699 -49.5 20s-20.5 29.666 -20.5 48.999s6.83301 35.666 20.5 48.999s30.167 20 49.5 20c20 0 36.667 -6.66699 50 -20z" />
    <glyph glyph-name="Amacron" unicode="&#x100;" horiz-adv-x="583" 
d="M447 0l-43 160h-229l-43 -160h-137l215 691h163l214 -691h-140zM201 260h176l-88 330zM437 787h-291v91h291v-91z" />
    <glyph glyph-name="amacron" unicode="&#x101;" horiz-adv-x="546" 
d="M477.5 94.5c6.33301 -9.66699 16.5029 -17.165 30.5029 -22.498l-27 -85c-30 2.66699 -54.5 10 -73.5 22s-33.5 30.333 -43.5 55c-18 -26.667 -40.5 -46.5 -67.5 -59.5s-57.167 -19.5 -90.5 -19.5c-52.667 0 -94.334 15 -125.001 45s-46 69.333 -46 118
c0 57.333 20.833 101.166 62.5 131.499s101.167 45.5 178.5 45.5h66v30c0 34 -7.83301 57.833 -23.5 71.5s-40.834 20.5 -75.501 20.5c-38.667 0 -85.334 -9.33301 -140.001 -28l-30 87c66 25.333 130 38 192 38c135.333 0 203 -60.667 203 -182v-222
c0 -20.667 3.16699 -35.834 9.5 -45.501zM342.003 143.002l-0.000976562 107h-53c-82.667 0 -124 -30.667 -124 -92c0 -25.333 6.33301 -45 19 -59s31.334 -21 56.001 -21c43.333 0 77.333 21.667 102 65zM411.002 661.002h-291v91h291v-91z" />
    <glyph glyph-name="Abreve" unicode="&#x102;" horiz-adv-x="583" 
d="M447 0l-43 160h-229l-43 -160h-137l215 691h163l214 -691h-140zM201 260h176l-88 330zM179 795c-29.333 27.333 -46.002 61.666 -50.002 102.999l75 15c6.66699 -20.667 17.334 -37 32.001 -49s33 -18 55 -18s40.667 6 56 18s26 28.333 32 49l76 -15
c-4 -41.333 -20.833 -75.666 -50.5 -102.999s-67.5 -41 -113.5 -41c-45.333 0 -82.666 13.667 -111.999 41z" />
    <glyph glyph-name="abreve" unicode="&#x103;" horiz-adv-x="546" 
d="M477.5 94.5c6.33301 -9.66699 16.5029 -17.165 30.5029 -22.498l-27 -85c-30 2.66699 -54.5 10 -73.5 22s-33.5 30.333 -43.5 55c-18 -26.667 -40.5 -46.5 -67.5 -59.5s-57.167 -19.5 -90.5 -19.5c-52.667 0 -94.334 15 -125.001 45s-46 69.333 -46 118
c0 57.333 20.833 101.166 62.5 131.499s101.167 45.5 178.5 45.5h66v30c0 34 -7.83301 57.833 -23.5 71.5s-40.834 20.5 -75.501 20.5c-38.667 0 -85.334 -9.33301 -140.001 -28l-30 87c66 25.333 130 38 192 38c135.333 0 203 -60.667 203 -182v-222
c0 -20.667 3.16699 -35.834 9.5 -45.501zM342.003 143.002l-0.000976562 107h-53c-82.667 0 -124 -30.667 -124 -92c0 -25.333 6.33301 -45 19 -59s31.334 -21 56.001 -21c43.333 0 77.333 21.667 102 65zM152.502 680.002c-29 28.667 -45.5 66 -49.5 112l75 14
c13.333 -51.333 42.333 -77 87 -77c22.667 0 41.5 6.66699 56.5 20s25.5 32.333 31.5 57l76 -14c-4 -46 -20.833 -83.333 -50.5 -112s-67.5 -43 -113.5 -43s-83.5 14.333 -112.5 43z" />
    <glyph glyph-name="Aogonek" unicode="&#x104;" horiz-adv-x="583" 
d="M428 -54c-17.333 -17.333 -26 -35.333 -26 -54c0 -30.667 18.333 -46 55 -46c18 0 38.333 2.33301 61 7l-10 -85c-24.667 -4.66699 -47 -7 -67 -7c-40.667 0 -73.667 10 -99 30s-38 46.333 -38 79c0 34 11.5 63.333 34.5 88s57.167 46 102.5 64l-37 138h-229l-43 -160
h-137l215 691h163l214 -691h-64c-46 -18.667 -77.667 -36.667 -95 -54zM201 260h176l-88 330z" />
    <glyph glyph-name="aogonek" unicode="&#x105;" horiz-adv-x="546" 
d="M386 -67c-17.333 -17.333 -25.9971 -35.332 -25.9971 -53.999c0 -30.667 18.333 -46 55 -46c18 0 38.333 2.33301 61 7l-10 -85c-24.667 -4.66699 -47 -7 -67 -7c-40.667 0 -73.667 10 -99 30s-38 46.333 -38 79c0 66 47.333 117.333 142 154
c-18 12.667 -31.333 30.334 -40 53.001c-18 -26.667 -40.5 -46.5 -67.5 -59.5s-57.167 -19.5 -90.5 -19.5c-52.667 0 -94.334 15 -125.001 45s-46 69.333 -46 118c0 57.333 20.833 101.166 62.5 131.499s101.167 45.5 178.5 45.5h66v30c0 34 -7.83301 57.833 -23.5 71.5
s-40.834 20.5 -75.501 20.5c-38.667 0 -85.334 -9.33301 -140.001 -28l-30 87c66 25.333 130 38 192 38c135.333 0 203 -60.667 203 -182v-222c0 -20.667 3.16699 -35.834 9.5 -45.501s16.5 -17.167 30.5 -22.5l-27 -85c-46 -18.667 -77.667 -36.667 -95 -54z
M342.003 143.001l-0.000976562 107h-53c-82.667 0 -124 -30.667 -124 -92c0 -25.333 6.33301 -45 19 -59s31.334 -21 56.001 -21c43.333 0 77.333 21.667 102 65z" />
    <glyph glyph-name="Cacute" unicode="&#x106;" horiz-adv-x="568" 
d="M455 688c31.333 -12 62.002 -30.333 92.002 -55l-67 -78c-40.667 32.667 -83.334 49 -128.001 49c-51.333 0 -92.5 -20.667 -123.5 -62s-46.5 -106.333 -46.5 -195c0 -86.667 15.333 -151 46 -193s72 -63 124 -63c27.333 0 51.666 4.83301 72.999 14.5s44 23.5 68 41.5
l62 -78c-23.333 -24 -52.833 -44 -88.5 -60s-75.5 -24 -119.5 -24c-60 0 -113 14 -159 42s-81.667 69.167 -107 123.5s-38 119.833 -38 196.5c0 75.333 13.167 140 39.5 194s62.333 95 108 123s97.167 42 154.5 42c42 0 78.667 -6 110 -18zM432.002 936l50 -100l-229 -83
l-33 66z" />
    <glyph glyph-name="cacute" unicode="&#x107;" horiz-adv-x="478" 
d="M383.5 529c27.667 -10 53.8311 -25.666 78.498 -46.999l-57 -77c-18 13.333 -35.333 23 -52 29s-35 9 -55 9c-79.333 0 -119 -60.333 -119 -181c0 -61.333 10.333 -105.5 31 -132.5s50 -40.5 88 -40.5c18.667 0 35.834 3 51.501 9s34.167 15.667 55.5 29l57 -81
c-50 -40.667 -107 -61 -171 -61c-50.667 0 -94.667 11.167 -132 33.5s-66 54.166 -86 95.499s-30 90 -30 146s10 105.5 30 148.5s48.667 76.333 86 100s81 35.5 131 35.5c34.667 0 65.834 -5 93.501 -15zM365.997 820.001l52 -100l-226 -90l-36 65z" />
    <glyph glyph-name="Ccircumflex" unicode="&#x108;" horiz-adv-x="568" 
d="M455 688c31.333 -12 62.002 -30.333 92.002 -55l-67 -78c-40.667 32.667 -83.334 49 -128.001 49c-51.333 0 -92.5 -20.667 -123.5 -62s-46.5 -106.333 -46.5 -195c0 -86.667 15.333 -151 46 -193s72 -63 124 -63c27.333 0 51.666 4.83301 72.999 14.5s44 23.5 68 41.5
l62 -78c-23.333 -24 -52.833 -44 -88.5 -60s-75.5 -24 -119.5 -24c-60 0 -113 14 -159 42s-81.667 69.167 -107 123.5s-38 119.833 -38 196.5c0 75.333 13.167 140 39.5 194s62.333 95 108 123s97.167 42 154.5 42c42 0 78.667 -6 110 -18zM220.002 757l-49 55l139 121h80
l139 -121l-49 -55l-130 82z" />
    <glyph glyph-name="ccircumflex" unicode="&#x109;" horiz-adv-x="478" 
d="M383.5 529c27.667 -10 53.8311 -25.666 78.498 -46.999l-57 -77c-18 13.333 -35.333 23 -52 29s-35 9 -55 9c-79.333 0 -119 -60.333 -119 -181c0 -61.333 10.333 -105.5 31 -132.5s50 -40.5 88 -40.5c18.667 0 35.834 3 51.501 9s34.167 15.667 55.5 29l57 -81
c-50 -40.667 -107 -61 -171 -61c-50.667 0 -94.667 11.167 -132 33.5s-66 54.166 -86 95.499s-30 90 -30 146s10 105.5 30 148.5s48.667 76.333 86 100s81 35.5 131 35.5c34.667 0 65.834 -5 93.501 -15zM159.997 627.001l-49 55l138 126h81l139 -126l-49 -55l-130 88z" />
    <glyph glyph-name="Cdotaccent" unicode="&#x10a;" horiz-adv-x="568" 
d="M455 688c31.333 -12 62.002 -30.333 92.002 -55l-67 -78c-40.667 32.667 -83.334 49 -128.001 49c-51.333 0 -92.5 -20.667 -123.5 -62s-46.5 -106.333 -46.5 -195c0 -86.667 15.333 -151 46 -193s72 -63 124 -63c27.333 0 51.666 4.83301 72.999 14.5s44 23.5 68 41.5
l62 -78c-23.333 -24 -52.833 -44 -88.5 -60s-75.5 -24 -119.5 -24c-60 0 -113 14 -159 42s-81.667 69.167 -107 123.5s-38 119.833 -38 196.5c0 75.333 13.167 140 39.5 194s62.333 95 108 123s97.167 42 154.5 42c42 0 78.667 -6 110 -18zM408.502 900.5
c15 -15 22.5 -33.5 22.5 -55.5s-7.5 -40.333 -22.5 -55s-34.5 -22 -58.5 -22c-23.333 0 -42.5 7.33301 -57.5 22s-22.5 33 -22.5 55s7.5 40.5 22.5 55.5s34.167 22.5 57.5 22.5c24 0 43.5 -7.5 58.5 -22.5z" />
    <glyph glyph-name="cdotaccent" unicode="&#x10b;" horiz-adv-x="478" 
d="M383.5 529c27.667 -10 53.8311 -25.666 78.498 -46.999l-57 -77c-18 13.333 -35.333 23 -52 29s-35 9 -55 9c-79.333 0 -119 -60.333 -119 -181c0 -61.333 10.333 -105.5 31 -132.5s50 -40.5 88 -40.5c18.667 0 35.834 3 51.501 9s34.167 15.667 55.5 29l57 -81
c-50 -40.667 -107 -61 -171 -61c-50.667 0 -94.667 11.167 -132 33.5s-66 54.166 -86 95.499s-30 90 -30 146s10 105.5 30 148.5s48.667 76.333 86 100s81 35.5 131 35.5c34.667 0 65.834 -5 93.501 -15zM347.497 774.501c15 -15 22.5 -33.5 22.5 -55.5
s-7.5 -40.333 -22.5 -55s-34.5 -22 -58.5 -22c-23.333 0 -42.5 7.33301 -57.5 22s-22.5 33 -22.5 55s7.5 40.5 22.5 55.5s34.167 22.5 57.5 22.5c24 0 43.5 -7.5 58.5 -22.5z" />
    <glyph glyph-name="Ccaron" unicode="&#x10c;" horiz-adv-x="568" 
d="M455 688c31.333 -12 62.002 -30.333 92.002 -55l-67 -78c-40.667 32.667 -83.334 49 -128.001 49c-51.333 0 -92.5 -20.667 -123.5 -62s-46.5 -106.333 -46.5 -195c0 -86.667 15.333 -151 46 -193s72 -63 124 -63c27.333 0 51.666 4.83301 72.999 14.5s44 23.5 68 41.5
l62 -78c-23.333 -24 -52.833 -44 -88.5 -60s-75.5 -24 -119.5 -24c-60 0 -113 14 -159 42s-81.667 69.167 -107 123.5s-38 119.833 -38 196.5c0 75.333 13.167 140 39.5 194s62.333 95 108 123s97.167 42 154.5 42c42 0 78.667 -6 110 -18zM481.002 928l49 -56l-139 -120
h-80l-139 120l49 56l130 -83z" />
    <glyph glyph-name="ccaron" unicode="&#x10d;" horiz-adv-x="478" 
d="M383.5 529c27.667 -10 53.8311 -25.666 78.498 -46.999l-57 -77c-18 13.333 -35.333 23 -52 29s-35 9 -55 9c-79.333 0 -119 -60.333 -119 -181c0 -61.333 10.333 -105.5 31 -132.5s50 -40.5 88 -40.5c18.667 0 35.834 3 51.501 9s34.167 15.667 55.5 29l57 -81
c-50 -40.667 -107 -61 -171 -61c-50.667 0 -94.667 11.167 -132 33.5s-66 54.166 -86 95.499s-30 90 -30 146s10 105.5 30 148.5s48.667 76.333 86 100s81 35.5 131 35.5c34.667 0 65.834 -5 93.501 -15zM419.997 800.001l49 -56l-139 -125h-80l-139 125l49 56l130 -88z" />
    <glyph glyph-name="Dcaron" unicode="&#x10e;" horiz-adv-x="648" 
d="M508.5 618c64.333 -48.667 96.5 -138.333 96.5 -269c0 -128 -31.667 -218.167 -95 -270.5s-143.666 -78.5 -240.999 -78.5h-188v691h170c107.333 0 193.166 -24.333 257.499 -73zM213 592.001l0.000976562 -493.001h65c58.667 0 104.667 18.167 138 54.5
s50 101.5 50 195.5c0 65.333 -8.5 115.833 -25.5 151.5s-39.333 59.834 -67 72.501s-60.834 19 -99.501 19h-61zM429.001 928l49 -56l-139 -120h-80l-139 120l49 56l130 -83z" />
    <glyph glyph-name="dcaron" unicode="&#x10f;" horiz-adv-x="646" 
d="M522 741l0.00390625 -741h-113l-9 67c-16.667 -25.333 -37.834 -45.333 -63.501 -60s-54.834 -22 -87.501 -22c-64.667 0 -114.334 25 -149.001 75s-52 118 -52 204c0 54 8.66699 102.167 26 144.5s42.166 75.5 74.499 99.5s69.833 36 112.5 36c50.667 0 95 -19 133 -57
v268zM345.004 98.5c17.333 11 33.6689 28.165 49.002 51.498v242c-15.333 18.667 -30.833 32.667 -46.5 42s-33.834 14 -54.501 14c-34 0 -60.833 -15.167 -80.5 -45.5s-29.5 -76.166 -29.5 -137.499c0 -65.333 8.66699 -112.166 26 -140.499s42.666 -42.5 75.999 -42.5
c22.667 0 42.667 5.5 60 16.5zM635.007 539.998l53 201l-103 14l-21 -204z" />
    <glyph glyph-name="Dcroat" unicode="&#x110;" horiz-adv-x="661" 
d="M521.5 618c64.333 -48.667 96.5 -138.333 96.5 -269c0 -128 -31.667 -218.167 -95 -270.5s-143.666 -78.5 -240.999 -78.5h-188v310h-77v86h77v295h170c107.333 0 193.166 -24.333 257.499 -73zM429 153.501c33.333 36.333 50.001 101.499 50.001 195.499
c0 65.333 -8.5 115.833 -25.5 151.5s-39.333 59.834 -67 72.501s-60.834 19 -99.501 19h-61v-196h145v-86h-145v-211h65c58.667 0 104.667 18.167 138 54.5z" />
    <glyph glyph-name="dcroat" unicode="&#x111;" horiz-adv-x="606" 
d="M592 683l0.00390625 -82h-70v-601h-113l-9 67c-16.667 -25.333 -37.834 -45.333 -63.501 -60s-54.834 -22 -87.501 -22c-64.667 0 -114.334 25 -149.001 75s-52 118 -52 204c0 54 8.66699 102.167 26 144.5s42.166 75.5 74.499 99.5s69.833 36 112.5 36
c50.667 0 95 -19 133 -57v114h-146v82h146v72l128 -14v-58h70zM345.004 98.5c17.333 11 33.6689 28.165 49.002 51.498v242c-15.333 18.667 -30.833 32.667 -46.5 42s-33.834 14 -54.501 14c-34 0 -60.833 -15.167 -80.5 -45.5s-29.5 -76.166 -29.5 -137.499
c0 -65.333 8.66699 -112.166 26 -140.499s42.666 -42.5 75.999 -42.5c22.667 0 42.667 5.5 60 16.5z" />
    <glyph glyph-name="Emacron" unicode="&#x112;" horiz-adv-x="530" 
d="M482 691l-14 -98h-255v-193h222v-98h-222v-203h273v-99h-405v691h401zM429 787h-291v91h291v-91z" />
    <glyph glyph-name="emacron" unicode="&#x113;" horiz-adv-x="549" 
d="M508 225l-331.999 0.000976562c4 -51.333 17.333 -88 40 -110s52.667 -33 90 -33c23.333 0 45.333 3.83301 66 11.5s42.667 19.5 66 35.5l53 -73c-58.667 -47.333 -124 -71 -196 -71c-80.667 0 -142.834 24.667 -186.501 74s-65.5 116.666 -65.5 201.999
c0 54 9.33301 102.5 28 145.5s45.667 76.667 81 101s77.333 36.5 126 36.5c74 0 131.333 -23.5 172 -70.5s61 -112.5 61 -196.5c0 -6.66699 -1 -24 -3 -52zM384.001 314.001c0 92.667 -34.333 139 -103 139c-31.333 0 -55.833 -11.5 -73.5 -34.5
s-28.167 -59.833 -31.5 -110.5h208v6zM426.001 661.001h-291v91h291v-91z" />
    <glyph glyph-name="Ebreve" unicode="&#x114;" horiz-adv-x="530" 
d="M482 691l-14 -98h-255v-193h222v-98h-222v-203h273v-99h-405v691h401zM171 795c-29.333 27.333 -46.002 61.666 -50.002 102.999l75 15c6.66699 -20.667 17.334 -37 32.001 -49s33 -18 55 -18s40.667 6 56 18s26 28.333 32 49l76 -15
c-4 -41.333 -20.833 -75.666 -50.5 -102.999s-67.5 -41 -113.5 -41c-45.333 0 -82.666 13.667 -111.999 41z" />
    <glyph glyph-name="ebreve" unicode="&#x115;" horiz-adv-x="549" 
d="M508 225l-331.999 0.000976562c4 -51.333 17.333 -88 40 -110s52.667 -33 90 -33c23.333 0 45.333 3.83301 66 11.5s42.667 19.5 66 35.5l53 -73c-58.667 -47.333 -124 -71 -196 -71c-80.667 0 -142.834 24.667 -186.501 74s-65.5 116.666 -65.5 201.999
c0 54 9.33301 102.5 28 145.5s45.667 76.667 81 101s77.333 36.5 126 36.5c74 0 131.333 -23.5 172 -70.5s61 -112.5 61 -196.5c0 -6.66699 -1 -24 -3 -52zM384.001 314.001c0 92.667 -34.333 139 -103 139c-31.333 0 -55.833 -11.5 -73.5 -34.5
s-28.167 -59.833 -31.5 -110.5h208v6zM167.501 680.001c-29 28.667 -45.5 66 -49.5 112l75 14c13.333 -51.333 42.333 -77 87 -77c22.667 0 41.5 6.66699 56.5 20s25.5 32.333 31.5 57l76 -14c-4 -46 -20.833 -83.333 -50.5 -112s-67.5 -43 -113.5 -43
s-83.5 14.333 -112.5 43z" />
    <glyph glyph-name="Edotaccent" unicode="&#x116;" horiz-adv-x="530" 
d="M482 691l-14 -98h-255v-193h222v-98h-222v-203h273v-99h-405v691h401zM341.5 900.5c15 -15 22.5 -33.5 22.5 -55.5s-7.5 -40.333 -22.5 -55s-34.5 -22 -58.5 -22c-23.333 0 -42.5 7.33301 -57.5 22s-22.5 33 -22.5 55s7.5 40.5 22.5 55.5s34.167 22.5 57.5 22.5
c24 0 43.5 -7.5 58.5 -22.5z" />
    <glyph glyph-name="edotaccent" unicode="&#x117;" horiz-adv-x="549" 
d="M508 225l-331.999 0.000976562c4 -51.333 17.333 -88 40 -110s52.667 -33 90 -33c23.333 0 45.333 3.83301 66 11.5s42.667 19.5 66 35.5l53 -73c-58.667 -47.333 -124 -71 -196 -71c-80.667 0 -142.834 24.667 -186.501 74s-65.5 116.666 -65.5 201.999
c0 54 9.33301 102.5 28 145.5s45.667 76.667 81 101s77.333 36.5 126 36.5c74 0 131.333 -23.5 172 -70.5s61 -112.5 61 -196.5c0 -6.66699 -1 -24 -3 -52zM384.001 314.001c0 92.667 -34.333 139 -103 139c-31.333 0 -55.833 -11.5 -73.5 -34.5
s-28.167 -59.833 -31.5 -110.5h208v6zM338.501 774.501c15 -15 22.5 -33.5 22.5 -55.5s-7.5 -40.333 -22.5 -55s-34.5 -22 -58.5 -22c-23.333 0 -42.5 7.33301 -57.5 22s-22.5 33 -22.5 55s7.5 40.5 22.5 55.5s34.167 22.5 57.5 22.5c24 0 43.5 -7.5 58.5 -22.5z" />
    <glyph glyph-name="Eogonek" unicode="&#x118;" horiz-adv-x="530" 
d="M486 99v-98.999h-40c-46 -18.667 -77.667 -36.667 -95 -54s-26 -35.333 -26 -54c0 -30.667 18.333 -46 55 -46c18 0 38.333 2.33301 61 7l-10 -85c-24.667 -4.66699 -47 -7 -67 -7c-40.667 0 -73.667 10 -99 30s-38 46.333 -38 79c0 53.333 30 96.666 90 129.999h-236
v691h401l-14 -98h-255v-193h222v-98h-222v-203h273z" />
    <glyph glyph-name="eogonek" unicode="&#x119;" horiz-adv-x="549" 
d="M508 225l-331.999 -0.000976562c4 -51.333 17.333 -88 40 -110s52.667 -33 90 -33c23.333 0 45.333 3.83301 66 11.5s42.667 19.5 66 35.5l53 -73c-33.333 -26.667 -68.333 -45.667 -105 -57c-37.333 -17.333 -63 -34 -77 -50s-21 -32.333 -21 -49
c0 -30.667 18 -46 54 -46c19.333 0 39.666 2.33301 60.999 7l-10 -85c-24.667 -4.66699 -47 -7 -67 -7c-40.667 0 -73.667 10 -99 30s-38 46.333 -38 79c0 45.333 24.667 81.333 74 108c-70.667 6.66699 -125 34.334 -163 83.001s-57 112.667 -57 192
c0 54 9.33301 102.5 28 145.5s45.667 76.667 81 101s77.333 36.5 126 36.5c74 0 131.333 -23.5 172 -70.5s61 -112.5 61 -196.5c0 -6.66699 -1 -24 -3 -52zM384.001 313.999c0 92.667 -34.333 139 -103 139c-31.333 0 -55.833 -11.5 -73.5 -34.5
s-28.167 -59.833 -31.5 -110.5h208v6z" />
    <glyph glyph-name="Ecaron" unicode="&#x11a;" horiz-adv-x="530" 
d="M482 691l-14 -98h-255v-193h222v-98h-222v-203h273v-99h-405v691h401zM414 928l49 -56l-139 -120h-80l-139 120l49 56l130 -83z" />
    <glyph glyph-name="ecaron" unicode="&#x11b;" horiz-adv-x="549" 
d="M508 225l-331.999 0.000976562c4 -51.333 17.333 -88 40 -110s52.667 -33 90 -33c23.333 0 45.333 3.83301 66 11.5s42.667 19.5 66 35.5l53 -73c-58.667 -47.333 -124 -71 -196 -71c-80.667 0 -142.834 24.667 -186.501 74s-65.5 116.666 -65.5 201.999
c0 54 9.33301 102.5 28 145.5s45.667 76.667 81 101s77.333 36.5 126 36.5c74 0 131.333 -23.5 172 -70.5s61 -112.5 61 -196.5c0 -6.66699 -1 -24 -3 -52zM384.001 314.001c0 92.667 -34.333 139 -103 139c-31.333 0 -55.833 -11.5 -73.5 -34.5
s-28.167 -59.833 -31.5 -110.5h208v6zM411.001 800.001l49 -56l-139 -125h-80l-139 125l49 56l130 -88z" />
    <glyph glyph-name="Gcircumflex" unicode="&#x11c;" horiz-adv-x="638" 
d="M480.5 685.5c35 -13.667 68.1689 -33.832 99.502 -60.499l-71 -74c-24.667 19.333 -47.834 33.333 -69.501 42s-46.834 13 -75.501 13c-53.333 0 -97 -21.333 -131 -64s-51 -108 -51 -196c0 -92 13.5 -158.333 40.5 -199s68.167 -61 123.5 -61c42 0 78.667 9 110 27v180
h-104l-14 98h248v-338c-74.667 -45.333 -154 -68 -238 -68c-98.667 0 -174.167 30.667 -226.5 92s-78.5 151 -78.5 269c0 75.333 14.167 140.166 42.5 194.499s66.5 95.5 114.5 123.5s101.333 42 160 42c45.333 0 85.5 -6.83301 120.5 -20.5zM222.002 757.002l-49 55
l139 121h80l139 -121l-49 -55l-130 82z" />
    <glyph glyph-name="gcircumflex" unicode="&#x11d;" horiz-adv-x="537" 
d="M537 501c-34 -12 -85.0039 -17.9971 -153.004 -17.9971c32.667 -14.667 56.834 -32.834 72.501 -54.501s23.5 -48.834 23.5 -81.501c0 -34.667 -8.5 -65.334 -25.5 -92.001s-41.667 -47.667 -74 -63s-70.166 -23 -113.499 -23c-24 0 -45 2.66699 -63 8
c-14.667 -10 -22 -23 -22 -39c0 -24.667 21.333 -37 64 -37h81c38.667 0 72.5 -6.33301 101.5 -19s51.5 -30.5 67.5 -53.5s24 -48.833 24 -77.5c0 -53.333 -22.667 -94.833 -68 -124.5s-110.666 -44.5 -195.999 -44.5c-61.333 0 -109.5 6.33301 -144.5 19
s-59.833 31 -74.5 55s-22 54.667 -22 92h115c0 -18.667 3.5 -33.334 10.5 -44.001s19.667 -18.667 38 -24s44.833 -8 79.5 -8c48.667 0 83 6 103 18s30 29.333 30 52c0 20 -7.66699 35.5 -23 46.5s-37.666 16.5 -66.999 16.5h-80c-50 0 -87.667 9.66699 -113 29
s-38 43.666 -38 72.999c0 18.667 5.5 36.667 16.5 54s26.167 32 45.5 44c-32 16.667 -55.5 37.167 -70.5 61.5s-22.5 53.5 -22.5 87.5c0 38 9.33301 71.333 28 100s44.5 50.834 77.5 66.501s70.833 23.5 113.5 23.5c56 -1.33301 101.167 2.83398 135.5 12.501
s71.5 25.167 111.5 46.5zM192.496 429.503c-16.333 -18.333 -24.5 -42.832 -24.5 -73.499c0 -32 8.33301 -57.333 25 -76s39.667 -28 69 -28c30.667 0 54 9.16699 70 27.5s24 44.166 24 77.499c0 66.667 -32 100 -96 100c-28.667 0 -51.167 -9.16699 -67.5 -27.5z
M137.996 627.004l-49 55l138 126h81l139 -126l-49 -55l-130 88z" />
    <glyph glyph-name="Gbreve" unicode="&#x11e;" horiz-adv-x="638" 
d="M480.5 685.5c35 -13.667 68.1689 -33.832 99.502 -60.499l-71 -74c-24.667 19.333 -47.834 33.333 -69.501 42s-46.834 13 -75.501 13c-53.333 0 -97 -21.333 -131 -64s-51 -108 -51 -196c0 -92 13.5 -158.333 40.5 -199s68.167 -61 123.5 -61c42 0 78.667 9 110 27v180
h-104l-14 98h248v-338c-74.667 -45.333 -154 -68 -238 -68c-98.667 0 -174.167 30.667 -226.5 92s-78.5 151 -78.5 269c0 75.333 14.167 140.166 42.5 194.499s66.5 95.5 114.5 123.5s101.333 42 160 42c45.333 0 85.5 -6.83301 120.5 -20.5zM240.002 795.002
c-29.333 27.333 -46.002 61.666 -50.002 102.999l75 15c6.66699 -20.667 17.334 -37 32.001 -49s33 -18 55 -18s40.667 6 56 18s26 28.333 32 49l76 -15c-4 -41.333 -20.833 -75.666 -50.5 -102.999s-67.5 -41 -113.5 -41c-45.333 0 -82.666 13.667 -111.999 41z" />
    <glyph glyph-name="gbreve" unicode="&#x11f;" horiz-adv-x="537" 
d="M537 501c-34 -12 -85.0039 -17.9971 -153.004 -17.9971c32.667 -14.667 56.834 -32.834 72.501 -54.501s23.5 -48.834 23.5 -81.501c0 -34.667 -8.5 -65.334 -25.5 -92.001s-41.667 -47.667 -74 -63s-70.166 -23 -113.499 -23c-24 0 -45 2.66699 -63 8
c-14.667 -10 -22 -23 -22 -39c0 -24.667 21.333 -37 64 -37h81c38.667 0 72.5 -6.33301 101.5 -19s51.5 -30.5 67.5 -53.5s24 -48.833 24 -77.5c0 -53.333 -22.667 -94.833 -68 -124.5s-110.666 -44.5 -195.999 -44.5c-61.333 0 -109.5 6.33301 -144.5 19
s-59.833 31 -74.5 55s-22 54.667 -22 92h115c0 -18.667 3.5 -33.334 10.5 -44.001s19.667 -18.667 38 -24s44.833 -8 79.5 -8c48.667 0 83 6 103 18s30 29.333 30 52c0 20 -7.66699 35.5 -23 46.5s-37.666 16.5 -66.999 16.5h-80c-50 0 -87.667 9.66699 -113 29
s-38 43.666 -38 72.999c0 18.667 5.5 36.667 16.5 54s26.167 32 45.5 44c-32 16.667 -55.5 37.167 -70.5 61.5s-22.5 53.5 -22.5 87.5c0 38 9.33301 71.333 28 100s44.5 50.834 77.5 66.501s70.833 23.5 113.5 23.5c56 -1.33301 101.167 2.83398 135.5 12.501
s71.5 25.167 111.5 46.5zM192.496 429.503c-16.333 -18.333 -24.5 -42.832 -24.5 -73.499c0 -32 8.33301 -57.333 25 -76s39.667 -28 69 -28c30.667 0 54 9.16699 70 27.5s24 44.166 24 77.499c0 66.667 -32 100 -96 100c-28.667 0 -51.167 -9.16699 -67.5 -27.5z
M154.496 680.004c-29 28.667 -45.5 66 -49.5 112l75 14c13.333 -51.333 42.333 -77 87 -77c22.667 0 41.5 6.66699 56.5 20s25.5 32.333 31.5 57l76 -14c-4 -46 -20.833 -83.333 -50.5 -112s-67.5 -43 -113.5 -43s-83.5 14.333 -112.5 43z" />
    <glyph glyph-name="Gdotaccent" unicode="&#x120;" horiz-adv-x="638" 
d="M480.5 685.5c35 -13.667 68.1689 -33.832 99.502 -60.499l-71 -74c-24.667 19.333 -47.834 33.333 -69.501 42s-46.834 13 -75.501 13c-53.333 0 -97 -21.333 -131 -64s-51 -108 -51 -196c0 -92 13.5 -158.333 40.5 -199s68.167 -61 123.5 -61c42 0 78.667 9 110 27v180
h-104l-14 98h248v-338c-74.667 -45.333 -154 -68 -238 -68c-98.667 0 -174.167 30.667 -226.5 92s-78.5 151 -78.5 269c0 75.333 14.167 140.166 42.5 194.499s66.5 95.5 114.5 123.5s101.333 42 160 42c45.333 0 85.5 -6.83301 120.5 -20.5zM410.502 900.502
c15 -15 22.5 -33.5 22.5 -55.5s-7.5 -40.333 -22.5 -55s-34.5 -22 -58.5 -22c-23.333 0 -42.5 7.33301 -57.5 22s-22.5 33 -22.5 55s7.5 40.5 22.5 55.5s34.167 22.5 57.5 22.5c24 0 43.5 -7.5 58.5 -22.5z" />
    <glyph glyph-name="gdotaccent" unicode="&#x121;" horiz-adv-x="537" 
d="M537 501c-34 -12 -85.0039 -17.9971 -153.004 -17.9971c32.667 -14.667 56.834 -32.834 72.501 -54.501s23.5 -48.834 23.5 -81.501c0 -34.667 -8.5 -65.334 -25.5 -92.001s-41.667 -47.667 -74 -63s-70.166 -23 -113.499 -23c-24 0 -45 2.66699 -63 8
c-14.667 -10 -22 -23 -22 -39c0 -24.667 21.333 -37 64 -37h81c38.667 0 72.5 -6.33301 101.5 -19s51.5 -30.5 67.5 -53.5s24 -48.833 24 -77.5c0 -53.333 -22.667 -94.833 -68 -124.5s-110.666 -44.5 -195.999 -44.5c-61.333 0 -109.5 6.33301 -144.5 19
s-59.833 31 -74.5 55s-22 54.667 -22 92h115c0 -18.667 3.5 -33.334 10.5 -44.001s19.667 -18.667 38 -24s44.833 -8 79.5 -8c48.667 0 83 6 103 18s30 29.333 30 52c0 20 -7.66699 35.5 -23 46.5s-37.666 16.5 -66.999 16.5h-80c-50 0 -87.667 9.66699 -113 29
s-38 43.666 -38 72.999c0 18.667 5.5 36.667 16.5 54s26.167 32 45.5 44c-32 16.667 -55.5 37.167 -70.5 61.5s-22.5 53.5 -22.5 87.5c0 38 9.33301 71.333 28 100s44.5 50.834 77.5 66.501s70.833 23.5 113.5 23.5c56 -1.33301 101.167 2.83398 135.5 12.501
s71.5 25.167 111.5 46.5zM192.496 429.503c-16.333 -18.333 -24.5 -42.832 -24.5 -73.499c0 -32 8.33301 -57.333 25 -76s39.667 -28 69 -28c30.667 0 54 9.16699 70 27.5s24 44.166 24 77.499c0 66.667 -32 100 -96 100c-28.667 0 -51.167 -9.16699 -67.5 -27.5z
M325.496 774.504c15 -15 22.5 -33.5 22.5 -55.5s-7.5 -40.333 -22.5 -55s-34.5 -22 -58.5 -22c-23.333 0 -42.5 7.33301 -57.5 22s-22.5 33 -22.5 55s7.5 40.5 22.5 55.5s34.167 22.5 57.5 22.5c24 0 43.5 -7.5 58.5 -22.5z" />
    <glyph glyph-name="Gcommaaccent" unicode="&#x122;" horiz-adv-x="638" 
d="M480.5 685.5c35 -13.667 68.1689 -33.832 99.502 -60.499l-71 -74c-24.667 19.333 -47.834 33.333 -69.501 42s-46.834 13 -75.501 13c-53.333 0 -97 -21.333 -131 -64s-51 -108 -51 -196c0 -92 13.5 -158.333 40.5 -199s68.167 -61 123.5 -61c42 0 78.667 9 110 27v180
h-104l-14 98h248v-338c-74.667 -45.333 -154 -68 -238 -68c-98.667 0 -174.167 30.667 -226.5 92s-78.5 151 -78.5 269c0 75.333 14.167 140.166 42.5 194.499s66.5 95.5 114.5 123.5s101.333 42 160 42c45.333 0 85.5 -6.83301 120.5 -20.5zM396.002 -91.498
c13.333 -13 20.002 -29.168 20.002 -48.501c0 -10.667 -1.83301 -21.5 -5.5 -32.5s-10.834 -27.167 -21.501 -48.5l-44 -91h-67l28 116c-19.333 14.667 -29 33.334 -29 56.001c0 19.333 6.66699 35.5 20 48.5s30 19.5 50 19.5c19.333 0 35.666 -6.5 48.999 -19.5z" />
    <glyph glyph-name="gcommaaccent" unicode="&#x123;" horiz-adv-x="537" 
d="M537 501c-34 -12 -85.0039 -17.9971 -153.004 -17.9971c32.667 -14.667 56.834 -32.834 72.501 -54.501s23.5 -48.834 23.5 -81.501c0 -34.667 -8.5 -65.334 -25.5 -92.001s-41.667 -47.667 -74 -63s-70.166 -23 -113.499 -23c-24 0 -45 2.66699 -63 8
c-14.667 -10 -22 -23 -22 -39c0 -24.667 21.333 -37 64 -37h81c38.667 0 72.5 -6.33301 101.5 -19s51.5 -30.5 67.5 -53.5s24 -48.833 24 -77.5c0 -53.333 -22.667 -94.833 -68 -124.5s-110.666 -44.5 -195.999 -44.5c-61.333 0 -109.5 6.33301 -144.5 19
s-59.833 31 -74.5 55s-22 54.667 -22 92h115c0 -18.667 3.5 -33.334 10.5 -44.001s19.667 -18.667 38 -24s44.833 -8 79.5 -8c48.667 0 83 6 103 18s30 29.333 30 52c0 20 -7.66699 35.5 -23 46.5s-37.666 16.5 -66.999 16.5h-80c-50 0 -87.667 9.66699 -113 29
s-38 43.666 -38 72.999c0 18.667 5.5 36.667 16.5 54s26.167 32 45.5 44c-32 16.667 -55.5 37.167 -70.5 61.5s-22.5 53.5 -22.5 87.5c0 38 9.33301 71.333 28 100s44.5 50.834 77.5 66.501s70.833 23.5 113.5 23.5c56 -1.33301 101.167 2.83398 135.5 12.501
s71.5 25.167 111.5 46.5zM192.496 429.503c-16.333 -18.333 -24.5 -42.832 -24.5 -73.499c0 -32 8.33301 -57.333 25 -76s39.667 -28 69 -28c30.667 0 54 9.16699 70 27.5s24 44.166 24 77.499c0 66.667 -32 100 -96 100c-28.667 0 -51.167 -9.16699 -67.5 -27.5z
M217.996 599.504c-13.333 13 -20.002 29.168 -20.002 48.501c0 10.667 1.83301 21.5 5.5 32.5s10.834 27.167 21.501 48.5l44 91h67l-28 -116c19.333 -14.667 29 -33.334 29 -56.001c0 -19.333 -6.66699 -35.5 -20 -48.5s-30 -19.5 -50 -19.5
c-19.333 0 -35.666 6.5 -48.999 19.5z" />
    <glyph glyph-name="Hcircumflex" unicode="&#x124;" horiz-adv-x="672" 
d="M459 0v309h-246v-309h-132v691h132v-277h246v277h133v-691h-133zM205 757l-49 55l139 121h80l139 -121l-49 -55l-130 82z" />
    <glyph glyph-name="hcircumflex" unicode="&#x125;" horiz-adv-x="581" 
d="M469 501c26.667 -28.667 39.999 -68 39.999 -118v-383h-128v363c0 31.333 -5.5 53.333 -16.5 66s-27.167 19 -48.5 19s-41 -6.83301 -59 -20.5s-35.333 -33.167 -52 -58.5v-369h-128v740l128 13v-287c42.667 52 94 78 154 78c46.667 0 83.334 -14.333 110.001 -43z
M158.999 807l-49 55l139 121h80l139 -121l-49 -55l-130 82z" />
    <glyph glyph-name="Hbar" unicode="&#x126;" horiz-adv-x="682" 
d="M659 585v-81h-62v-504h-133v309h-246v-309h-132v504h-63v81h63v106h132v-106h246v106h133v-106h62zM464 414v90h-246v-90h246z" />
    <glyph glyph-name="hbar" unicode="&#x127;" horiz-adv-x="589" 
d="M476 501c26.667 -28.667 39.999 -68 39.999 -118v-383h-128v363c0 31.333 -5.5 53.333 -16.5 66s-27.167 19 -48.5 19s-41 -6.83301 -59 -20.5s-35.333 -33.167 -52 -58.5v-369h-128v601h-69v82h69v57l128 13v-70h140v-82h-140v-135c42.667 52 94 78 154 78
c46.667 0 83.334 -14.333 110.001 -43z" />
    <glyph glyph-name="Itilde" unicode="&#x128;" horiz-adv-x="294" 
d="M213 691v-691h-132v691h132zM168.5 777.5c-10.333 5 -22.166 11.834 -35.499 20.501c-10 6.66699 -18 11.5 -24 14.5s-12.333 4.5 -19 4.5c-11.333 0 -20.833 -3.5 -28.5 -10.5s-15.834 -18.5 -24.501 -34.5l-69 34c13.333 31.333 30 56.5 50 75.5s43.333 28.5 70 28.5
c14.667 0 27.167 -2.33301 37.5 -7s22.5 -11.334 36.5 -20.001c8.66699 -6.66699 16.167 -11.5 22.5 -14.5s12.833 -4.5 19.5 -4.5c10 0 19 3.33301 27 10s16.667 17.667 26 33l68 -34c-13.333 -32 -30.333 -57.167 -51 -75.5s-43.667 -27.5 -69 -27.5
c-14 0 -26.167 2.5 -36.5 7.5z" />
    <glyph glyph-name="itilde" unicode="&#x129;" horiz-adv-x="282" 
d="M205 529v-529h-128v529h128zM162.5 651.5c-10.333 5 -22.166 11.834 -35.499 20.501c-10 6.66699 -18 11.5 -24 14.5s-12.333 4.5 -19 4.5c-11.333 0 -20.833 -3.5 -28.5 -10.5s-15.834 -18.5 -24.501 -34.5l-69 34c13.333 31.333 30 56.5 50 75.5s43.333 28.5 70 28.5
c14.667 0 27.167 -2.33301 37.5 -7s22.5 -11.334 36.5 -20.001c8.66699 -6.66699 16.167 -11.5 22.5 -14.5s12.833 -4.5 19.5 -4.5c10 0 19 3.33301 27 10s16.667 17.667 26 33l68 -34c-13.333 -32 -30.333 -57.167 -51 -75.5s-43.667 -27.5 -69 -27.5
c-14 0 -26.167 2.5 -36.5 7.5z" />
    <glyph glyph-name="Imacron" unicode="&#x12a;" horiz-adv-x="294" 
d="M213 691v-691h-132v691h132zM292 787h-291v91h291v-91z" />
    <glyph glyph-name="imacron" unicode="&#x12b;" horiz-adv-x="282" 
d="M205 529v-529h-128v529h128zM286 661h-291v91h291v-91z" />
    <glyph glyph-name="Ibreve" unicode="&#x12c;" horiz-adv-x="294" 
d="M213 691v-691h-132v691h132zM34 795c-29.333 27.333 -46.002 61.666 -50.002 102.999l75 15c6.66699 -20.667 17.334 -37 32.001 -49s33 -18 55 -18s40.667 6 56 18s26 28.333 32 49l76 -15c-4 -41.333 -20.833 -75.666 -50.5 -102.999s-67.5 -41 -113.5 -41
c-45.333 0 -82.666 13.667 -111.999 41z" />
    <glyph glyph-name="ibreve" unicode="&#x12d;" horiz-adv-x="282" 
d="M205 529v-529h-128v529h128zM27.5 680c-29 28.667 -45.5 66 -49.5 112l75 14c13.333 -51.333 42.333 -77 87 -77c22.667 0 41.5 6.66699 56.5 20s25.5 32.333 31.5 57l76 -14c-4 -46 -20.833 -83.333 -50.5 -112s-67.5 -43 -113.5 -43s-83.5 14.333 -112.5 43z" />
    <glyph glyph-name="Iogonek" unicode="&#x12e;" horiz-adv-x="294" 
d="M213 691v-691h-15c-46 -18.667 -77.667 -36.667 -95 -54s-26 -35.333 -26 -54c0 -30.667 18.333 -46 55 -46c18 0 38.333 2.33301 61 7l-10 -85c-24.667 -4.66699 -47 -7 -67 -7c-40.667 0 -73.667 10 -99 30s-38 46.333 -38 79c0 56.667 34 102 102 136v685h132z" />
    <glyph glyph-name="iogonek" unicode="&#x12f;" horiz-adv-x="282" 
d="M82.5 664c-15 14.667 -22.5 33 -22.5 55s7.5 40.5 22.5 55.5s34.167 22.5 57.5 22.5c24 0 43.5 -7.5 58.5 -22.5s22.5 -33.5 22.5 -55.5s-7.5 -40.333 -22.5 -55s-34.5 -22 -58.5 -22c-23.333 0 -42.5 7.33301 -57.5 22zM77 529h128v-529h-14
c-46 -18.667 -77.667 -36.667 -95 -54s-26 -35.333 -26 -54c0 -30.667 18.333 -46 55 -46c18 0 38.333 2.33301 61 7l-10 -85c-24.667 -4.66699 -47 -7 -67 -7c-40.667 0 -73.667 10 -99 30s-38 46.333 -38 79c0 56.667 35 102.667 105 138v521z" />
    <glyph glyph-name="Idotaccent" unicode="&#x130;" horiz-adv-x="294" 
d="M213 691v-691h-132v691h132zM204.5 900.5c15 -15 22.5 -33.5 22.5 -55.5s-7.5 -40.333 -22.5 -55s-34.5 -22 -58.5 -22c-23.333 0 -42.5 7.33301 -57.5 22s-22.5 33 -22.5 55s7.5 40.5 22.5 55.5s34.167 22.5 57.5 22.5c24 0 43.5 -7.5 58.5 -22.5z" />
    <glyph glyph-name="dotlessi" unicode="&#x131;" horiz-adv-x="282" 
d="M205 529v-529h-128v529h128z" />
    <glyph glyph-name="IJ" unicode="&#x132;" horiz-adv-x="606" 
d="M213 691v-691h-132v691h132zM529 101c0 -74 -17.5 -129.832 -52.5 -167.499s-85.167 -67.167 -150.5 -88.5l-35 95c29.333 11.333 51.5 24.166 66.5 38.499s25.167 31.333 30.5 51s8 45.167 8 76.5v585h133v-590z" />
    <glyph glyph-name="ij" unicode="&#x133;" horiz-adv-x="563" 
d="M205 529v-529h-128v529h128zM198.5 774.5c15 -15 22.5 -33.5 22.5 -55.5s-7.5 -40.333 -22.5 -55s-34.5 -22 -58.5 -22c-23.333 0 -42.5 7.33301 -57.5 22s-22.5 33 -22.5 55s7.5 40.5 22.5 55.5s34.167 22.5 57.5 22.5c24 0 43.5 -7.5 58.5 -22.5zM486 47
c0 -52 -7.50098 -94.5 -22.501 -127.5s-36.167 -59.5 -63.5 -79.5s-63 -39 -107 -57l-41 93c26 12 46.333 23.833 61 35.5s25.834 27.5 33.501 47.5s11.5 46.667 11.5 80v490h128v-482zM479.499 774.5c15 -15 22.5 -33.5 22.5 -55.5s-7.5 -40.333 -22.5 -55
s-34.5 -22 -58.5 -22c-23.333 0 -42.5 7.33301 -57.5 22s-22.5 33 -22.5 55s7.5 40.5 22.5 55.5s34.167 22.5 57.5 22.5c24 0 43.5 -7.5 58.5 -22.5z" />
    <glyph glyph-name="Jcircumflex" unicode="&#x134;" horiz-adv-x="312" 
d="M235 101c0 -74 -17.5 -129.832 -52.5 -167.499s-85.167 -67.167 -150.5 -88.5l-35 95c29.333 11.333 51.5 24.166 66.5 38.499s25.167 31.333 30.5 51s8 45.167 8 76.5v585h133v-590zM38 757.001l-49 55l139 121h80l139 -121l-49 -55l-130 82z" />
    <glyph glyph-name="jcircumflex" unicode="&#x135;" horiz-adv-x="281" 
d="M204 47c0 -52 -7.50098 -94.5 -22.501 -127.5s-36.167 -59.5 -63.5 -79.5s-63 -39 -107 -57l-41 93c26 12 46.333 23.833 61 35.5s25.834 27.5 33.501 47.5s11.5 46.667 11.5 80v490h128v-482zM9.99902 627l-49 55l138 126h81l139 -126l-49 -55l-130 88z" />
    <glyph glyph-name="Kcommaaccent" unicode="&#x136;" horiz-adv-x="613" 
d="M213 691v-691h-132v691h132zM601 691l-239 -313l258 -378h-157l-244 369l239 322h143zM371 -91.5c13.333 -13 20.002 -29.168 20.002 -48.501c0 -10.667 -1.83301 -21.5 -5.5 -32.5s-10.834 -27.167 -21.501 -48.5l-44 -91h-67l28 116
c-19.333 14.667 -29 33.334 -29 56.001c0 19.333 6.66699 35.5 20 48.5s30 19.5 50 19.5c19.333 0 35.666 -6.5 48.999 -19.5z" />
    <glyph glyph-name="kcommaaccent" unicode="&#x137;" horiz-adv-x="534" 
d="M205 755v-755h-128v741zM522 529l-176 -233l193 -296h-147l-182 289l177 240h135zM317 -91.5c13.333 -13 20.002 -29.168 20.002 -48.501c0 -10.667 -1.83301 -21.5 -5.5 -32.5s-10.834 -27.167 -21.501 -48.5l-44 -91h-67l28 116c-19.333 14.667 -29 33.334 -29 56.001
c0 19.333 6.66699 35.5 20 48.5s30 19.5 50 19.5c19.333 0 35.666 -6.5 48.999 -19.5z" />
    <glyph glyph-name="kgreenlandic" unicode="&#x138;" horiz-adv-x="532" 
d="M205 529v-529h-128v529h128zM520 529l-176 -243l193 -286h-147l-182 279l177 250h135z" />
    <glyph glyph-name="Lacute" unicode="&#x139;" horiz-adv-x="506" 
d="M213 691v-583h277l-15 -108h-394v691h132zM228 936l50 -100l-229 -83l-33 66z" />
    <glyph glyph-name="lacute" unicode="&#x13a;" horiz-adv-x="295" 
d="M106.5 20.5c-23 23.667 -34.5 57.167 -34.5 100.5v620l128 14v-630c0 -24.667 10 -37 30 -37c10 0 20 1.66699 30 5l27 -90c-26.667 -12 -55 -18 -85 -18c-40.667 0 -72.5 11.833 -95.5 35.5zM217 986l50 -100l-229 -83l-33 66z" />
    <glyph glyph-name="Lcommaaccent" unicode="&#x13b;" horiz-adv-x="506" 
d="M213 691v-583h277l-15 -108h-394v691h132zM329 -91.5c13.333 -13 20.002 -29.168 20.002 -48.501c0 -10.667 -1.83301 -21.5 -5.5 -32.5s-10.834 -27.167 -21.501 -48.5l-44 -91h-67l28 116c-19.333 14.667 -29 33.334 -29 56.001c0 19.333 6.66699 35.5 20 48.5
s30 19.5 50 19.5c19.333 0 35.666 -6.5 48.999 -19.5z" />
    <glyph glyph-name="lcommaaccent" unicode="&#x13c;" horiz-adv-x="295" 
d="M106.5 20.5c-23 23.667 -34.5 57.167 -34.5 100.5v620l128 14v-630c0 -24.667 10 -37 30 -37c10 0 20 1.66699 30 5l27 -90c-26.667 -12 -55 -18 -85 -18c-40.667 0 -72.5 11.833 -95.5 35.5zM232 -91.5c13.333 -13 20.002 -29.168 20.002 -48.501
c0 -10.667 -1.83301 -21.5 -5.5 -32.5s-10.834 -27.167 -21.501 -48.5l-44 -91h-67l28 116c-19.333 14.667 -29 33.334 -29 56.001c0 19.333 6.66699 35.5 20 48.5s30 19.5 50 19.5c19.333 0 35.666 -6.5 48.999 -19.5z" />
    <glyph glyph-name="Lcaron" unicode="&#x13d;" horiz-adv-x="506" 
d="M213 691v-583h277l-15 -108h-394v691h132zM333 490l53 201l-103 14l-21 -204z" />
    <glyph glyph-name="lcaron" unicode="&#x13e;" horiz-adv-x="334" 
d="M106.5 20.5c-23 23.667 -34.5 57.167 -34.5 100.5v620l128 14v-630c0 -24.667 10 -37 30 -37c10 0 20 1.66699 30 5l27 -90c-26.667 -12 -55 -18 -85 -18c-40.667 0 -72.5 11.833 -95.5 35.5zM314 540l53 201l-103 14l-21 -204z" />
    <glyph glyph-name="Ldot" unicode="&#x13f;" horiz-adv-x="506" 
d="M213 691v-583h277l-15 -108h-394v691h132zM453.5 449.5c15 -15 22.5 -33.5 22.5 -55.5s-7.5 -40.333 -22.5 -55s-34.5 -22 -58.5 -22c-23.333 0 -42.5 7.33301 -57.5 22s-22.5 33 -22.5 55s7.5 40.5 22.5 55.5s34.167 22.5 57.5 22.5c24 0 43.5 -7.5 58.5 -22.5z" />
    <glyph glyph-name="ldot" unicode="&#x140;" horiz-adv-x="392" 
d="M106.5 20.5c-23 23.667 -34.5 57.167 -34.5 100.5v620l128 14v-630c0 -24.667 10 -37 30 -37c10 0 20 1.66699 30 5l27 -90c-26.667 -12 -55 -18 -85 -18c-40.667 0 -72.5 11.833 -95.5 35.5zM387.5 432.5c15 -15 22.5 -33.5 22.5 -55.5s-7.5 -40.333 -22.5 -55
s-34.5 -22 -58.5 -22c-23.333 0 -42.5 7.33301 -57.5 22s-22.5 33 -22.5 55s7.5 40.5 22.5 55.5s34.167 22.5 57.5 22.5c24 0 43.5 -7.5 58.5 -22.5z" />
    <glyph glyph-name="Lslash" unicode="&#x141;" horiz-adv-x="535" 
d="M242 108h277l-15 -108h-394v239l-49 -30l-46 75l95 58v349h132v-267l143 89l46 -75l-189 -117v-213z" />
    <glyph glyph-name="lslash" unicode="&#x142;" horiz-adv-x="337" 
d="M278 93l27 -90c-26.667 -12 -55 -18 -85 -18c-40.667 0 -72.5 11.833 -95.5 35.5s-34.5 57.167 -34.5 100.5v162l-46 -28l-44 73l90 57v356l128 14v-293l78 47l43 -74l-121 -74v-236c0 -24.667 10 -37 30 -37c10 0 20 1.66699 30 5z" />
    <glyph glyph-name="Nacute" unicode="&#x143;" horiz-adv-x="672" 
d="M591 0l-171 -0.000976562l-237 559c6 -49.333 10.5 -94 13.5 -134s4.5 -87.667 4.5 -143v-282h-120v691h167l241 -560c-4 26.667 -8 61.834 -12 105.501s-6 87.167 -6 130.5v324h120v-691zM425 935.999l50 -100l-229 -83l-33 66z" />
    <glyph glyph-name="nacute" unicode="&#x144;" horiz-adv-x="581" 
d="M469.5 501.5c26.333 -28.333 39.502 -67.833 39.502 -118.5v-383h-128v363c0 31.333 -5.5 53.333 -16.5 66s-27.167 19 -48.5 19c-22 0 -41.833 -6.83301 -59.5 -20.5s-34.834 -33.5 -51.501 -59.5v-368h-128v529h111l10 -69c43.333 56 97 84 161 84
c47.333 0 84.166 -14.167 110.499 -42.5zM372.002 820l52 -100l-226 -90l-36 65z" />
    <glyph glyph-name="Ncommaaccent" unicode="&#x145;" horiz-adv-x="672" 
d="M591 0l-171 -0.000976562l-237 559c6 -49.333 10.5 -94 13.5 -134s4.5 -87.667 4.5 -143v-282h-120v691h167l241 -560c-4 26.667 -8 61.834 -12 105.501s-6 87.167 -6 130.5v324h120v-691zM388 -91.501c13.333 -13 20.002 -29.168 20.002 -48.501
c0 -10.667 -1.83301 -21.5 -5.5 -32.5s-10.834 -27.167 -21.501 -48.5l-44 -91h-67l28 116c-19.333 14.667 -29 33.334 -29 56.001c0 19.333 6.66699 35.5 20 48.5s30 19.5 50 19.5c19.333 0 35.666 -6.5 48.999 -19.5z" />
    <glyph glyph-name="ncommaaccent" unicode="&#x146;" horiz-adv-x="581" 
d="M469.5 501.5c26.333 -28.333 39.502 -67.833 39.502 -118.5v-383h-128v363c0 31.333 -5.5 53.333 -16.5 66s-27.167 19 -48.5 19c-22 0 -41.833 -6.83301 -59.5 -20.5s-34.834 -33.5 -51.501 -59.5v-368h-128v529h111l10 -69c43.333 56 97 84 161 84
c47.333 0 84.166 -14.167 110.499 -42.5zM342.002 -91.5c13.333 -13 20.002 -29.168 20.002 -48.501c0 -10.667 -1.83301 -21.5 -5.5 -32.5s-10.834 -27.167 -21.501 -48.5l-44 -91h-67l28 116c-19.333 14.667 -29 33.334 -29 56.001c0 19.333 6.66699 35.5 20 48.5
s30 19.5 50 19.5c19.333 0 35.666 -6.5 48.999 -19.5z" />
    <glyph glyph-name="Ncaron" unicode="&#x147;" horiz-adv-x="672" 
d="M591 0l-171 -0.000976562l-237 559c6 -49.333 10.5 -94 13.5 -134s4.5 -87.667 4.5 -143v-282h-120v691h167l241 -560c-4 26.667 -8 61.834 -12 105.501s-6 87.167 -6 130.5v324h120v-691zM474 927.999l49 -56l-139 -120h-80l-139 120l49 56l130 -83z" />
    <glyph glyph-name="ncaron" unicode="&#x148;" horiz-adv-x="581" 
d="M469.5 501.5c26.333 -28.333 39.502 -67.833 39.502 -118.5v-383h-128v363c0 31.333 -5.5 53.333 -16.5 66s-27.167 19 -48.5 19c-22 0 -41.833 -6.83301 -59.5 -20.5s-34.834 -33.5 -51.501 -59.5v-368h-128v529h111l10 -69c43.333 56 97 84 161 84
c47.333 0 84.166 -14.167 110.499 -42.5zM426.002 800l49 -56l-139 -125h-80l-139 125l49 56l130 -88z" />
    <glyph glyph-name="napostrophe" unicode="&#x149;" horiz-adv-x="699" 
d="M148 739c12 -12 18 -26.998 18 -44.998c0 -10 -1.66699 -20.167 -5 -30.5s-10 -25.5 -20 -45.5l-41 -84h-61l26 108c-18 15.333 -27 32.666 -27 51.999c0 17.333 6.33301 32.166 19 44.499s28 18.5 46 18.5s33 -6 45 -18zM586.5 501.502
c26.333 -28.333 39.502 -67.833 39.502 -118.5v-383h-128v363c0 31.333 -5.5 53.333 -16.5 66s-27.167 19 -48.5 19c-22 0 -41.833 -6.83301 -59.5 -20.5s-34.834 -33.5 -51.501 -59.5v-368h-128v529h111l10 -69c43.333 56 97 84 161 84
c47.333 0 84.166 -14.167 110.499 -42.5z" />
    <glyph glyph-name="Eng" unicode="&#x14a;" horiz-adv-x="672" 
d="M591 691v-734.002c0 -57.333 -15.833 -100.833 -47.5 -130.5s-75.167 -44.5 -130.5 -44.5c-50 0 -93 13.667 -129 41l46 80c13.333 -7.33301 25 -12.666 35 -15.999s22 -5 36 -5c38.667 0 58 22.333 58 67v51h-39l-237 559c6 -49.333 10.5 -94 13.5 -134
s4.5 -87.667 4.5 -143v-282h-120v691h167l241 -560c-4 26.667 -8 61.834 -12 105.501s-6 87.167 -6 130.5v324h120z" />
    <glyph glyph-name="eng" unicode="&#x14b;" horiz-adv-x="581" 
d="M469.5 501.5c26.333 -28.333 39.5029 -67.833 39.5029 -118.5v-426c0 -56.667 -15.833 -100 -47.5 -130s-74.5 -45 -128.5 -45c-51.333 0 -94.333 13.667 -129 41l45 76c13.333 -6.66699 25.166 -11.667 35.499 -15s22.5 -5 36.5 -5c40 0 60 22.333 60 67v417
c0 31.333 -5.5 53.333 -16.5 66s-27.167 19 -48.5 19c-22 0 -41.833 -6.83301 -59.5 -20.5s-34.834 -33.5 -51.501 -59.5v-368h-128v529h111l10 -69c43.333 56 97 84 161 84c47.333 0 84.166 -14.167 110.499 -42.5z" />
    <glyph glyph-name="Omacron" unicode="&#x14c;" horiz-adv-x="691" 
d="M507 664c45.333 -28 80.165 -69 104.498 -123s36.5 -119 36.5 -195c0 -75.333 -12.333 -140 -37 -194s-59.667 -95.333 -105 -124s-98.666 -43 -159.999 -43c-62 0 -115.667 14 -161 42s-80.333 69 -105 123s-37 119 -37 195c0 74.667 12.333 139.167 37 193.5
s59.834 95.833 105.501 124.5s99.167 43 160.5 43c62 0 115.667 -14 161 -42zM223.999 542.5c-28 -41.667 -42 -107.5 -42 -197.5c0 -172.667 54.667 -259 164 -259c53.333 0 93.833 20.667 121.5 62s41.5 107.333 41.5 198c0 90 -13.833 155.667 -41.5 197
s-68.167 62 -121.5 62s-94 -20.833 -122 -62.5zM490.999 787h-291v91h291v-91z" />
    <glyph glyph-name="omacron" unicode="&#x14d;" horiz-adv-x="584" 
d="M475.5 469.5c43.667 -49.667 65.499 -117.835 65.499 -204.502c0 -55.333 -10 -104.166 -30 -146.499s-48.667 -75.166 -86 -98.499s-81.666 -35 -132.999 -35c-78 0 -139 24.833 -183 74.5s-66 118.167 -66 205.5c0 55.333 10 104 30 146s48.833 74.667 86.5 98
s82.167 35 133.5 35c78 0 138.833 -24.833 182.5 -74.5zM177.999 264.999c0 -62.667 9.5 -108.833 28.5 -138.5s47.5 -44.5 85.5 -44.5s66.5 15 85.5 45s28.5 76 28.5 138s-9.5 107.833 -28.5 137.5s-47.167 44.5 -84.5 44.5c-76.667 0 -115 -60.667 -115 -182zM436.999 661
h-291v91h291v-91z" />
    <glyph glyph-name="Obreve" unicode="&#x14e;" horiz-adv-x="691" 
d="M507 664c45.333 -28 80.165 -69 104.498 -123s36.5 -119 36.5 -195c0 -75.333 -12.333 -140 -37 -194s-59.667 -95.333 -105 -124s-98.666 -43 -159.999 -43c-62 0 -115.667 14 -161 42s-80.333 69 -105 123s-37 119 -37 195c0 74.667 12.333 139.167 37 193.5
s59.834 95.833 105.501 124.5s99.167 43 160.5 43c62 0 115.667 -14 161 -42zM223.999 542.5c-28 -41.667 -42 -107.5 -42 -197.5c0 -172.667 54.667 -259 164 -259c53.333 0 93.833 20.667 121.5 62s41.5 107.333 41.5 198c0 90 -13.833 155.667 -41.5 197
s-68.167 62 -121.5 62s-94 -20.833 -122 -62.5zM232.999 795c-29.333 27.333 -46.002 61.666 -50.002 102.999l75 15c6.66699 -20.667 17.334 -37 32.001 -49s33 -18 55 -18s40.667 6 56 18s26 28.333 32 49l76 -15c-4 -41.333 -20.833 -75.666 -50.5 -102.999
s-67.5 -41 -113.5 -41c-45.333 0 -82.666 13.667 -111.999 41z" />
    <glyph glyph-name="obreve" unicode="&#x14f;" horiz-adv-x="584" 
d="M475.5 469.5c43.667 -49.667 65.499 -117.835 65.499 -204.502c0 -55.333 -10 -104.166 -30 -146.499s-48.667 -75.166 -86 -98.499s-81.666 -35 -132.999 -35c-78 0 -139 24.833 -183 74.5s-66 118.167 -66 205.5c0 55.333 10 104 30 146s48.833 74.667 86.5 98
s82.167 35 133.5 35c78 0 138.833 -24.833 182.5 -74.5zM177.999 264.999c0 -62.667 9.5 -108.833 28.5 -138.5s47.5 -44.5 85.5 -44.5s66.5 15 85.5 45s28.5 76 28.5 138s-9.5 107.833 -28.5 137.5s-47.167 44.5 -84.5 44.5c-76.667 0 -115 -60.667 -115 -182zM178.499 680
c-29 28.667 -45.5 66 -49.5 112l75 14c13.333 -51.333 42.333 -77 87 -77c22.667 0 41.5 6.66699 56.5 20s25.5 32.333 31.5 57l76 -14c-4 -46 -20.833 -83.333 -50.5 -112s-67.5 -43 -113.5 -43s-83.5 14.333 -112.5 43z" />
    <glyph glyph-name="Ohungarumlaut" unicode="&#x150;" horiz-adv-x="691" 
d="M507 664c45.333 -28 80.165 -69 104.498 -123s36.5 -119 36.5 -195c0 -75.333 -12.333 -140 -37 -194s-59.667 -95.333 -105 -124s-98.666 -43 -159.999 -43c-62 0 -115.667 14 -161 42s-80.333 69 -105 123s-37 119 -37 195c0 74.667 12.333 139.167 37 193.5
s59.834 95.833 105.501 124.5s99.167 43 160.5 43c62 0 115.667 -14 161 -42zM223.999 542.5c-28 -41.667 -42 -107.5 -42 -197.5c0 -172.667 54.667 -259 164 -259c53.333 0 93.833 20.667 121.5 62s41.5 107.333 41.5 198c0 90 -13.833 155.667 -41.5 197
s-68.167 62 -121.5 62s-94 -20.833 -122 -62.5zM304.999 973l94 -46l-105 -167l-72 30zM469.999 973l93 -48l-115 -170l-70 32z" />
    <glyph glyph-name="ohungarumlaut" unicode="&#x151;" horiz-adv-x="584" 
d="M475.5 469.5c43.667 -49.667 65.499 -117.835 65.499 -204.502c0 -55.333 -10 -104.166 -30 -146.499s-48.667 -75.166 -86 -98.499s-81.666 -35 -132.999 -35c-78 0 -139 24.833 -183 74.5s-66 118.167 -66 205.5c0 55.333 10 104 30 146s48.833 74.667 86.5 98
s82.167 35 133.5 35c78 0 138.833 -24.833 182.5 -74.5zM177.999 264.999c0 -62.667 9.5 -108.833 28.5 -138.5s47.5 -44.5 85.5 -44.5s66.5 15 85.5 45s28.5 76 28.5 138s-9.5 107.833 -28.5 137.5s-47.167 44.5 -84.5 44.5c-76.667 0 -115 -60.667 -115 -182zM251.999 847
l94 -46l-105 -167l-72 30zM416.999 847l93 -48l-115 -170l-70 32z" />
    <glyph glyph-name="OE" unicode="&#x152;" horiz-adv-x="901" 
d="M857 0h-440.999c-26 -10 -54.333 -15 -85 -15c-56.667 0 -106.834 14 -150.501 42s-77.5 69.167 -101.5 123.5s-36 119.166 -36 194.499c0 74.667 12.167 139.167 36.5 193.5s58.166 95.833 101.499 124.5s93.333 43 150 43c32.667 0 62.334 -5 89.001 -15h434l-15 -98
h-288c42 -49.333 66.667 -113.666 74 -192.999h182v-98h-181c-7.33301 -83.333 -34 -151 -80 -203h311v-99zM223.001 148.5c27.333 -41.667 65 -62.5 113 -62.5c102 0 153 86.667 153 260c0 172.667 -51 259 -153 259c-48.667 0 -86.5 -21 -113.5 -63
s-40.5 -107.667 -40.5 -197s13.667 -154.833 41 -196.5z" />
    <glyph glyph-name="oe" unicode="&#x153;" horiz-adv-x="911" 
d="M870 225l-330.998 -0.000976562c4 -51.333 17.167 -88 39.5 -110s52.166 -33 89.499 -33c23.333 0 45.333 3.66699 66 11s42.667 19.333 66 36l53 -73c-58.667 -47.333 -124 -71 -196 -71c-81.333 0 -143 30.667 -185 92c-43.333 -61.333 -103.333 -92 -180 -92
c-78 0 -139 24.833 -183 74.5s-66 118.167 -66 205.5c0 55.333 10 104 30 146s48.667 74.667 86 98s81.666 35 132.999 35c78 0 138.333 -29.667 181 -89c42 59.333 99 89 171 89s128.167 -23.667 168.5 -71s60.5 -112.666 60.5 -195.999c0 -6.66699 -1 -24 -3 -52z
M747.002 313.999c-0.666992 44.667 -9.16797 79 -25.501 103s-41.166 36 -74.499 36c-32.667 0 -58 -11.333 -76 -34s-29 -59.667 -33 -111h209v6zM406.001 264.999c0 121.333 -38 182.001 -114 182.001s-114 -60.667 -114 -182c0 -62.667 9.5 -108.834 28.5 -138.501
s47.5 -44.5 85.5 -44.5c76 0 114 61 114 183z" />
    <glyph glyph-name="Racute" unicode="&#x154;" horiz-adv-x="611" 
d="M297 277h-84v-277h-132v691h206c182.667 0 274 -67.667 274 -203c0 -46 -11.333 -84 -34 -114s-58 -54.333 -106 -73l181 -301h-152zM213 372h82c42 0 73.833 9.16699 95.5 27.5s32.5 47.833 32.5 88.5c0 37.333 -11.167 64.5 -33.5 81.5s-57.5 25.5 -105.5 25.5h-71
v-223zM381 936l50 -100l-229 -83l-33 66z" />
    <glyph glyph-name="racute" unicode="&#x155;" horiz-adv-x="394" 
d="M391 536l-22 -124c-16 4 -31.667 6 -47 6c-31.333 0 -56 -11.167 -74 -33.5s-32.333 -56.5 -43 -102.5v-282h-128v529h111l12 -104c12.667 38 31 67.167 55 87.5s51.667 30.5 83 30.5c19.333 0 37 -2.33301 53 -7zM312 820l52 -100l-226 -90l-36 65z" />
    <glyph glyph-name="Rcommaaccent" unicode="&#x156;" horiz-adv-x="611" 
d="M297 277h-84v-277h-132v691h206c182.667 0 274 -67.667 274 -203c0 -46 -11.333 -84 -34 -114s-58 -54.333 -106 -73l181 -301h-152zM213 372h82c42 0 73.833 9.16699 95.5 27.5s32.5 47.833 32.5 88.5c0 37.333 -11.167 64.5 -33.5 81.5s-57.5 25.5 -105.5 25.5h-71
v-223zM361 -91.5c13.333 -13 20.002 -29.168 20.002 -48.501c0 -10.667 -1.83301 -21.5 -5.5 -32.5s-10.834 -27.167 -21.501 -48.5l-44 -91h-67l28 116c-19.333 14.667 -29 33.334 -29 56.001c0 19.333 6.66699 35.5 20 48.5s30 19.5 50 19.5
c19.333 0 35.666 -6.5 48.999 -19.5z" />
    <glyph glyph-name="rcommaaccent" unicode="&#x157;" horiz-adv-x="394" 
d="M391 536l-22 -124c-16 4 -31.667 6 -47 6c-31.333 0 -56 -11.167 -74 -33.5s-32.333 -56.5 -43 -102.5v-282h-128v529h111l12 -104c12.667 38 31 67.167 55 87.5s51.667 30.5 83 30.5c19.333 0 37 -2.33301 53 -7zM192 -91.5c13.333 -13 20.002 -29.168 20.002 -48.501
c0 -10.667 -1.83301 -21.5 -5.5 -32.5s-10.834 -27.167 -21.501 -48.5l-44 -91h-67l28 116c-19.333 14.667 -29 33.334 -29 56.001c0 19.333 6.66699 35.5 20 48.5s30 19.5 50 19.5c19.333 0 35.666 -6.5 48.999 -19.5z" />
    <glyph glyph-name="Rcaron" unicode="&#x158;" horiz-adv-x="611" 
d="M297 277h-84v-277h-132v691h206c182.667 0 274 -67.667 274 -203c0 -46 -11.333 -84 -34 -114s-58 -54.333 -106 -73l181 -301h-152zM213 372h82c42 0 73.833 9.16699 95.5 27.5s32.5 47.833 32.5 88.5c0 37.333 -11.167 64.5 -33.5 81.5s-57.5 25.5 -105.5 25.5h-71
v-223zM430 928l49 -56l-139 -120h-80l-139 120l49 56l130 -83z" />
    <glyph glyph-name="rcaron" unicode="&#x159;" horiz-adv-x="394" 
d="M391 536l-22 -124c-16 4 -31.667 6 -47 6c-31.333 0 -56 -11.167 -74 -33.5s-32.333 -56.5 -43 -102.5v-282h-128v529h111l12 -104c12.667 38 31 67.167 55 87.5s51.667 30.5 83 30.5c19.333 0 37 -2.33301 53 -7zM366 800l49 -56l-139 -125h-80l-139 125l49 56l130 -88z
" />
    <glyph glyph-name="Sacute" unicode="&#x15a;" 
d="M407 685c36 -14 69.666 -35.3311 100.999 -63.998l-65 -75c-24.667 20.667 -49.5 35.667 -74.5 45s-51.833 14 -80.5 14c-32 0 -57.833 -7.16699 -77.5 -21.5s-29.5 -34.5 -29.5 -60.5c0 -17.333 3.83301 -31.666 11.5 -42.999s21.5 -22 41.5 -32s49.667 -21 89 -33
c68 -21.333 119.167 -47.833 153.5 -79.5s51.5 -77.834 51.5 -138.501c0 -41.333 -10.5 -78 -31.5 -110s-51.167 -57 -90.5 -75s-86 -27 -140 -27c-52.667 0 -99.834 8.5 -141.501 25.5s-77.5 40.167 -107.5 69.5l68 76c26.667 -22.667 54.334 -39.834 83.001 -51.501
s60.334 -17.5 95.001 -17.5c38 0 68.667 9 92 27s35 43.333 35 76c0 20 -4 36.5 -12 49.5s-21.667 24.667 -41 35s-47.333 21.166 -84 32.499c-73.333 22.667 -126.333 50 -159 82s-49 74 -49 126c0 38 10 71.333 30 100s47.833 51 83.5 67s76.167 24 121.5 24
c48.667 0 91 -7 127 -21zM367.999 936.002l50 -100l-229 -83l-33 66z" />
    <glyph glyph-name="sacute" unicode="&#x15b;" horiz-adv-x="476" 
d="M432 481l-50.0029 -74.9971c-45.333 28.667 -89.666 43 -132.999 43c-25.333 0 -45 -4.83301 -59 -14.5s-21 -22.5 -21 -38.5c0 -12 3 -22 9 -30s16.833 -15.5 32.5 -22.5s38.834 -14.833 69.501 -23.5c57.333 -15.333 99.833 -35.666 127.5 -60.999
s41.5 -60.666 41.5 -105.999c0 -52.667 -21.333 -93.834 -64 -123.501s-95.667 -44.5 -159 -44.5c-43.333 0 -82.833 6.66699 -118.5 20s-66.5 31.666 -92.5 54.999l64 72c46 -34.667 94 -52 144 -52c28.667 0 51.5 5.66699 68.5 17s25.5 27 25.5 47
c0 15.333 -3.16699 27.5 -9.5 36.5s-17.666 17 -33.999 24s-41.833 15.5 -76.5 25.5c-54 14.667 -93.667 35.167 -119 61.5s-38 59.166 -38 98.499c0 29.333 8.5 55.666 25.5 78.999s41 41.666 72 54.999s66.5 20 106.5 20c71.333 0 134 -21 188 -63zM322.997 820.003
l52 -100l-226 -90l-36 65z" />
    <glyph glyph-name="Scircumflex" unicode="&#x15c;" 
d="M407 685c36 -14 69.666 -35.3311 100.999 -63.998l-65 -75c-24.667 20.667 -49.5 35.667 -74.5 45s-51.833 14 -80.5 14c-32 0 -57.833 -7.16699 -77.5 -21.5s-29.5 -34.5 -29.5 -60.5c0 -17.333 3.83301 -31.666 11.5 -42.999s21.5 -22 41.5 -32s49.667 -21 89 -33
c68 -21.333 119.167 -47.833 153.5 -79.5s51.5 -77.834 51.5 -138.501c0 -41.333 -10.5 -78 -31.5 -110s-51.167 -57 -90.5 -75s-86 -27 -140 -27c-52.667 0 -99.834 8.5 -141.501 25.5s-77.5 40.167 -107.5 69.5l68 76c26.667 -22.667 54.334 -39.834 83.001 -51.501
s60.334 -17.5 95.001 -17.5c38 0 68.667 9 92 27s35 43.333 35 76c0 20 -4 36.5 -12 49.5s-21.667 24.667 -41 35s-47.333 21.166 -84 32.499c-73.333 22.667 -126.333 50 -159 82s-49 74 -49 126c0 38 10 71.333 30 100s47.833 51 83.5 67s76.167 24 121.5 24
c48.667 0 91 -7 127 -21zM155.999 757.002l-49 55l139 121h80l139 -121l-49 -55l-130 82z" />
    <glyph glyph-name="scircumflex" unicode="&#x15d;" horiz-adv-x="476" 
d="M432 481l-50.0029 -74.9971c-45.333 28.667 -89.666 43 -132.999 43c-25.333 0 -45 -4.83301 -59 -14.5s-21 -22.5 -21 -38.5c0 -12 3 -22 9 -30s16.833 -15.5 32.5 -22.5s38.834 -14.833 69.501 -23.5c57.333 -15.333 99.833 -35.666 127.5 -60.999
s41.5 -60.666 41.5 -105.999c0 -52.667 -21.333 -93.834 -64 -123.501s-95.667 -44.5 -159 -44.5c-43.333 0 -82.833 6.66699 -118.5 20s-66.5 31.666 -92.5 54.999l64 72c46 -34.667 94 -52 144 -52c28.667 0 51.5 5.66699 68.5 17s25.5 27 25.5 47
c0 15.333 -3.16699 27.5 -9.5 36.5s-17.666 17 -33.999 24s-41.833 15.5 -76.5 25.5c-54 14.667 -93.667 35.167 -119 61.5s-38 59.166 -38 98.499c0 29.333 8.5 55.666 25.5 78.999s41 41.666 72 54.999s66.5 20 106.5 20c71.333 0 134 -21 188 -63zM116.997 627.003
l-49 55l138 126h81l139 -126l-49 -55l-130 88z" />
    <glyph glyph-name="Scedilla" unicode="&#x15e;" 
d="M470.5 55c-38.333 -38 -91.1689 -60.667 -158.502 -68v-39c33.333 -3.33301 58.166 -13.166 74.499 -29.499s24.5 -37.166 24.5 -62.499c0 -33.333 -12.667 -59.833 -38 -79.5s-58.333 -29.5 -99 -29.5c-20.667 0 -40 2.5 -58 7.5s-33 11.833 -45 20.5l31 63
c20 -10.667 41 -16 63 -16c32.667 0 49 11.333 49 34c0 13.333 -7.16699 23 -21.5 29s-37.5 9 -69.5 9l11 92c-87.333 6.66699 -159.666 38 -216.999 94l68 76c26.667 -22.667 54.334 -39.834 83.001 -51.501s60.334 -17.5 95.001 -17.5c38 0 68.667 9 92 27
s35 43.333 35 76c0 20 -4 36.5 -12 49.5s-21.667 24.667 -41 35s-47.333 21.166 -84 32.499c-73.333 22.667 -126.333 50 -159 82s-49 74 -49 126c0 38 10 71.333 30 100s47.833 51 83.5 67s76.167 24 121.5 24c48.667 0 91 -7 127 -21s69.667 -35.333 101 -64l-65 -75
c-24.667 20.667 -49.5 35.667 -74.5 45s-51.833 14 -80.5 14c-32 0 -57.833 -7.16699 -77.5 -21.5s-29.5 -34.5 -29.5 -60.5c0 -17.333 3.83301 -31.666 11.5 -42.999s21.5 -22 41.5 -32s49.667 -21 89 -33c68 -21.333 119.167 -47.833 153.5 -79.5
s51.5 -77.834 51.5 -138.501c0 -56.667 -19.167 -104 -57.5 -142z" />
    <glyph glyph-name="scedilla" unicode="&#x15f;" horiz-adv-x="476" 
d="M400.5 41.5c-32.333 -28.333 -74.5029 -46.168 -126.503 -53.501v-40c33.333 -3.33301 58.166 -13.166 74.499 -29.499s24.5 -37.166 24.5 -62.499c0 -33.333 -12.667 -59.833 -38 -79.5s-58.333 -29.5 -99 -29.5c-20.667 0 -40 2.5 -58 7.5s-33 11.833 -45 20.5l31 63
c20 -10.667 41 -16 63 -16c32.667 0 49 11.333 49 34c0 13.333 -7.16699 23 -21.5 29s-37.5 9 -69.5 9l11 92c-71.333 5.33301 -131.666 30 -180.999 74l64 72c46 -34.667 94 -52 144 -52c28.667 0 51.5 5.66699 68.5 17s25.5 27 25.5 47c0 15.333 -3.16699 27.5 -9.5 36.5
s-17.666 17 -33.999 24s-41.833 15.5 -76.5 25.5c-54 14.667 -93.667 35.167 -119 61.5s-38 59.166 -38 98.499c0 29.333 8.5 55.666 25.5 78.999s41 41.666 72 54.999s66.5 20 106.5 20c71.333 0 134 -21 188 -63l-50 -75c-45.333 28.667 -89.666 43 -132.999 43
c-25.333 0 -45 -4.83301 -59 -14.5s-21 -22.5 -21 -38.5c0 -12 3 -22 9 -30s16.833 -15.5 32.5 -22.5s38.834 -14.833 69.501 -23.5c57.333 -15.333 99.833 -35.666 127.5 -60.999s41.5 -60.666 41.5 -105.999c0 -46 -16.167 -83.167 -48.5 -111.5z" />
    <glyph glyph-name="Scaron" unicode="&#x160;" 
d="M407 685c36 -14 69.666 -35.3311 100.999 -63.998l-65 -75c-24.667 20.667 -49.5 35.667 -74.5 45s-51.833 14 -80.5 14c-32 0 -57.833 -7.16699 -77.5 -21.5s-29.5 -34.5 -29.5 -60.5c0 -17.333 3.83301 -31.666 11.5 -42.999s21.5 -22 41.5 -32s49.667 -21 89 -33
c68 -21.333 119.167 -47.833 153.5 -79.5s51.5 -77.834 51.5 -138.501c0 -41.333 -10.5 -78 -31.5 -110s-51.167 -57 -90.5 -75s-86 -27 -140 -27c-52.667 0 -99.834 8.5 -141.501 25.5s-77.5 40.167 -107.5 69.5l68 76c26.667 -22.667 54.334 -39.834 83.001 -51.501
s60.334 -17.5 95.001 -17.5c38 0 68.667 9 92 27s35 43.333 35 76c0 20 -4 36.5 -12 49.5s-21.667 24.667 -41 35s-47.333 21.166 -84 32.499c-73.333 22.667 -126.333 50 -159 82s-49 74 -49 126c0 38 10 71.333 30 100s47.833 51 83.5 67s76.167 24 121.5 24
c48.667 0 91 -7 127 -21zM416.999 928.002l49 -56l-139 -120h-80l-139 120l49 56l130 -83z" />
    <glyph glyph-name="scaron" unicode="&#x161;" horiz-adv-x="476" 
d="M432 481l-50.0029 -74.9971c-45.333 28.667 -89.666 43 -132.999 43c-25.333 0 -45 -4.83301 -59 -14.5s-21 -22.5 -21 -38.5c0 -12 3 -22 9 -30s16.833 -15.5 32.5 -22.5s38.834 -14.833 69.501 -23.5c57.333 -15.333 99.833 -35.666 127.5 -60.999
s41.5 -60.666 41.5 -105.999c0 -52.667 -21.333 -93.834 -64 -123.501s-95.667 -44.5 -159 -44.5c-43.333 0 -82.833 6.66699 -118.5 20s-66.5 31.666 -92.5 54.999l64 72c46 -34.667 94 -52 144 -52c28.667 0 51.5 5.66699 68.5 17s25.5 27 25.5 47
c0 15.333 -3.16699 27.5 -9.5 36.5s-17.666 17 -33.999 24s-41.833 15.5 -76.5 25.5c-54 14.667 -93.667 35.167 -119 61.5s-38 59.166 -38 98.499c0 29.333 8.5 55.666 25.5 78.999s41 41.666 72 54.999s66.5 20 106.5 20c71.333 0 134 -21 188 -63zM376.997 800.003
l49 -56l-139 -125h-80l-139 125l49 56l130 -88z" />
    <glyph glyph-name="uni0162" unicode="&#x162;" horiz-adv-x="530" 
d="M407 -81.5c16.667 -16.333 25 -37.168 25 -62.501c0 -33.333 -13 -59.833 -39 -79.5s-59.667 -29.5 -101 -29.5c-20 0 -38.833 2.5 -56.5 7.5s-32.167 11.833 -43.5 20.5l31 63c20 -10.667 40 -16 60 -16c34.667 0 52 11.667 52 35c0 12.667 -7.16699 22 -21.5 28
s-37.5 9 -69.5 9l13 106h-59v586h-186v105h513l-14 -105h-180v-638c34 -3.33301 59.333 -13.166 76 -29.499z" />
    <glyph glyph-name="uni0163" unicode="&#x163;" horiz-adv-x="375" 
d="M343.5 -81.5c16.333 -16.333 24.501 -37.168 24.501 -62.501c0 -33.333 -12.667 -59.833 -38 -79.5s-58.333 -29.5 -99 -29.5c-20.667 0 -40 2.5 -58 7.5s-33 11.833 -45 20.5l31 63c20 -10.667 41 -16 63 -16c32.667 0 49 11.333 49 34c0 13.333 -7.16699 23 -21.5 29
s-37.5 9 -69.5 9l12 98c-34 9.33301 -59.833 28 -77.5 56s-26.5 64.667 -26.5 110v279h-83v92h83v117l128 15v-132h123l-13 -92h-110v-276c0 -26 4.5 -44.667 13.5 -56s23.167 -17 42.5 -17s40.333 6.33301 63 19l45 -82c-32 -22.667 -69 -35.667 -111 -39v-38
c33.333 -3.33301 58.166 -13.166 74.499 -29.499z" />
    <glyph glyph-name="Tcaron" unicode="&#x164;" horiz-adv-x="530" 
d="M525 691l-14 -105h-180v-586h-133v586h-186v105h513zM395 928l49 -56l-139 -120h-80l-139 120l49 56l130 -83z" />
    <glyph glyph-name="tcaron" unicode="&#x165;" horiz-adv-x="375" 
d="M367 765l-53 -201l-71 11l21 204zM380 25c-18.667 -13.333 -39.5 -23.333 -62.5 -30s-46.5 -10 -70.5 -10c-52 0.666992 -91.5 15.5 -118.5 44.5s-40.5 71.833 -40.5 128.5v279h-83v92h83v117l128 15v-132h123l-13 -92h-110v-276c0 -26 4.5 -44.667 13.5 -56
s23.167 -17 42.5 -17s40.333 6.33301 63 19z" />
    <glyph glyph-name="Tbar" unicode="&#x166;" horiz-adv-x="530" 
d="M511 585h-180v-197h120v-82h-120v-307h-133v307h-118v82h118v197h-186v105h513z" />
    <glyph glyph-name="tbar" unicode="&#x167;" horiz-adv-x="375" 
d="M380 25c-18.667 -13.333 -39.5 -23.333 -62.5 -30s-46.5 -10 -70.5 -10c-52 0.666992 -91.5 15.5 -118.5 44.5s-40.5 71.833 -40.5 128.5v112h-73v89h73v78h-83v92h83v117l128 15v-132h123l-13 -92h-110v-78h106v-89h-106v-109c0 -26 4.5 -44.667 13.5 -56
s23.167 -17 42.5 -17s40.333 6.33301 63 19z" />
    <glyph glyph-name="Utilde" unicode="&#x168;" horiz-adv-x="656" 
d="M585 226c0 -46.667 -9.83301 -88.167 -29.5 -124.5s-49 -64.833 -88 -85.5s-85.833 -31 -140.5 -31c-82.667 0 -146 21.833 -190 65.5s-66 102.167 -66 175.5v465h132v-458c0 -48.667 10.167 -85 30.5 -109s51.5 -36 93.5 -36c42.667 0 74.167 12 94.5 36
s30.5 60.333 30.5 109v458h133v-465zM349.5 777.5c-10.333 5 -22.166 11.834 -35.499 20.501c-10 6.66699 -18 11.5 -24 14.5s-12.333 4.5 -19 4.5c-11.333 0 -20.833 -3.5 -28.5 -10.5s-15.834 -18.5 -24.501 -34.5l-69 34c13.333 31.333 30 56.5 50 75.5
s43.333 28.5 70 28.5c14.667 0 27.167 -2.33301 37.5 -7s22.5 -11.334 36.5 -20.001c8.66699 -6.66699 16.167 -11.5 22.5 -14.5s12.833 -4.5 19.5 -4.5c10 0 19 3.33301 27 10s16.667 17.667 26 33l68 -34c-13.333 -32 -30.333 -57.167 -51 -75.5s-43.667 -27.5 -69 -27.5
c-14 0 -26.167 2.5 -36.5 7.5z" />
    <glyph glyph-name="utilde" unicode="&#x169;" horiz-adv-x="577" 
d="M500 0h-111.002l-7 74c-19.333 -30 -42.166 -52.333 -68.499 -67s-57.5 -22 -93.5 -22c-47.333 0 -83.833 14.5 -109.5 43.5s-38.5 69.167 -38.5 120.5v380h128v-364c0 -30 5.16699 -51.333 15.5 -64s26.833 -19 49.5 -19c40.667 0 76.334 25 107.001 75v372h128v-529z
M307.498 651.5c-10.333 5 -22.166 11.834 -35.499 20.501c-10 6.66699 -18 11.5 -24 14.5s-12.333 4.5 -19 4.5c-11.333 0 -20.833 -3.5 -28.5 -10.5s-15.834 -18.5 -24.501 -34.5l-69 34c13.333 31.333 30 56.5 50 75.5s43.333 28.5 70 28.5
c14.667 0 27.167 -2.33301 37.5 -7s22.5 -11.334 36.5 -20.001c8.66699 -6.66699 16.167 -11.5 22.5 -14.5s12.833 -4.5 19.5 -4.5c10 0 19 3.33301 27 10s16.667 17.667 26 33l68 -34c-13.333 -32 -30.333 -57.167 -51 -75.5s-43.667 -27.5 -69 -27.5
c-14 0 -26.167 2.5 -36.5 7.5z" />
    <glyph glyph-name="Umacron" unicode="&#x16a;" horiz-adv-x="656" 
d="M585 226c0 -46.667 -9.83301 -88.167 -29.5 -124.5s-49 -64.833 -88 -85.5s-85.833 -31 -140.5 -31c-82.667 0 -146 21.833 -190 65.5s-66 102.167 -66 175.5v465h132v-458c0 -48.667 10.167 -85 30.5 -109s51.5 -36 93.5 -36c42.667 0 74.167 12 94.5 36
s30.5 60.333 30.5 109v458h133v-465zM473 787h-291v91h291v-91z" />
    <glyph glyph-name="umacron" unicode="&#x16b;" horiz-adv-x="577" 
d="M500 0h-111.002l-7 74c-19.333 -30 -42.166 -52.333 -68.499 -67s-57.5 -22 -93.5 -22c-47.333 0 -83.833 14.5 -109.5 43.5s-38.5 69.167 -38.5 120.5v380h128v-364c0 -30 5.16699 -51.333 15.5 -64s26.833 -19 49.5 -19c40.667 0 76.334 25 107.001 75v372h128v-529z
M430.998 661h-291v91h291v-91z" />
    <glyph glyph-name="Ubreve" unicode="&#x16c;" horiz-adv-x="656" 
d="M585 226c0 -46.667 -9.83301 -88.167 -29.5 -124.5s-49 -64.833 -88 -85.5s-85.833 -31 -140.5 -31c-82.667 0 -146 21.833 -190 65.5s-66 102.167 -66 175.5v465h132v-458c0 -48.667 10.167 -85 30.5 -109s51.5 -36 93.5 -36c42.667 0 74.167 12 94.5 36
s30.5 60.333 30.5 109v458h133v-465zM215 795c-29.333 27.333 -46.002 61.666 -50.002 102.999l75 15c6.66699 -20.667 17.334 -37 32.001 -49s33 -18 55 -18s40.667 6 56 18s26 28.333 32 49l76 -15c-4 -41.333 -20.833 -75.666 -50.5 -102.999s-67.5 -41 -113.5 -41
c-45.333 0 -82.666 13.667 -111.999 41z" />
    <glyph glyph-name="ubreve" unicode="&#x16d;" horiz-adv-x="577" 
d="M500 0h-111.002l-7 74c-19.333 -30 -42.166 -52.333 -68.499 -67s-57.5 -22 -93.5 -22c-47.333 0 -83.833 14.5 -109.5 43.5s-38.5 69.167 -38.5 120.5v380h128v-364c0 -30 5.16699 -51.333 15.5 -64s26.833 -19 49.5 -19c40.667 0 76.334 25 107.001 75v372h128v-529z
M172.498 680c-29 28.667 -45.5 66 -49.5 112l75 14c13.333 -51.333 42.333 -77 87 -77c22.667 0 41.5 6.66699 56.5 20s25.5 32.333 31.5 57l76 -14c-4 -46 -20.833 -83.333 -50.5 -112s-67.5 -43 -113.5 -43s-83.5 14.333 -112.5 43z" />
    <glyph glyph-name="Uring" unicode="&#x16e;" horiz-adv-x="656" 
d="M585 226c0 -46.667 -9.83301 -88.167 -29.5 -124.5s-49 -64.833 -88 -85.5s-85.833 -31 -140.5 -31c-82.667 0 -146 21.833 -190 65.5s-66 102.167 -66 175.5v465h132v-458c0 -48.667 10.167 -85 30.5 -109s51.5 -36 93.5 -36c42.667 0 74.167 12 94.5 36
s30.5 60.333 30.5 109v458h133v-465zM420 944.5c23.333 -23 35 -51.5 35 -85.5c0 -33.333 -11.833 -61.666 -35.5 -84.999s-54.167 -35 -91.5 -35c-38 0 -68.833 11.667 -92.5 35s-35.5 51.666 -35.5 84.999c0 34 11.833 62.5 35.5 85.5s54.5 34.5 92.5 34.5
s68.667 -11.5 92 -34.5zM292 898c-8.66699 -9.33301 -13 -22.333 -13 -39s4.33301 -29.5 13 -38.5s20.667 -13.5 36 -13.5c14.667 0 26.334 4.5 35.001 13.5s13 21.833 13 38.5s-4.33301 29.667 -13 39s-20.334 14 -35.001 14c-15.333 0 -27.333 -4.66699 -36 -14z" />
    <glyph glyph-name="uring" unicode="&#x16f;" horiz-adv-x="577" 
d="M500 0h-111.002l-7 74c-19.333 -30 -42.166 -52.333 -68.499 -67s-57.5 -22 -93.5 -22c-47.333 0 -83.833 14.5 -109.5 43.5s-38.5 69.167 -38.5 120.5v380h128v-364c0 -30 5.16699 -51.333 15.5 -64s26.833 -19 49.5 -19c40.667 0 76.334 25 107.001 75v372h128v-529z
M377.998 818.5c23.333 -23 35 -51.5 35 -85.5c0 -33.333 -11.833 -61.666 -35.5 -84.999s-54.167 -35 -91.5 -35c-38 0 -68.833 11.667 -92.5 35s-35.5 51.666 -35.5 84.999c0 34 11.833 62.5 35.5 85.5s54.5 34.5 92.5 34.5s68.667 -11.5 92 -34.5zM249.998 772
c-8.66699 -9.33301 -13 -22.333 -13 -39s4.33301 -29.5 13 -38.5s20.667 -13.5 36 -13.5c14.667 0 26.334 4.5 35.001 13.5s13 21.833 13 38.5s-4.33301 29.667 -13 39s-20.334 14 -35.001 14c-15.333 0 -27.333 -4.66699 -36 -14z" />
    <glyph glyph-name="Uhungarumlaut" unicode="&#x170;" horiz-adv-x="656" 
d="M585 226c0 -46.667 -9.83301 -88.167 -29.5 -124.5s-49 -64.833 -88 -85.5s-85.833 -31 -140.5 -31c-82.667 0 -146 21.833 -190 65.5s-66 102.167 -66 175.5v465h132v-458c0 -48.667 10.167 -85 30.5 -109s51.5 -36 93.5 -36c42.667 0 74.167 12 94.5 36
s30.5 60.333 30.5 109v458h133v-465zM287 973l94 -46l-105 -167l-72 30zM452 973l93 -48l-115 -170l-70 32z" />
    <glyph glyph-name="uhungarumlaut" unicode="&#x171;" horiz-adv-x="577" 
d="M500 0h-111.002l-7 74c-19.333 -30 -42.166 -52.333 -68.499 -67s-57.5 -22 -93.5 -22c-47.333 0 -83.833 14.5 -109.5 43.5s-38.5 69.167 -38.5 120.5v380h128v-364c0 -30 5.16699 -51.333 15.5 -64s26.833 -19 49.5 -19c40.667 0 76.334 25 107.001 75v372h128v-529z
M245.998 847l94 -46l-105 -167l-72 30zM410.998 847l93 -48l-115 -170l-70 32z" />
    <glyph glyph-name="Uogonek" unicode="&#x172;" horiz-adv-x="656" 
d="M585 691l0.000976562 -465c0 -55.333 -13.5 -103 -40.5 -143s-66.167 -68 -117.5 -84c-45.333 -18.667 -76.333 -36.5 -93 -53.5s-25 -34.833 -25 -53.5c0 -30.667 18 -46 54 -46c19.333 0 39.666 2.33301 60.999 7l-10 -85c-24.667 -4.66699 -47 -7 -67 -7
c-40.667 0 -73.667 10 -99 30s-38 46.333 -38 79c0 49.333 29.667 88 89 116c-74 4.66699 -130.5 28.667 -169.5 72s-58.5 99.333 -58.5 168v465h132v-458c0 -48.667 10.167 -85 30.5 -109s51.5 -36 93.5 -36c42.667 0 74.167 12 94.5 36s30.5 60.333 30.5 109v458h133z" />
    <glyph glyph-name="uogonek" unicode="&#x173;" horiz-adv-x="577" 
d="M405 -54c-17.333 -17.333 -26.002 -35.333 -26.002 -54c0 -30.667 18.333 -46 55 -46c18 0 38.333 2.33301 61 7l-10 -85c-24.667 -4.66699 -47 -7 -67 -7c-40.667 0 -73.667 10 -99 30s-38 46.333 -38 79c0 30 9 56.333 27 79s44.667 42.667 80 60l-6 65
c-19.333 -30 -42.166 -52.333 -68.499 -67s-57.5 -22 -93.5 -22c-47.333 0 -83.833 14.5 -109.5 43.5s-38.5 69.167 -38.5 120.5v380h128v-364c0 -30 5.16699 -51.333 15.5 -64s26.833 -19 49.5 -19c40.667 0 76.334 25 107.001 75v372h128v-529
c-46 -18.667 -77.667 -36.667 -95 -54z" />
    <glyph glyph-name="Wcircumflex" unicode="&#x174;" horiz-adv-x="837" 
d="M821 691l-127 -691h-172l-105 551l-108 -551h-167l-125 691h131l88 -586l113 586h140l111 -586l96 586h125zM288 757l-49 55l139 121h80l139 -121l-49 -55l-130 82z" />
    <glyph glyph-name="wcircumflex" unicode="&#x175;" horiz-adv-x="734" 
d="M723 529l-115 -529h-160l-80 415l-82 -415h-157l-117 529h128l74 -435l92 435h131l84 -435l79 435h123zM237 627l-49 55l138 126h81l139 -126l-49 -55l-130 88z" />
    <glyph glyph-name="Ycircumflex" unicode="&#x176;" horiz-adv-x="574" 
d="M576 691l-222 -429v-262h-134v261l-222 430h146l146 -321l146 321h140zM156 757l-49 55l139 121h80l139 -121l-49 -55l-130 82z" />
    <glyph glyph-name="ycircumflex" unicode="&#x177;" horiz-adv-x="506" 
d="M333 -2c-21.333 -65.333 -53.6689 -116.167 -97.002 -152.5s-102.666 -57.5 -177.999 -63.5l-13 93c34.667 5.33301 62.5 12.833 83.5 22.5s37.833 22.5 50.5 38.5s24.334 37.333 35.001 64h-44l-168 529h136l115 -444l120 444h132zM122.997 626.999l-49 55l138 126h81
l139 -126l-49 -55l-130 88z" />
    <glyph glyph-name="Ydieresis" unicode="&#x178;" horiz-adv-x="574" 
d="M576 691l-222 -429v-262h-134v261l-222 430h146l146 -321l146 321h140zM225 891c13.333 -13.333 20 -29.666 20 -48.999s-6.66699 -35.666 -20 -48.999s-29.666 -20 -48.999 -20c-20 0 -36.833 6.66699 -50.5 20s-20.5 29.666 -20.5 48.999s6.83301 35.666 20.5 48.999
s30.5 20 50.5 20c19.333 0 35.666 -6.66699 48.999 -20zM447 891c13.333 -13.333 20 -29.666 20 -48.999s-6.66699 -35.666 -20 -48.999s-30 -20 -50 -20c-19.333 0 -35.833 6.66699 -49.5 20s-20.5 29.666 -20.5 48.999s6.83301 35.666 20.5 48.999s30.167 20 49.5 20
c20 0 36.667 -6.66699 50 -20z" />
    <glyph glyph-name="Zacute" unicode="&#x179;" horiz-adv-x="534" 
d="M496 691v-102l-319 -481h322l-14 -108h-462v101l325 485h-292v105h440zM355 936l50 -100l-229 -83l-33 66z" />
    <glyph glyph-name="zacute" unicode="&#x17a;" horiz-adv-x="449" 
d="M421 529v-92l-256 -337h261l-13 -100h-395v92l257 337h-235v100h381zM302 820l52 -100l-226 -90l-36 65z" />
    <glyph glyph-name="Zdotaccent" unicode="&#x17b;" horiz-adv-x="534" 
d="M496 691v-102l-319 -481h322l-14 -108h-462v101l325 485h-292v105h440zM331.5 900.5c15 -15 22.5 -33.5 22.5 -55.5s-7.5 -40.333 -22.5 -55s-34.5 -22 -58.5 -22c-23.333 0 -42.5 7.33301 -57.5 22s-22.5 33 -22.5 55s7.5 40.5 22.5 55.5s34.167 22.5 57.5 22.5
c24 0 43.5 -7.5 58.5 -22.5z" />
    <glyph glyph-name="zdotaccent" unicode="&#x17c;" horiz-adv-x="449" 
d="M421 529v-92l-256 -337h261l-13 -100h-395v92l257 337h-235v100h381zM283.5 774.5c15 -15 22.5 -33.5 22.5 -55.5s-7.5 -40.333 -22.5 -55s-34.5 -22 -58.5 -22c-23.333 0 -42.5 7.33301 -57.5 22s-22.5 33 -22.5 55s7.5 40.5 22.5 55.5s34.167 22.5 57.5 22.5
c24 0 43.5 -7.5 58.5 -22.5z" />
    <glyph glyph-name="Zcaron" unicode="&#x17d;" horiz-adv-x="534" 
d="M496 691v-102l-319 -481h322l-14 -108h-462v101l325 485h-292v105h440zM404 928l49 -56l-139 -120h-80l-139 120l49 56l130 -83z" />
    <glyph glyph-name="zcaron" unicode="&#x17e;" horiz-adv-x="449" 
d="M421 529v-92l-256 -337h261l-13 -100h-395v92l257 337h-235v100h381zM356 800l49 -56l-139 -125h-80l-139 125l49 56l130 -88z" />
    <glyph glyph-name="longs" unicode="&#x17f;" horiz-adv-x="347" 
d="M415 724l-37 -86c-28.667 13.333 -57.667 20 -87 20c-25.333 0 -43.5 -5.83301 -54.5 -17.5s-16.5 -30.167 -16.5 -55.5v-585h-128v437h-86v92h86v58c0 50 16.167 90.5 48.5 121.5s78.166 46.5 137.499 46.5c46.667 0 92.334 -10.333 137.001 -31z" />
    <glyph glyph-name="uni0180" unicode="&#x180;" horiz-adv-x="603" 
d="M502 470.5c34.667 -49 52.001 -117.5 52.001 -205.5c0 -54.667 -8.5 -103.167 -25.5 -145.5s-41.167 -75.333 -72.5 -99s-68.333 -35.5 -111 -35.5c-28.667 0 -54.834 6 -78.501 18s-44.167 29 -61.5 51l-8 -54h-113v601h-69v82h69v58l128 14v-72h140v-82h-140v-132
c17.333 24 38.5 42.5 63.5 55.5s52.5 19.5 82.5 19.5c61.333 0 109.333 -24.5 144 -73.5zM391.001 125.5c19.333 29.667 29 76.166 29 139.499c0 66.667 -9 113.834 -27 141.501s-43.333 41.5 -76 41.5c-40.667 0 -75.667 -24 -105 -72v-234
c11.333 -19.333 25.5 -34.333 42.5 -45s35.5 -16 55.5 -16c34.667 0 61.667 14.833 81 44.5z" />
    <glyph glyph-name="uni0181" unicode="&#x181;" horiz-adv-x="728" 
d="M649.5 315.5c29 -25 43.499 -63.833 43.499 -116.5c0 -72 -25.333 -123.167 -76 -153.5s-121.667 -45.5 -213 -45.5h-208v593h-30c-33.333 0 -50 -15 -50 -45c0 -11.333 1.33301 -22 4 -32s7 -22.333 13 -37l-84 -39c-13.333 20 -23.666 38.833 -30.999 56.5
s-11 36.834 -11 57.501c0 42 14.667 75.333 44 100s70 37 122 37h204c190.667 0 286 -58.667 286 -176c0 -40.667 -12.333 -73.834 -37 -99.501s-55 -42.167 -91 -49.5c47.333 -8.66699 85.5 -25.5 114.5 -50.5zM327.999 594l-0.000976562 -186.999h81
c36.667 0 65.667 8.16699 87 24.5s32 40.5 32 72.5c0 33.333 -11.167 56.666 -33.5 69.999s-57.166 20 -104.499 20h-62zM516.498 121.001c25.667 14.667 38.499 42.334 38.499 83.001c0 39.333 -12.167 67.666 -36.5 84.999s-57.5 26 -99.5 26h-91v-216h77
c48.667 0 85.834 7.33301 111.501 22z" />
    <glyph glyph-name="uni0182" unicode="&#x182;" horiz-adv-x="588" 
d="M494.5 385c47 -36 70.501 -89.333 70.501 -160c0 -76 -24.333 -132.5 -73 -169.5s-114.334 -55.5 -197.001 -55.5h-214v691h406l-14 -103h-260v-149h82c86 0 152.5 -18 199.5 -54zM391.001 127.5c23.333 19 35.001 50.834 35.001 95.501
c0 41.333 -11.5 71.666 -34.5 90.999s-57.5 29 -103.5 29h-75v-244h78c43.333 0 76.666 9.5 99.999 28.5z" />
    <glyph glyph-name="uni0183" unicode="&#x183;" horiz-adv-x="596" 
d="M495 464.5c34.667 -48.333 52 -116.167 52 -203.5c0 -53.333 -8.5 -101 -25.5 -143s-41.167 -74.667 -72.5 -98s-68.333 -35 -111 -35c-28.667 0 -54.834 6 -78.501 18s-44.167 29 -61.5 51l-8 -54h-113v741h349l-15 -94h-206v-185c17.333 24 38.333 42.5 63 55.5
s51.667 19.5 81 19.5c62.667 0 111.334 -24.167 146.001 -72.5zM384 124.499c19.333 29 29 74.501 29 136.501c0 65.333 -9 111.666 -27 138.999s-43.333 41 -76 41c-40.667 0 -75.667 -23.667 -105 -71v-228c12 -19.333 26.5 -34.333 43.5 -45s35.5 -16 55.5 -16
c34 0 60.667 14.5 80 43.5z" />
    <glyph glyph-name="uni0184" unicode="&#x184;" horiz-adv-x="596" 
d="M505.5 392.5c47 -36.333 70.502 -90.833 70.502 -163.5c0 -77.333 -24.333 -134.833 -73 -172.5s-114.334 -56.5 -197.001 -56.5h-214v506l-72 47c35.333 37.333 65.666 83.333 90.999 138h114v-244h81c86 0 152.5 -18.167 199.5 -54.5zM402.502 128
c23 19.333 34.5 52.333 34.5 99c0 43.333 -11.5 74.833 -34.5 94.5s-57.5 29.5 -103.5 29.5h-74v-252h78c43.333 0 76.5 9.66699 99.5 29z" />
    <glyph glyph-name="uni0185" unicode="&#x185;" horiz-adv-x="531" 
d="M449.5 315.5c37.667 -31 56.499 -75.833 56.499 -134.5c0 -59.333 -20.167 -104.333 -60.5 -135s-92.166 -46 -155.499 -46h-201v354l-73 47c37.333 38 67.666 80.667 90.999 128h110v-167h52c82.667 0 142.834 -15.5 180.501 -46.5zM373.999 183
c0 31.333 -8 54.5 -24 69.5s-43.667 22.5 -83 22.5h-50v-186h60c64.667 0 97 31.333 97 94z" />
    <glyph glyph-name="uni0186" unicode="&#x186;" horiz-adv-x="568" 
d="M391 664.5c42.667 -27.667 75.667 -68.5 99 -122.5s35 -119 35 -195c0 -76.667 -12.667 -142.167 -38 -196.5s-60.666 -95.5 -105.999 -123.5s-98 -42 -158 -42c-80 0 -150 28 -210 84l63 77c24.667 -18 47.5 -31.667 68.5 -41s45.167 -14 72.5 -14
c52 0 93.167 20.667 123.5 62s45.5 106 45.5 194c0 90 -13.833 155.333 -41.5 196s-64.834 61 -111.501 61c-51.333 0 -100.333 -16.333 -147 -49l-65 78c31.333 24.667 64.5 43 99.5 55s75.167 18 120.5 18c57.333 0 107.333 -13.833 150 -41.5z" />
    <glyph glyph-name="uni0187" unicode="&#x187;" horiz-adv-x="568" 
d="M716 805l-40.998 -80.999c-12.667 7.33301 -24.334 12.666 -35.001 15.999s-22.667 5 -36 5c-38 0 -57 -22.333 -57 -67v-45l-59 -69c-44.667 26.667 -90.334 40 -137.001 40c-51.333 0 -92.333 -20.667 -123 -62s-46 -106.333 -46 -195
c0 -87.333 15.333 -151.833 46 -193.5s72.334 -62.5 125.001 -62.5c26.667 0 50.334 5 71.001 15s43.667 24.333 69 43l62 -80c-23.333 -24 -52.833 -44 -88.5 -60s-75.5 -24 -119.5 -24c-60 0 -113 14 -159 42s-81.667 69.167 -107 123.5s-38 119.833 -38 196.5
c0 74.667 13.167 139.167 39.5 193.5s61.666 95.5 105.999 123.5s93.166 42 146.499 42c36 0 67.333 -5.66699 94 -17c2 49.333 16.667 87.333 44 114s66.333 40 117 40c46.667 0 88.667 -12.667 126 -38z" />
    <glyph glyph-name="uni0188" unicode="&#x188;" horiz-adv-x="478" 
d="M631 717l-41.002 -79.998c-12.667 7.33301 -24.334 12.666 -35.001 15.999s-22.667 5 -36 5c-38 0 -57 -22.667 -57 -68v-108l-49 -67c-17.333 9.33301 -34.666 16.333 -51.999 21s-37.666 7 -60.999 7c-80.667 0 -121 -60.333 -121 -181
c0 -61.333 10.333 -105.5 31 -132.5s50 -40.5 88 -40.5c18.667 0 35.834 3 51.501 9s34.167 15.667 55.5 29l57 -81c-50 -40.667 -107 -61 -171 -61c-50.667 0 -94.667 11.167 -132 33.5s-66 54.166 -86 95.499s-30 90 -30 146s10 105.5 30 148.5s47.833 76.333 83.5 100
s76.834 35.5 123.501 35.5c25.333 0 46.666 -3.33301 63.999 -10v57c0 52.667 14 93.167 42 121.5s67.667 42.5 119 42.5c46.667 0 88.667 -12.667 126 -38z" />
    <glyph glyph-name="uni0189" unicode="&#x189;" horiz-adv-x="661" 
d="M521.5 618c64.333 -48.667 96.5 -138.333 96.5 -269c0 -128 -31.667 -218.167 -95 -270.5s-143.666 -78.5 -240.999 -78.5h-188v310h-77v86h77v295h170c107.333 0 193.166 -24.333 257.499 -73zM429 153.501c33.333 36.333 50.001 101.499 50.001 195.499
c0 65.333 -8.5 115.833 -25.5 151.5s-39.333 59.834 -67 72.501s-60.834 19 -99.501 19h-61v-196h145v-86h-145v-211h65c58.667 0 104.667 18.167 138 54.5z" />
    <glyph glyph-name="uni018A" unicode="&#x18a;" horiz-adv-x="763" 
d="M623.5 618c64.333 -48.667 96.499 -138.334 96.499 -269.001c0 -128 -31.667 -218.167 -95 -270.5s-143.666 -78.5 -240.999 -78.5h-188v593h-30c-33.333 0 -50 -15 -50 -45c0 -11.333 1.33301 -22 4 -32s7 -22.333 13 -37l-84 -39
c-13.333 20 -23.666 38.833 -30.999 56.5s-11 36.834 -11 57.501c0 42 14.667 75.333 44 100s70 37 122 37h193c107.333 0 193.166 -24.333 257.499 -73zM530.999 153.5c33.333 36.333 50.001 101.499 50.001 195.499c0 65.333 -8.5 115.833 -25.5 151.5
s-39.333 59.834 -67 72.501s-60.834 19 -99.501 19h-61v-493h65c58.667 0 104.667 18.167 138 54.5z" />
    <glyph glyph-name="uni018B" unicode="&#x18b;" horiz-adv-x="588" 
d="M507 690l-0.000976562 -690h-222c-80 -0 -143.667 17.833 -191 53.5s-71 90.5 -71 164.5c0 70.667 23.833 125.167 71.5 163.5s113.834 57.5 198.501 57.5h82v149h-268v103h401zM374.999 99l0.000976562 244h-75c-46 0 -80.5 -10.167 -103.5 -30.5
s-34.5 -51.833 -34.5 -94.5c0 -43.333 11.667 -74 35 -92s56.666 -27 99.999 -27h78z" />
    <glyph glyph-name="uni018C" unicode="&#x18c;" horiz-adv-x="599" 
d="M522 0l-112.996 -0.00195312l-9 67c-16.667 -25.333 -37.834 -45.333 -63.501 -60s-54.834 -22 -87.501 -22c-64.667 0 -114.334 24.833 -149.001 74.5s-52 116.834 -52 201.501c0 53.333 8.66699 100.833 26 142.5s42.166 74.334 74.499 98.001s70.5 35.5 114.5 35.5
c49.333 0 93 -19 131 -57v167h-213v94h341v-741zM345.004 98.498c17.333 11 33.6689 28.167 49.002 51.5v235c-15.333 18.667 -30.833 32.667 -46.5 42s-33.5 14 -53.5 14c-34.667 0 -61.834 -15 -81.501 -45s-29.5 -75 -29.5 -135c0 -63.333 8.66699 -109 26 -137
s42.666 -42 75.999 -42c22.667 0 42.667 5.5 60 16.5z" />
    <glyph glyph-name="uni018D" unicode="&#x18d;" horiz-adv-x="578" 
d="M459 6.5c14 -21.667 21.002 -47.5 21.002 -77.5c0 -27.333 -7.33301 -52.333 -22 -75s-36.834 -40.667 -66.501 -54s-65.834 -20 -108.501 -20c-71.333 0 -133 19.333 -185 58l61 72c18.667 -12.667 36.834 -22 54.501 -28s37.167 -9 58.5 -9c28 0 48.667 5.33301 62 16
s20 24.667 20 42c0 13.333 -2.83301 24.5 -8.5 33.5s-16 18 -31 27s-38.167 20.167 -69.5 33.5c-70 28.667 -121.167 62.5 -153.5 101.5s-48.5 91.5 -48.5 157.5c0 49.333 10 93.666 30 132.999s48.5 70.333 85.5 93s80.5 34 130.5 34c75.333 0 135.166 -22.667 179.499 -68
s66.5 -107.666 66.5 -186.999c0 -49.333 -13.333 -92.5 -40 -129.5s-64 -67.167 -112 -90.5c36.667 -20 62 -40.833 76 -62.5zM189.502 203c7.66699 -20.667 21 -38.665 40 -53.998s46.5 -31.333 82.5 -48c30.667 22.667 53.167 48.667 67.5 78s21.5 64.666 21.5 105.999
c0 108 -37 162 -111 162c-36.667 0 -64.5 -13.667 -83.5 -41s-28.5 -68.333 -28.5 -123c0 -32.667 3.83301 -59.334 11.5 -80.001z" />
    <glyph glyph-name="uni018E" unicode="&#x18e;" horiz-adv-x="530" 
d="M50 691h399v-691h-405v99h273v203h-222v98h222v193h-267v98z" />
    <glyph glyph-name="uni018F" unicode="&#x18f;" horiz-adv-x="644" 
d="M525 617c50.667 -59.333 76.001 -146.999 76.001 -262.999c0 -81.333 -11.833 -149.5 -35.5 -204.5s-57 -96.167 -100 -123.5s-93.167 -41 -150.5 -41c-93.333 0 -163.666 30.5 -210.999 91.5s-71 147.833 -71 260.5c0 14 1.33301 33.667 4 59h428
c-2.66699 72 -17.834 124.833 -45.501 158.5s-66.834 50.5 -117.501 50.5c-32.667 0 -62.5 -5.33301 -89.5 -16s-53.167 -25.667 -78.5 -45l-62 75c34 29.333 70.5 51.166 109.5 65.499s82.5 21.5 130.5 21.5c91.333 0 162.333 -29.667 213 -89zM421.001 136.001
c26 34 40.667 88.667 44 164h-303c2 -143.333 52 -215 150 -215c46.667 0 83 17 109 51z" />
    <glyph glyph-name="uni0190" unicode="&#x190;" horiz-adv-x="532" 
d="M510 617l-67.0029 -70.998c-44.667 40 -92.667 60 -144 60c-36 0 -62.667 -8.66699 -80 -26s-26 -39.666 -26 -66.999c0 -30.667 10.5 -54.834 31.5 -72.501s49.5 -26.5 85.5 -26.5h71l-17 -99h-52c-45.333 0 -79.5 -9.83301 -102.5 -29.5s-34.5 -47.5 -34.5 -83.5
s11.5 -64 34.5 -84s55.167 -30 96.5 -30c30 0 57 5.33301 81 16s46.667 26.667 68 48l74 -71c-58.667 -64 -136.667 -96 -234 -96c-50 0 -94.667 8.83301 -134 26.5s-70.166 42.5 -92.499 74.5s-33.5 68.667 -33.5 110c0 50.667 15.167 90.667 45.5 120
s70.833 46.666 121.5 51.999c-46.667 10 -82.5 28.667 -107.5 56s-37.5 61.666 -37.5 102.999c0 34 9.16699 64.5 27.5 91.5s44.833 48.333 79.5 64s75.334 23.5 122.001 23.5c86.667 0 161.334 -29.667 224.001 -89z" />
    <glyph glyph-name="uni0191" unicode="&#x191;" horiz-adv-x="489" 
d="M213 593v-207.001h213v-98h-213v-331c0 -57.333 -15.833 -100.833 -47.5 -130.5s-75.167 -44.5 -130.5 -44.5c-50 0 -93 13.667 -129 41l46 80c13.333 -7.33301 25 -12.666 35 -15.999s22 -5 36 -5c38.667 0 58 22.333 58 67v742h391l-14 -98h-245z" />
    <glyph glyph-name="florin" unicode="&#x192;" horiz-adv-x="358" 
d="M242.5 641c-11 -11.333 -16.498 -30 -16.498 -56v-56h127l-14 -92h-113v-390c0 -52 -7.5 -94.5 -22.5 -127.5s-36 -59.5 -63 -79.5s-62.5 -39 -106.5 -57l-41 93c26 12 46.167 23.833 60.5 35.5s25.333 27.5 33 47.5s11.5 46.667 11.5 80v398h-83v92h83v58
c0 50 16.167 90.5 48.5 121.5s78.166 46.5 137.499 46.5c26.667 0 51.167 -2.66699 73.5 -8s45.166 -13 68.499 -23l-37 -86c-30 13.333 -59.667 20 -89 20c-27.333 0 -46.5 -5.66699 -57.5 -17z" />
    <glyph glyph-name="uni0193" unicode="&#x193;" horiz-adv-x="602" 
d="M750 805l-42 -80.998c-12.667 7.33301 -24.167 12.666 -34.5 15.999s-22.166 5 -35.499 5c-38.667 0 -58 -22.333 -58 -67v-53l-64 -67c-26 16 -51 28 -75 36s-49.667 12 -77 12c-53.333 0 -97 -21.333 -131 -64s-51 -108 -51 -196c0 -92 13.5 -158.333 40.5 -199
s68.167 -61 123.5 -61c42 0 78.667 9 110 27v180h-104l-14 98h248v-338c-72 -45.333 -153 -68 -243 -68c-96.667 0 -170.834 30.667 -222.501 92s-77.5 151 -77.5 269c0 74.667 14 139.167 42 193.5s65 95.666 111 123.999s95.333 42.5 148 42.5c47.333 0 87 -8 119 -24
c0.666992 51.333 14.667 91 42 119s67 42 119 42c45.333 0 87.333 -12.667 126 -38z" />
    <glyph glyph-name="uni0194" unicode="&#x194;" horiz-adv-x="562" 
d="M355 82c23.333 -41.333 40 -75.5 50 -102.5s15 -54.833 15 -83.5c0 -36 -11.333 -64 -34 -84s-57 -30 -103 -30s-80.333 10 -103 30s-34 48 -34 84c0 24.667 5 50.667 15 78s26.667 63.333 50 108l-216 609h142l147 -521l148 521h135zM305.5 -52
c-5 15.333 -12.5 35 -22.5 59c-20 -45.333 -30 -79.333 -30 -102c0 -22 10 -33 30 -33s30 11.333 30 34c0 12.667 -2.5 26.667 -7.5 42z" />
    <glyph glyph-name="uni0195" unicode="&#x195;" horiz-adv-x="877" 
d="M822 251c0 -60 -11.667 -109.832 -35 -149.499s-53.833 -69 -91.5 -88s-77.834 -28.5 -120.501 -28.5c-56 0 -102.333 16 -139 48s-55 78.667 -55 140v190c0 31.333 -5.5 53.333 -16.5 66s-27.167 19 -48.5 19s-41 -6.83301 -59 -20.5s-35.333 -33.167 -52 -58.5v-369
h-128v740l128 13v-287c42.667 52 94 78 154 78c46.667 0 83.334 -14.333 110.001 -43s40 -68 40 -118v-206c0 -63.333 24.667 -95 74 -95c30 0 55.833 14.167 77.5 42.5s32.5 74.166 32.5 137.499c0 85.333 -8.66699 174.333 -26 267h127c18.667 -98 28 -190.667 28 -278z
" />
    <glyph glyph-name="uni0196" unicode="&#x196;" horiz-adv-x="380" 
d="M378 26c-36 -27.333 -79 -40.999 -129 -40.999c-55.333 0 -98.833 14.833 -130.5 44.5s-47.5 73.167 -47.5 130.5v531h132v-539c0 -44.667 19.333 -67 58 -67c14 0 26 1.66699 36 5s21.667 8.66602 35 15.999z" />
    <glyph glyph-name="uni0197" unicode="&#x197;" horiz-adv-x="322" 
d="M312 409v-99h-85v-310h-132v310h-85v99h85v282h132v-282h85z" />
    <glyph glyph-name="uni0198" unicode="&#x198;" horiz-adv-x="637" 
d="M219 369l152.001 231c24.667 38.667 49.167 66 73.5 82s55.166 24 92.499 24c40.667 0 76 -12 106 -36l-39 -79c-8.66699 5.33301 -16.667 9.33301 -24 12s-16.666 4 -27.999 4c-15.333 0 -28.333 -3.5 -39 -10.5s-23.334 -21.833 -38.001 -44.5l-114 -174l259 -378h-157
zM213.001 691v-691h-132v691h132z" />
    <glyph glyph-name="uni0199" unicode="&#x199;" horiz-adv-x="534" 
d="M221 640.5c-10.667 -11.667 -15.998 -30.167 -15.998 -55.5v-585h-128v587c0 50 16.167 90.5 48.5 121.5s78.166 46.5 137.499 46.5c47.333 0 92.666 -10.333 135.999 -31l-37 -86c-28.667 13.333 -57.667 20 -87 20c-25.333 0 -43.333 -5.83301 -54 -17.5zM346.002 296
l193 -296h-147l-182 289l177 240h135z" />
    <glyph glyph-name="uni019A" unicode="&#x19a;" horiz-adv-x="326" 
d="M313 3c-26.667 -12 -55 -18 -85 -18c-40.667 0 -72.5 11.833 -95.5 35.5s-34.5 57.167 -34.5 100.5v205h-88v92h88v323l128 14v-337h86v-92h-86v-201c0 -24.667 10 -37 30 -37c10 0 20 1.66699 30 5z" />
    <glyph glyph-name="uni019B" unicode="&#x19b;" horiz-adv-x="511" 
d="M416 257c16 -52 32.501 -95.3359 49.501 -130.003s37.833 -67.667 62.5 -99l-122 -43c-35.333 52 -63.833 107.333 -85.5 166s-43.5 143.334 -65.5 254.001l-116 -420l-126 30l161 478h65c-9.33301 38.667 -19.333 68.667 -30 90l-60 -56l-76 44l77 72
c-22 11.333 -50.333 19.333 -85 24l16 88c32 -5.33301 59.667 -11.666 83 -18.999s43.666 -16.666 60.999 -27.999l69 65l60 -62l-66 -61c29.333 -41.333 54 -103.333 74 -186c20 -86 38 -155 54 -207z" />
    <glyph glyph-name="uni019C" unicode="&#x19c;" horiz-adv-x="923" 
d="M843 691l-0.00390625 -690.999h-116l-10 71c-23.333 -29.333 -47.666 -51 -72.999 -65s-54 -21 -86 -21c-34.667 0 -64.667 8.33301 -90 25s-44.666 40 -57.999 70c-26.667 -32.667 -53.667 -56.667 -81 -72s-57.666 -23 -90.999 -23c-52.667 0 -93.667 18.167 -123 54.5
s-44 84.166 -44 143.499v508h132v-503c0 -32 6.33301 -56.833 19 -74.5s30.667 -26.5 54 -26.5c22 0 41.5 6.16699 58.5 18.5s35.5 32.5 55.5 60.5v17v508h133v-503c0 -32 6.33301 -56.833 19 -74.5s30.334 -26.5 53.001 -26.5c23.333 0 43.333 6.16699 60 18.5
s35 32.833 55 61.5v524h133z" />
    <glyph glyph-name="uni019D" unicode="&#x19d;" horiz-adv-x="672" 
d="M591 691l-0.000976562 -691h-171l-237 559c6 -49.333 10.5 -94 13.5 -134s4.5 -87.667 4.5 -143v-326c0 -56.667 -15.167 -99.834 -45.5 -129.501s-71.166 -44.5 -122.499 -44.5c-50.667 0 -94 13.667 -130 41l46 78c12.667 -8 24.167 -13.667 34.5 -17
s22.833 -5 37.5 -5c40 0 60 22.333 60 67v745h167l241 -560c-4 26.667 -8 61.834 -12 105.501s-6 87.167 -6 130.5v324h120z" />
    <glyph glyph-name="uni019E" unicode="&#x19e;" horiz-adv-x="581" 
d="M469.5 501.5c26.333 -28.333 39.502 -67.833 39.502 -118.5v-601l-128 14v567c0 31.333 -5.5 53.333 -16.5 66s-27.167 19 -48.5 19c-22 0 -41.833 -6.83301 -59.5 -20.5s-34.834 -33.5 -51.501 -59.5v-368h-128v529h111l10 -69c43.333 56 97 84 161 84
c47.333 0 84.166 -14.167 110.499 -42.5z" />
    <glyph glyph-name="uni019F" unicode="&#x19f;" horiz-adv-x="691" 
d="M507 664c45.333 -28 80.165 -69 104.498 -123s36.5 -119 36.5 -195c0 -75.333 -12.333 -140 -37 -194s-59.667 -95.333 -105 -124s-98.666 -43 -159.999 -43c-62 0 -115.667 14 -161 42s-80.333 69 -105 123s-37 119 -37 195c0 74.667 12.333 139.167 37 193.5
s59.834 95.833 105.501 124.5s99.167 43 160.5 43c62 0 115.667 -14 161 -42zM179.999 392h331.998c-9.33301 142 -64.666 213 -165.999 213s-156.666 -71 -165.999 -213zM511.997 310h-332.999c4 -77.333 20.5 -134 49.5 -170s68.167 -54 117.5 -54
c103.333 0 158.666 74.667 165.999 224z" />
    <glyph glyph-name="Ohorn" unicode="&#x1a0;" horiz-adv-x="710" 
d="M595 573c35.333 -60 52.998 -135.669 52.998 -227.002c0 -75.333 -12.333 -140 -37 -194s-59.667 -95.333 -105 -124s-98.666 -43 -159.999 -43c-62 0 -115.667 14 -161 42s-80.333 69 -105 123s-37 119 -37 195c0 74.667 12.333 139.167 37 193.5
s59.834 95.833 105.501 124.5s99.167 43 160.5 43c81.333 0 148 -24 200 -72c18 2.66699 31 8.33398 39 17.001s12 21 12 37c0 14.667 -1.16699 27 -3.5 37s-5.83301 21 -10.5 33l89 15c12.667 -24 19 -52.333 19 -85c0 -63.333 -32 -101.666 -96 -114.999zM467.498 147.998
c27.667 41.333 41.5 107.333 41.5 198c0 90 -13.833 155.667 -41.5 197s-68.167 62 -121.5 62s-94 -20.833 -122 -62.5s-42 -107.5 -42 -197.5c0 -172.667 54.667 -259 164 -259c53.333 0 93.833 20.667 121.5 62z" />
    <glyph glyph-name="ohorn" unicode="&#x1a1;" horiz-adv-x="611" 
d="M589 446c-17.333 -19.333 -42.335 -32.001 -75.002 -38.001c18 -40 27 -87.667 27 -143s-10 -104.166 -30 -146.499s-48.667 -75.166 -86 -98.499s-81.666 -35 -132.999 -35c-78 0 -139 24.833 -183 74.5s-66 118.167 -66 205.5c0 55.333 10 104 30 146
s48.833 74.667 86.5 98s82.167 35 133.5 35c76 0 136 -23.667 180 -71c16.667 2 28.834 7.16699 36.501 15.5s11.5 20.166 11.5 35.499c0 14 -1.16699 26 -3.5 36s-5.83301 21 -10.5 33l89 15c12.667 -24 19 -52.333 19 -85c0 -32 -8.66699 -57.667 -26 -77z
M377.498 126.999c19 30 28.5 76.001 28.5 138.001s-9.5 107.833 -28.5 137.5s-47.167 44.5 -84.5 44.5c-76.667 0 -115 -60.667 -115 -182c0 -62.667 9.5 -108.834 28.5 -138.501s47.5 -44.5 85.5 -44.5s66.5 15 85.5 45z" />
    <glyph glyph-name="uni01A2" unicode="&#x1a2;" horiz-adv-x="945" 
d="M816 661.5c32 -30.333 47.998 -74.168 47.998 -131.501v-736h-133v741c0 50.667 -22 76 -66 76c-15.333 0 -29.5 -1.66699 -42.5 -5s-26.833 -8.66602 -41.5 -15.999c44.667 -62 67 -143.333 67 -244c0 -75.333 -12.333 -140 -37 -194s-59.667 -95.333 -105 -124
s-98.666 -43 -159.999 -43c-62 0 -115.667 14 -161 42s-80.333 69 -105 123s-37 119 -37 195c0 74.667 12.333 139.167 37 193.5s59.834 95.833 105.501 124.5s99.167 43 160.5 43c66 0 123.333 -17.333 172 -52c26 18 51.833 31.333 77.5 40s53.5 13 83.5 13
c59.333 0 105 -15.167 137 -45.5zM467.498 147.998c27.667 41.333 41.5 107.333 41.5 198c0 90 -13.833 155.667 -41.5 197s-68.167 62 -121.5 62s-94 -20.833 -122 -62.5s-42 -107.5 -42 -197.5c0 -172.667 54.667 -259 164 -259c53.333 0 93.833 20.667 121.5 62z" />
    <glyph glyph-name="uni01A3" unicode="&#x1a3;" horiz-adv-x="812" 
d="M689 498.5c30.667 -30.333 46 -74.1699 46 -131.503v-585l-128 14v579c0 48.667 -21 73 -63 73c-15.333 0 -31.666 -2.66699 -48.999 -8c30.667 -47.333 46 -105.666 46 -174.999c0 -55.333 -10 -104.166 -30 -146.499s-48.667 -75.166 -86 -98.499
s-81.666 -35 -132.999 -35c-78 0 -139 24.833 -183 74.5s-66 118.167 -66 205.5c0 55.333 10 104 30 146s48.833 74.667 86.5 98s82.167 35 133.5 35c52 0 96.333 -12 133 -36c21.333 12 42.666 21 63.999 27s44.666 9 69.999 9c55.333 0 98.333 -15.167 129 -45.5z
M377.5 126.996c19 30 28.5 76.001 28.5 138.001s-9.5 107.833 -28.5 137.5s-47.167 44.5 -84.5 44.5c-76.667 0 -115 -60.667 -115 -182c0 -62.667 9.5 -108.834 28.5 -138.501s47.5 -44.5 85.5 -44.5s66.5 15 85.5 45z" />
    <glyph glyph-name="uni01A4" unicode="&#x1a4;" horiz-adv-x="706" 
d="M606.5 636c49 -36.667 73.499 -91.668 73.499 -165.001c0 -76.667 -24.667 -134.167 -74 -172.5s-115 -57.5 -197 -57.5h-81v-241h-132v593h-30c-33.333 0 -50 -15 -50 -45c0 -11.333 1.33301 -22 4 -32s7 -22.333 13 -37l-84 -39
c-13.333 20 -23.666 38.833 -30.999 56.5s-11 36.834 -11 57.501c0 42 14.667 75.333 44 100s70 37 122 37h227c88.667 0 157.5 -18.333 206.5 -55zM505.999 369.499c24 19.667 36 53.5 36 101.5c0 82 -47.667 123 -143 123h-71v-254h71c47.333 0 83 9.83301 107 29.5z" />
    <glyph glyph-name="uni01A5" unicode="&#x1a5;" horiz-adv-x="596" 
d="M498.5 471c32.333 -48.667 48.5029 -117 48.5029 -205c0 -54.667 -8.16699 -103.167 -24.5 -145.5s-40.333 -75.5 -72 -99.5s-69.167 -36 -112.5 -36c-56 0 -100.333 19.333 -133 58v-247l-128 -14v805c0 50 16.167 90.5 48.5 121.5s78.166 46.5 137.499 46.5
c47.333 0 92.666 -10.333 135.999 -31l-37 -86c-28.667 13.333 -57.667 20 -87 20c-25.333 0 -43.333 -5.83301 -54 -17.5s-16 -30.167 -16 -55.5v-115c20 24.667 42.5 43.167 67.5 55.5s50.5 18.5 76.5 18.5c67.333 0 117.166 -24.333 149.499 -73zM413.003 265
c0 65.333 -8.50098 112.167 -25.501 140.5s-42.5 42.5 -76.5 42.5c-20.667 0 -40.167 -6.5 -58.5 -19.5s-34.166 -30.5 -47.499 -52.5v-238c24.667 -36.667 57 -55 97 -55c74 0 111 60.667 111 182z" />
    <glyph glyph-name="uni01A6" unicode="&#x1a6;" horiz-adv-x="611" 
d="M297 159h-84v-159h-132v691h132v-118h74c182.667 0 274 -67.667 274 -203c0 -46 -11.333 -84 -34 -114s-58 -54.333 -106 -73l181 -301h-152zM213 254h82c42 0 73.833 9.16699 95.5 27.5s32.5 47.833 32.5 88.5c0 37.333 -11.167 64.5 -33.5 81.5s-57.5 25.5 -105.5 25.5
h-71v-223z" />
    <glyph glyph-name="uni01A7" unicode="&#x1a7;" horiz-adv-x="551" 
d="M406.5 683c35 -15.333 61.9961 -37.001 80.9961 -65.001s28.5 -60.667 28.5 -98c0 -52 -16.667 -93.833 -50 -125.5s-86.666 -58.834 -159.999 -81.501c-52 -16 -87.667 -33.5 -107 -52.5s-29 -43.167 -29 -72.5c0 -32 11 -56.667 33 -74s51 -26 87 -26
c62.667 0 121.334 22.333 176.001 67l68 -75c-30.667 -29.333 -67.167 -52.5 -109.5 -69.5s-89.833 -25.5 -142.5 -25.5c-50 0 -93.833 9 -131.5 27s-66.834 42.667 -87.501 74s-31 67 -31 107c0 58.667 17.167 103.834 51.5 135.501s85.5 58.167 153.5 79.5
c38 12 67.167 23.5 87.5 34.5s34.5 22.833 42.5 35.5s12 28.334 12 47.001c0 26.667 -9 46.667 -27 60s-42.667 20 -74 20c-30 0 -57.667 -4.66699 -83 -14s-50.666 -24 -75.999 -44l-65 74c32.667 28 67.834 49.167 105.501 63.5s79.834 21.5 126.501 21.5
c45.333 0 85.5 -7.66699 120.5 -23z" />
    <glyph glyph-name="uni01A8" unicode="&#x1a8;" horiz-adv-x="466" 
d="M345.5 524c29 -13.333 51.3301 -31.498 66.9971 -54.498s23.5 -49.167 23.5 -78.5c0 -41.333 -12.5 -73.833 -37.5 -97.5s-65.5 -43.5 -121.5 -59.5c-32.667 -9.33301 -57.167 -18 -73.5 -26s-27.666 -16.667 -33.999 -26s-9.5 -21.333 -9.5 -36
c0 -20.667 7.83301 -36.834 23.5 -48.501s36.167 -17.5 61.5 -17.5c48 0 95.667 17 143 51l63 -71c-26 -23.333 -56.833 -41.666 -92.5 -54.999s-75.167 -20 -118.5 -20c-38.667 0 -74.167 6.5 -106.5 19.5s-58.166 32 -77.499 57s-29 54.833 -29 89.5
c0 45.333 13.833 80.166 41.5 104.499s70.5 44.166 128.5 59.499c30 8 52.833 15.833 68.5 23.5s26.334 16 32.001 25s8.5 20.167 8.5 33.5c0 16 -6.5 28.667 -19.5 38s-31.833 14 -56.5 14c-46 0 -91.667 -14 -137 -42l-49 74c59.333 42 125.333 63 198 63
c40 0 74.5 -6.66699 103.5 -20z" />
    <glyph glyph-name="uni01A9" unicode="&#x1a9;" horiz-adv-x="503" 
d="M473 691v-100h-296l183 -218v-64l-184 -207h297v-102h-443v100l206 239l-206 252v100h443z" />
    <glyph glyph-name="uni01AA" unicode="&#x1aa;" horiz-adv-x="360" 
d="M460 -177c-34.667 -27.333 -77.665 -41.001 -128.998 -41.001c-54 0 -96.833 15 -128.5 45s-47.5 73.333 -47.5 130v498c-20.667 -7.33301 -40.334 -11 -59.001 -11c-42.667 0 -77.667 14.167 -105 42.5s-41 65.5 -41 111.5c0 46.667 15 84.5 45 113.5
s69.333 43.5 118 43.5c52.667 0 94.167 -14.667 124.5 -44s45.5 -70.666 45.5 -123.999v-641c0 -44.667 20 -67 60 -67c14 0 26.167 1.66699 36.5 5s22.166 8.33301 35.499 15zM155.002 541.999v61c0 39.333 -14.667 59 -44 59s-44 -20.333 -44 -61
c0 -22 4.16699 -38.167 12.5 -48.5s21.5 -15.5 39.5 -15.5c9.33301 0 21.333 1.66699 36 5z" />
    <glyph glyph-name="uni01AB" unicode="&#x1ab;" horiz-adv-x="375" 
d="M380 25l0.00390625 -67.999c0 -56.667 -15.333 -99.834 -46 -129.501s-73.334 -44.5 -128.001 -44.5c-51.333 0 -95.333 13.333 -132 40l46 78c14 -7.33301 26.667 -12.833 38 -16.5s24.666 -5.5 39.999 -5.5c44 0 66 22.333 66 67v42c-6.66699 -2 -14.334 -3 -23.001 -3
c-48.667 0.666992 -86.334 15.667 -113.001 45s-40 72 -40 128v279h-83v92h83v117l128 15v-132h123l-13 -92h-110v-284c0 -25.333 4.5 -43.5 13.5 -54.5s23.833 -16.5 44.5 -16.5c20 0 43 4 69 12z" />
    <glyph glyph-name="uni01AC" unicode="&#x1ac;" horiz-adv-x="577" 
d="M558 586l-179.999 -0.000976562v-586h-132v586h-79c-16 0 -28.167 -3.83301 -36.5 -11.5s-12.5 -18.167 -12.5 -31.5c0 -10.667 1.33301 -20 4 -28s7 -19.333 13 -34l-91 -42c-24.667 40 -37 78 -37 114c0 42.667 15.167 76.334 45.5 101.001s72.166 37 125.499 37h394z
" />
    <glyph glyph-name="uni01AD" unicode="&#x1ad;" horiz-adv-x="375" 
d="M380 25c-18.667 -13.333 -39.501 -23.3311 -62.501 -29.998s-46.5 -10 -70.5 -10c-52 0.666992 -91.5 15.5 -118.5 44.5s-40.5 71.833 -40.5 128.5v279h-83v92h83v55c0 53.333 14.833 95.166 44.5 125.499s70.834 45.5 123.501 45.5c44.667 0 85.667 -12.667 123 -38
l-41 -77c-12.667 7.33301 -24.167 12.666 -34.5 15.999s-21.5 5 -33.5 5c-36 0 -54 -22.333 -54 -67v-65h123l-13 -92h-110v-276c0 -26 4.5 -44.667 13.5 -56s23.167 -17 42.5 -17c20 0 41 6.66699 63 20z" />
    <glyph glyph-name="uni01AE" unicode="&#x1ae;" horiz-adv-x="531" 
d="M389 -118c14 0 26 1.66797 36 5.00098s21.667 8.66602 35 15.999l46 -80c-36 -27.333 -79 -41 -129 -41c-55.333 0 -98.833 14.833 -130.5 44.5s-47.5 73.167 -47.5 130.5v43h-1v586h-186v105h513l-14 -105h-180v-637c0 -44.667 19.333 -67 58 -67z" />
    <glyph glyph-name="Uhorn" unicode="&#x1af;" horiz-adv-x="703" 
d="M723 688c0 -38.667 -12 -67.833 -36 -87.5s-58 -30.167 -102 -31.5v-343c0 -46.667 -9.83301 -88.167 -29.5 -124.5s-49 -64.833 -88 -85.5s-85.833 -31 -140.5 -31c-82.667 0 -146 21.833 -190 65.5s-66 102.167 -66 175.5v465h132v-458c0 -48.667 10.167 -85 30.5 -109
s51.5 -36 93.5 -36c42.667 0 74.167 12 94.5 36s30.5 60.333 30.5 109v458h133v-56c29.333 6 44 23.667 44 53c0 14.667 -1.16699 27 -3.5 37s-5.83301 21 -10.5 33l89 15c12.667 -24 19 -52.333 19 -85z" />
    <glyph glyph-name="uhorn" unicode="&#x1b0;" horiz-adv-x="624" 
d="M638 523c0 -38 -12.002 -66.833 -36.002 -86.5s-58 -30.167 -102 -31.5v-405h-111l-7 74c-19.333 -30 -42.166 -52.333 -68.499 -67s-57.5 -22 -93.5 -22c-47.333 0 -83.833 14.5 -109.5 43.5s-38.5 69.167 -38.5 120.5v380h128v-364c0 -30 5.16699 -51.333 15.5 -64
s26.833 -19 49.5 -19c40.667 0 76.334 25 107.001 75v372h128v-56c15.333 2.66699 26.5 8 33.5 16s10.5 19.667 10.5 35c0 14 -1.16699 26 -3.5 36s-5.83301 21 -10.5 33l89 15c12.667 -24 19 -52.333 19 -85z" />
    <glyph glyph-name="uni01B1" unicode="&#x1b1;" horiz-adv-x="691" 
d="M185 25.5c-46 27 -81.168 65.001 -105.501 114.001s-36.5 105.167 -36.5 168.5c0 68.667 11.5 125.167 34.5 169.5s54.833 82.5 95.5 114.5h-108v99h220v-96c-35.333 -34 -61.333 -72.5 -78 -115.5s-25 -100.167 -25 -171.5c0 -73.333 14 -128.666 42 -165.999
s68.667 -56 122 -56c52 0 92.167 18.833 120.5 56.5s42.5 93.167 42.5 166.5c0 70 -8.5 126.5 -25.5 169.5s-42.5 81.833 -76.5 116.5v96h220v-99h-108c40.667 -28.667 72.334 -65.334 95.001 -110.001s34 -102.334 34 -173.001c0 -62.667 -12.5 -118.5 -37.5 -167.5
s-60.333 -87.333 -106 -115s-98.5 -41.5 -158.5 -41.5c-61.333 0 -115 13.5 -161 40.5z" />
    <glyph glyph-name="uni01B2" unicode="&#x1b2;" horiz-adv-x="656" 
d="M549.5 669c23.667 -24.667 35.501 -61.668 35.501 -111.001v-262c0 -63.333 -11.5 -118.5 -34.5 -165.5s-55.333 -83 -97 -108s-90.167 -37.5 -145.5 -37.5c-48.667 0 -90.834 9.83301 -126.501 29.5s-63 46.667 -82 81s-28.5 73.5 -28.5 117.5v478h132v-476
c0 -40 9.33301 -71.167 28 -93.5s45 -33.5 79 -33.5c45.333 0 80.333 17.5 105 52.5s37 87.5 37 157.5v263c0 16.667 -2.5 28.334 -7.5 35.001s-13.833 10 -26.5 10c-12 0 -22.667 -2 -32 -6l-25 88c26 12 55 18 87 18c44 0 77.833 -12.333 101.5 -37z" />
    <glyph glyph-name="uni01B3" unicode="&#x1b3;" horiz-adv-x="611" 
d="M220 261l-222 430h146l146 -321l88 205c18.667 47.333 40.667 81 66 101s58.666 30 99.999 30c22.667 0 43 -3.33301 61 -10s35.667 -16 53 -28l-41 -76c-18 12 -37.333 18 -58 18c-15.333 0 -28.166 -4.33301 -38.499 -13s-20.833 -24.667 -31.5 -48l-135 -287v-262
h-134v261z" />
    <glyph glyph-name="uni01B4" unicode="&#x1b4;" horiz-adv-x="512" 
d="M45 -125c34.667 5.33301 62.4971 12.833 83.4971 22.5s37.833 22.5 50.5 38.5s24.334 37.333 35.001 64h-44l-168 529h136l115 -444l87 364c10.667 46.667 26.167 80 46.5 100s49.833 30 88.5 30c26.667 0 52.334 -5.33301 77.001 -16l-26 -85
c-8.66699 3.33301 -18.667 5 -30 5s-20.166 -3 -26.499 -9s-11.833 -17 -16.5 -33l-112 -424c-18.667 -73.333 -51 -129.333 -97 -168s-108 -61 -186 -67z" />
    <glyph glyph-name="uni01B5" unicode="&#x1b5;" horiz-adv-x="534" 
d="M167 108h332l-14 -108h-462v98l140 204h-84v91h146l132 193h-301v105h440v-99l-135 -199h91v-91h-153z" />
    <glyph glyph-name="uni01B6" unicode="&#x1b6;" horiz-adv-x="449" 
d="M160 97h266l-13 -97h-395v89l105 137h-72v85h137l92 121h-240v97h381v-89l-98 -129h70v-85h-135z" />
    <glyph glyph-name="uni01B7" unicode="&#x1b7;" horiz-adv-x="533" 
d="M440.5 347c38.333 -34.667 57.502 -82.998 57.502 -144.998c0 -41.333 -10.5 -78.5 -31.5 -111.5s-51.167 -58.833 -90.5 -77.5s-86 -28 -140 -28c-51.333 0 -95.5 8.16699 -132.5 24.5s-69.167 40.5 -96.5 72.5l71 69c22.667 -22.667 45.667 -39 69 -49
s50.666 -15 81.999 -15c42 0 74.333 10.5 97 31.5s34 50.167 34 87.5c0 39.333 -11.5 67.666 -34.5 84.999s-57.833 26 -104.5 26h-94v81l191 193h-276v100h426v-98l-195 -193c73.333 -0.666992 129.166 -18.334 167.499 -53.001z" />
    <glyph glyph-name="uni01B8" unicode="&#x1b8;" horiz-adv-x="533" 
d="M526 82c-28 -32.667 -60.832 -57 -98.499 -73s-83.5 -24 -137.5 -24c-51.333 0 -96.333 9 -135 27s-68.334 43.167 -89.001 75.5s-31 68.833 -31 109.5c0 60 19.833 108.5 59.5 145.5s94.5 56.167 164.5 57.5l-194 193v98h425v-100h-274l190 -194v-80h-94
c-93.333 0 -140 -39 -140 -117c0 -34.667 11 -62.167 33 -82.5s52.667 -30.5 92 -30.5c34 0 63.167 5 87.5 15s47.833 26.333 70.5 49z" />
    <glyph glyph-name="uni01B9" unicode="&#x1b9;" horiz-adv-x="497" 
d="M503 -121c-28 -32 -60.332 -56.166 -96.999 -72.499s-79.667 -24.5 -129 -24.5c-50.667 0 -95.167 9.33301 -133.5 28s-68 44.5 -89 77.5s-31.5 70.167 -31.5 111.5c0 65.333 19.833 116.166 59.5 152.499s95.167 55.833 166.5 58.5l-197 228v91h416v-99h-271l186 -223
v-79h-86c-48 0 -83.333 -10 -106 -30s-34 -51.333 -34 -94c0 -38.667 11.167 -68.667 33.5 -90s53.166 -32 92.499 -32c30 0 56.667 4.83301 80 14.5s47.333 25.5 72 47.5z" />
    <glyph glyph-name="uni01BA" unicode="&#x1ba;" horiz-adv-x="491" 
d="M28 -72c0 35.333 13.667 62.832 41 82.499s70 34.167 128 43.5c49.333 7.33301 84.5 17 105.5 29s31.5 30.333 31.5 55c0 38.667 -27.333 58 -82 58h-141v77l174 161h-262v95h413v-87l-186 -166h39c56 0 99.833 -12.333 131.5 -37s47.5 -59.334 47.5 -104.001
c0 -93.333 -66.667 -149.666 -200 -168.999c-47.333 -7.33301 -78.833 -14.666 -94.5 -21.999s-23.5 -17.333 -23.5 -30c0 -10 5 -19.667 15 -29s25.333 -19 46 -29l-36 -75c-98 35.333 -147 84.333 -147 147z" />
    <glyph glyph-name="uni01BB" unicode="&#x1bb;" horiz-adv-x="507" 
d="M467 101l-14.002 -100.999h-419v94l146 151h-112v91h191c22.667 29.333 38.5 55.333 47.5 78s13.5 46.667 13.5 72c0 30.667 -8.83301 54.667 -26.5 72s-41.167 26 -70.5 26c-26 0 -48.833 -5.5 -68.5 -16.5s-40.167 -29.167 -61.5 -54.5l-78 62
c56.667 73.333 129.334 110 218.001 110c45.333 0 84.5 -8.33301 117.5 -25s58.167 -39.334 75.5 -68.001s26 -60.667 26 -96c0 -28 -4.16699 -54.667 -12.5 -80s-22.166 -52 -41.499 -80h62v-91h-137c-37.333 -40.667 -85.333 -88.667 -144 -144h288z" />
    <glyph glyph-name="uni01BC" unicode="&#x1bc;" horiz-adv-x="528" 
d="M446 597h-259.001v-177c35.333 17.333 72.333 26 111 26c37.333 0 70.5 -8.66699 99.5 -26s51.667 -42.833 68 -76.5s24.5 -73.5 24.5 -119.5c0 -47.333 -10.5 -89 -31.5 -125s-50.667 -64 -89 -84s-83.166 -30 -134.499 -30c-86 0 -158 31.667 -216 95l72 68
c40.667 -42.667 87.667 -64 141 -64c40 0 71 12 93 36s33 59 33 105c0 86 -35.667 129 -107 129c-16 0 -31.167 -1.83301 -45.5 -5.5s-30.833 -9.5 -49.5 -17.5h-92v360h398z" />
    <glyph glyph-name="uni01BD" unicode="&#x1bd;" horiz-adv-x="467" 
d="M382 432l-202.002 -0.00195312v-102c26.667 11.333 55.334 17 86.001 17c31.333 0 59.666 -7 84.999 -21s45.5 -34.167 60.5 -60.5s22.5 -57.166 22.5 -92.499c0 -37.333 -9.16699 -70.166 -27.5 -98.499s-44.166 -50.333 -77.499 -66s-72 -23.5 -116 -23.5
c-40.667 0 -76 6.5 -106 19.5s-58 32.167 -84 57.5l67 71c22 -17.333 41.333 -29.5 58 -36.5s37.334 -10.5 62.001 -10.5c28 0 50.333 7.66699 67 23s25 37.333 25 66c0 27.333 -6.83301 47.5 -20.5 60.5s-31.834 19.5 -54.501 19.5c-15.333 0 -28.666 -1.33301 -39.999 -4
s-24 -7 -38 -13h-86v291h339z" />
    <glyph glyph-name="uni01BE" unicode="&#x1be;" horiz-adv-x="513" 
d="M424 362.5c30 -35 45.001 -83.501 45.001 -145.501c0 -45.333 -9.83301 -85.333 -29.5 -120s-47.5 -61.834 -83.5 -81.501s-77.667 -29.5 -125 -29.5c-42.667 0 -81.334 7.33301 -116.001 22s-67.667 37 -99 67l66 67c22 -20 43.833 -34.833 65.5 -44.5
s45.167 -14.5 70.5 -14.5c38.667 0 68 11.833 88 35.5s30 57.167 30 100.5c0 44.667 -10 79.334 -30 104.001s-51 42.334 -93 53.001l-62 14v147h-74v82h74v121l128 13v-134h102v-82h-102v-98l28 -5c48 -12.667 87 -36.5 117 -71.5z" />
    <glyph glyph-name="uni01BF" unicode="&#x1bf;" horiz-adv-x="591" 
d="M497 492.5c33.333 -34.333 49.998 -80.834 49.998 -139.501c0 -55.333 -11.333 -102.666 -34 -141.999s-53.167 -73 -91.5 -101s-87.833 -57.333 -148.5 -88l-68 -34v-192l-128 -14v747h112l8 -70c22.667 27.333 47.834 48.333 75.501 63s59.834 22 96.501 22
c52 0 94.667 -17.167 128 -51.5zM373.498 215.999c26.333 37.333 39.5 82.334 39.5 135.001c0 32 -7 56.167 -21 72.5s-34.333 24.5 -61 24.5c-24.667 0 -47.167 -5.33301 -67.5 -16s-39.833 -26.334 -58.5 -47.001v-300l47 27c54.667 32 95.167 66.667 121.5 104z" />
    <glyph glyph-name="uni01C0" unicode="&#x1c0;" horiz-adv-x="275" 
d="M194 753v-753h-113v741z" />
    <glyph glyph-name="uni01C1" unicode="&#x1c1;" horiz-adv-x="464" 
d="M194 753v-753h-113v741zM383 753v-753h-113v741z" />
    <glyph glyph-name="uni01C2" unicode="&#x1c2;" horiz-adv-x="322" 
d="M312 402h-94v-71h94v-78h-94v-253h-113v253h-95v78h95v71h-95v78h95v261l113 12v-273h94v-78z" />
    <glyph glyph-name="uni01C3" unicode="&#x1c3;" horiz-adv-x="323" 
d="M218 753v-529h-114v517zM218.5 123.5c15.667 -15.667 23.5 -34.834 23.5 -57.501c0 -22 -7.83301 -41 -23.5 -57s-34.834 -24 -57.501 -24c-22 0 -40.833 8 -56.5 24s-23.5 35 -23.5 57c0 22.667 7.66699 41.834 23 57.501s34.333 23.5 57 23.5
s41.834 -7.83301 57.501 -23.5z" />
    <glyph glyph-name="uni01C4" unicode="&#x1c4;" horiz-adv-x="1157" 
d="M508.5 618c64.333 -48.667 96.5 -138.333 96.5 -269c0 -128 -31.667 -218.167 -95 -270.5s-143.666 -78.5 -240.999 -78.5h-188v691h170c107.333 0 193.166 -24.333 257.499 -73zM213 592.001l0.000976562 -493.001h65c58.667 0 104.667 18.167 138 54.5
s50 101.5 50 195.5c0 65.333 -8.5 115.833 -25.5 151.5s-39.333 59.834 -67 72.501s-60.834 19 -99.501 19h-61zM1119 691v-102l-319 -481h322l-14 -108h-462v101l325 485h-292v105h440zM1027 928l49 -56l-139 -120h-80l-139 120l49 56l130 -83z" />
    <glyph glyph-name="uni01C5" unicode="&#x1c5;" horiz-adv-x="1087" 
d="M508.5 618c64.333 -48.667 96.5 -138.333 96.5 -269c0 -128 -31.667 -218.167 -95 -270.5s-143.666 -78.5 -240.999 -78.5h-188v691h170c107.333 0 193.166 -24.333 257.499 -73zM213 592.001l0.000976562 -493.001h65c58.667 0 104.667 18.167 138 54.5
s50 101.5 50 195.5c0 65.333 -8.5 115.833 -25.5 151.5s-39.333 59.834 -67 72.501s-60.834 19 -99.501 19h-61zM1059 529v-92l-256 -337h261l-13 -100h-395v92l257 337h-235v100h381zM994.001 800l49 -56l-139 -125h-80l-139 125l49 56l130 -88z" />
    <glyph glyph-name="uni01C6" unicode="&#x1c6;" horiz-adv-x="1048" 
d="M522 741l0.00390625 -741h-113l-9 67c-16.667 -25.333 -37.834 -45.333 -63.501 -60s-54.834 -22 -87.501 -22c-64.667 0 -114.334 25 -149.001 75s-52 118 -52 204c0 54 8.66699 102.167 26 144.5s42.166 75.5 74.499 99.5s69.833 36 112.5 36c50.667 0 95 -19 133 -57
v268zM345.004 98.5c17.333 11 33.6689 28.165 49.002 51.498v242c-15.333 18.667 -30.833 32.667 -46.5 42s-33.834 14 -54.501 14c-34 0 -60.833 -15.167 -80.5 -45.5s-29.5 -76.166 -29.5 -137.499c0 -65.333 8.66699 -112.166 26 -140.499s42.666 -42.5 75.999 -42.5
c22.667 0 42.667 5.5 60 16.5zM1020.01 528.998v-92l-256 -337h261l-13 -100h-395v92l257 337h-235v100h381zM955.007 799.998l49 -56l-139 -125h-80l-139 125l49 56l130 -88z" />
    <glyph glyph-name="uni01C7" unicode="&#x1c7;" horiz-adv-x="797" 
d="M213 691v-583h277l-15 -108h-394v691h132zM720 101c0 -74 -17.5 -129.832 -52.5 -167.499s-85.167 -67.167 -150.5 -88.5l-35 95c29.333 11.333 51.5 24.166 66.5 38.499s25.167 31.333 30.5 51s8 45.167 8 76.5v585h133v-590z" />
    <glyph glyph-name="uni01C8" unicode="&#x1c8;" horiz-adv-x="772" 
d="M213 691v-583h277l-15 -108h-394v691h132zM695 47c0 -52 -7.50098 -94.5 -22.501 -127.5s-36.167 -59.5 -63.5 -79.5s-63 -39 -107 -57l-41 93c26 12 46.333 23.833 61 35.5s25.834 27.5 33.501 47.5s11.5 46.667 11.5 80v490h128v-482zM688.499 774.5
c15 -15 22.5 -33.5 22.5 -55.5s-7.5 -40.333 -22.5 -55s-34.5 -22 -58.5 -22c-23.333 0 -42.5 7.33301 -57.5 22s-22.5 33 -22.5 55s7.5 40.5 22.5 55.5s34.167 22.5 57.5 22.5c24 0 43.5 -7.5 58.5 -22.5z" />
    <glyph glyph-name="uni01C9" unicode="&#x1c9;" horiz-adv-x="576" 
d="M106.5 20.5c-23 23.667 -34.5 57.167 -34.5 100.5v620l128 14v-630c0 -24.667 10 -37 30 -37c10 0 20 1.66699 30 5l27 -90c-26.667 -12 -55 -18 -85 -18c-40.667 0 -72.5 11.833 -95.5 35.5zM499 47c0 -52 -7.50098 -94.5 -22.501 -127.5s-36.167 -59.5 -63.5 -79.5
s-63 -39 -107 -57l-41 93c26 12 46.333 23.833 61 35.5s25.834 27.5 33.501 47.5s11.5 46.667 11.5 80v490h128v-482zM492.499 774.5c15 -15 22.5 -33.5 22.5 -55.5s-7.5 -40.333 -22.5 -55s-34.5 -22 -58.5 -22c-23.333 0 -42.5 7.33301 -57.5 22s-22.5 33 -22.5 55
s7.5 40.5 22.5 55.5s34.167 22.5 57.5 22.5c24 0 43.5 -7.5 58.5 -22.5z" />
    <glyph glyph-name="uni01CA" unicode="&#x1ca;" horiz-adv-x="984" 
d="M591 0l-171 -0.000976562l-237 559c6 -49.333 10.5 -94 13.5 -134s4.5 -87.667 4.5 -143v-282h-120v691h167l241 -560c-4 26.667 -8 61.834 -12 105.501s-6 87.167 -6 130.5v324h120v-691zM907 100.999c0 -74 -17.5 -129.832 -52.5 -167.499
s-85.167 -67.167 -150.5 -88.5l-35 95c29.333 11.333 51.5 24.166 66.5 38.499s25.167 31.333 30.5 51s8 45.167 8 76.5v585h133v-590z" />
    <glyph glyph-name="uni01CB" unicode="&#x1cb;" horiz-adv-x="953" 
d="M591 0l-171 -0.000976562l-237 559c6 -49.333 10.5 -94 13.5 -134s4.5 -87.667 4.5 -143v-282h-120v691h167l241 -560c-4 26.667 -8 61.834 -12 105.501s-6 87.167 -6 130.5v324h120v-691zM876 46.999c0 -52 -7.50098 -94.5 -22.501 -127.5s-36.167 -59.5 -63.5 -79.5
s-63 -39 -107 -57l-41 93c26 12 46.333 23.833 61 35.5s25.834 27.5 33.501 47.5s11.5 46.667 11.5 80v490h128v-482zM869.499 774.499c15 -15 22.5 -33.5 22.5 -55.5s-7.5 -40.333 -22.5 -55s-34.5 -22 -58.5 -22c-23.333 0 -42.5 7.33301 -57.5 22s-22.5 33 -22.5 55
s7.5 40.5 22.5 55.5s34.167 22.5 57.5 22.5c24 0 43.5 -7.5 58.5 -22.5z" />
    <glyph glyph-name="uni01CC" unicode="&#x1cc;" horiz-adv-x="862" 
d="M469.5 501.5c26.333 -28.333 39.502 -67.833 39.502 -118.5v-383h-128v363c0 31.333 -5.5 53.333 -16.5 66s-27.167 19 -48.5 19c-22 0 -41.833 -6.83301 -59.5 -20.5s-34.834 -33.5 -51.501 -59.5v-368h-128v529h111l10 -69c43.333 56 97 84 161 84
c47.333 0 84.166 -14.167 110.499 -42.5zM785.002 47c0 -52 -7.50098 -94.5 -22.501 -127.5s-36.167 -59.5 -63.5 -79.5s-63 -39 -107 -57l-41 93c26 12 46.333 23.833 61 35.5s25.834 27.5 33.501 47.5s11.5 46.667 11.5 80v490h128v-482zM778.501 774.5
c15 -15 22.5 -33.5 22.5 -55.5s-7.5 -40.333 -22.5 -55s-34.5 -22 -58.5 -22c-23.333 0 -42.5 7.33301 -57.5 22s-22.5 33 -22.5 55s7.5 40.5 22.5 55.5s34.167 22.5 57.5 22.5c24 0 43.5 -7.5 58.5 -22.5z" />
    <glyph glyph-name="uni01CD" unicode="&#x1cd;" horiz-adv-x="583" 
d="M447 0l-43 160h-229l-43 -160h-137l215 691h163l214 -691h-140zM201 260h176l-88 330zM422 928l49 -56l-139 -120h-80l-139 120l49 56l130 -83z" />
    <glyph glyph-name="uni01CE" unicode="&#x1ce;" horiz-adv-x="546" 
d="M477.5 94.5c6.33301 -9.66699 16.5029 -17.165 30.5029 -22.498l-27 -85c-30 2.66699 -54.5 10 -73.5 22s-33.5 30.333 -43.5 55c-18 -26.667 -40.5 -46.5 -67.5 -59.5s-57.167 -19.5 -90.5 -19.5c-52.667 0 -94.334 15 -125.001 45s-46 69.333 -46 118
c0 57.333 20.833 101.166 62.5 131.499s101.167 45.5 178.5 45.5h66v30c0 34 -7.83301 57.833 -23.5 71.5s-40.834 20.5 -75.501 20.5c-38.667 0 -85.334 -9.33301 -140.001 -28l-30 87c66 25.333 130 38 192 38c135.333 0 203 -60.667 203 -182v-222
c0 -20.667 3.16699 -35.834 9.5 -45.501zM342.003 143.002l-0.000976562 107h-53c-82.667 0 -124 -30.667 -124 -92c0 -25.333 6.33301 -45 19 -59s31.334 -21 56.001 -21c43.333 0 77.333 21.667 102 65zM396.002 800.002l49 -56l-139 -125h-80l-139 125l49 56l130 -88z
" />
    <glyph glyph-name="uni01CF" unicode="&#x1cf;" horiz-adv-x="294" 
d="M213 691v-691h-132v691h132zM277 928l49 -56l-139 -120h-80l-139 120l49 56l130 -83z" />
    <glyph glyph-name="uni01D0" unicode="&#x1d0;" horiz-adv-x="282" 
d="M205 529v-529h-128v529h128zM271 800l49 -56l-139 -125h-80l-139 125l49 56l130 -88z" />
    <glyph glyph-name="uni01D1" unicode="&#x1d1;" horiz-adv-x="691" 
d="M507 664c45.333 -28 80.165 -69 104.498 -123s36.5 -119 36.5 -195c0 -75.333 -12.333 -140 -37 -194s-59.667 -95.333 -105 -124s-98.666 -43 -159.999 -43c-62 0 -115.667 14 -161 42s-80.333 69 -105 123s-37 119 -37 195c0 74.667 12.333 139.167 37 193.5
s59.834 95.833 105.501 124.5s99.167 43 160.5 43c62 0 115.667 -14 161 -42zM223.999 542.5c-28 -41.667 -42 -107.5 -42 -197.5c0 -172.667 54.667 -259 164 -259c53.333 0 93.833 20.667 121.5 62s41.5 107.333 41.5 198c0 90 -13.833 155.667 -41.5 197
s-68.167 62 -121.5 62s-94 -20.833 -122 -62.5zM475.999 928l49 -56l-139 -120h-80l-139 120l49 56l130 -83z" />
    <glyph glyph-name="uni01D2" unicode="&#x1d2;" horiz-adv-x="584" 
d="M475.5 469.5c43.667 -49.667 65.499 -117.835 65.499 -204.502c0 -55.333 -10 -104.166 -30 -146.499s-48.667 -75.166 -86 -98.499s-81.666 -35 -132.999 -35c-78 0 -139 24.833 -183 74.5s-66 118.167 -66 205.5c0 55.333 10 104 30 146s48.833 74.667 86.5 98
s82.167 35 133.5 35c78 0 138.833 -24.833 182.5 -74.5zM177.999 264.999c0 -62.667 9.5 -108.833 28.5 -138.5s47.5 -44.5 85.5 -44.5s66.5 15 85.5 45s28.5 76 28.5 138s-9.5 107.833 -28.5 137.5s-47.167 44.5 -84.5 44.5c-76.667 0 -115 -60.667 -115 -182zM421.999 800
l49 -56l-139 -125h-80l-139 125l49 56l130 -88z" />
    <glyph glyph-name="uni01D3" unicode="&#x1d3;" horiz-adv-x="656" 
d="M585 226c0 -46.667 -9.83301 -88.167 -29.5 -124.5s-49 -64.833 -88 -85.5s-85.833 -31 -140.5 -31c-82.667 0 -146 21.833 -190 65.5s-66 102.167 -66 175.5v465h132v-458c0 -48.667 10.167 -85 30.5 -109s51.5 -36 93.5 -36c42.667 0 74.167 12 94.5 36
s30.5 60.333 30.5 109v458h133v-465zM458 928l49 -56l-139 -120h-80l-139 120l49 56l130 -83z" />
    <glyph glyph-name="uni01D4" unicode="&#x1d4;" horiz-adv-x="577" 
d="M500 0h-111.002l-7 74c-19.333 -30 -42.166 -52.333 -68.499 -67s-57.5 -22 -93.5 -22c-47.333 0 -83.833 14.5 -109.5 43.5s-38.5 69.167 -38.5 120.5v380h128v-364c0 -30 5.16699 -51.333 15.5 -64s26.833 -19 49.5 -19c40.667 0 76.334 25 107.001 75v372h128v-529z
M415.998 800l49 -56l-139 -125h-80l-139 125l49 56l130 -88z" />
    </font>
</defs>
</svg>
